<svg width="472" height="160" viewBox="0 0 472 160" fill="none" xmlns="http://www.w3.org/2000/svg">
<rect width="472" height="160" rx="23" fill="#F3DADA"/>
<rect x="33" y="16" width="129" height="129" rx="33" fill="#F9F0F0"/>
<path d="M128.776 40H65.504C62.454 40.0033 59.5298 41.2164 57.3731 43.3731C55.2164 45.5298 54.0033 48.454 54 51.504V109.024C54.0033 112.074 55.2164 114.998 57.3731 117.155C59.5298 119.312 62.454 120.525 65.504 120.528H128.776C131.826 120.525 134.75 119.312 136.907 117.155C139.064 114.998 140.277 112.074 140.28 109.024V51.504C140.277 48.454 139.064 45.5298 136.907 43.3731C134.75 41.2164 131.826 40.0033 128.776 40V40ZM68.38 80.264C67.7841 80.264 67.203 80.0789 66.7169 79.7344C66.2308 79.3898 65.8637 78.9027 65.6663 78.3405C65.469 77.7783 65.4511 77.1686 65.6152 76.5958C65.7794 76.023 66.1174 75.5153 66.5825 75.1429L78.1566 65.884L66.5825 56.6251C66.2874 56.389 66.0418 56.0972 65.8595 55.7662C65.6772 55.4352 65.5619 55.0715 65.5202 54.696C65.4785 54.3204 65.5111 53.9403 65.6163 53.5774C65.7215 53.2144 65.8971 52.8758 66.1331 52.5807C66.3692 52.2856 66.661 52.04 66.992 51.8577C67.323 51.6754 67.6867 51.5601 68.0622 51.5184C68.4378 51.4767 68.8179 51.5093 69.1808 51.6145C69.5438 51.7197 69.8824 51.8953 70.1775 52.1313L84.5575 63.6353C84.8947 63.9047 85.1669 64.2466 85.354 64.6356C85.5411 65.0245 85.6382 65.4506 85.6382 65.8822C85.6382 66.3138 85.5411 66.7399 85.354 67.1288C85.1669 67.5178 84.8947 67.8597 84.5575 68.1291L70.1775 79.6331C69.6674 80.0415 69.0334 80.264 68.38 80.264ZM97.14 80.264H85.636C84.8732 80.264 84.1417 79.961 83.6024 79.4216C83.063 78.8823 82.76 78.1508 82.76 77.388C82.76 76.6252 83.063 75.8937 83.6024 75.3544C84.1417 74.815 84.8732 74.512 85.636 74.512H97.14C97.9028 74.512 98.6343 74.815 99.1736 75.3544C99.713 75.8937 100.016 76.6252 100.016 77.388C100.016 78.1508 99.713 78.8823 99.1736 79.4216C98.6343 79.961 97.9028 80.264 97.14 80.264Z" fill="#0B6C69"/>
<path d="M60.67 139V125.909H65.8348C66.8277 125.909 67.6736 126.099 68.3724 126.478C69.0713 126.853 69.604 127.375 69.9704 128.044C70.3412 128.709 70.5265 129.476 70.5265 130.345C70.5265 131.214 70.339 131.982 69.964 132.646C69.589 133.311 69.0457 133.829 68.3341 134.2C67.6267 134.57 66.7702 134.756 65.7645 134.756H62.4726V132.538H65.317C65.8497 132.538 66.2886 132.446 66.6338 132.263C66.9832 132.075 67.2432 131.817 67.4136 131.489C67.5883 131.157 67.6757 130.776 67.6757 130.345C67.6757 129.911 67.5883 129.531 67.4136 129.207C67.2432 128.879 66.9832 128.626 66.6338 128.447C66.2844 128.263 65.8412 128.172 65.3042 128.172H63.4378V139H60.67ZM72.2732 139V129.182H74.9131V130.895H75.0154C75.1943 130.286 75.4948 129.825 75.9166 129.514C76.3385 129.199 76.8243 129.041 77.374 129.041C77.5104 129.041 77.6574 129.05 77.8151 129.067C77.9727 129.084 78.1112 129.107 78.2306 129.137V131.553C78.1027 131.515 77.9259 131.481 77.7 131.451C77.4742 131.421 77.2675 131.406 77.08 131.406C76.6794 131.406 76.3215 131.494 76.0061 131.668C75.695 131.839 75.4479 132.077 75.2646 132.384C75.0857 132.691 74.9962 133.045 74.9962 133.445V139H72.2732ZM83.6175 139.192C82.6246 139.192 81.7659 138.981 81.0415 138.559C80.3213 138.133 79.7652 137.54 79.3731 136.782C78.9811 136.019 78.7851 135.135 78.7851 134.129C78.7851 133.115 78.9811 132.229 79.3731 131.47C79.7652 130.707 80.3213 130.115 81.0415 129.693C81.7659 129.267 82.6246 129.054 83.6175 129.054C84.6104 129.054 85.4669 129.267 86.1871 129.693C86.9115 130.115 87.4697 130.707 87.8618 131.47C88.2538 132.229 88.4498 133.115 88.4498 134.129C88.4498 135.135 88.2538 136.019 87.8618 136.782C87.4697 137.54 86.9115 138.133 86.1871 138.559C85.4669 138.981 84.6104 139.192 83.6175 139.192ZM83.6302 137.082C84.0819 137.082 84.4591 136.955 84.7616 136.699C85.0642 136.439 85.2922 136.085 85.4456 135.638C85.6032 135.19 85.6821 134.681 85.6821 134.11C85.6821 133.539 85.6032 133.03 85.4456 132.582C85.2922 132.135 85.0642 131.781 84.7616 131.521C84.4591 131.261 84.0819 131.131 83.6302 131.131C83.1743 131.131 82.7907 131.261 82.4797 131.521C82.1729 131.781 81.9406 132.135 81.7829 132.582C81.6295 133.03 81.5528 133.539 81.5528 134.11C81.5528 134.681 81.6295 135.19 81.7829 135.638C81.9406 136.085 82.1729 136.439 82.4797 136.699C82.7907 136.955 83.1743 137.082 83.6302 137.082ZM94.6437 142.886C93.7616 142.886 93.0052 142.765 92.3746 142.522C91.7481 142.283 91.2496 141.957 90.8788 141.544C90.5081 141.131 90.2673 140.666 90.1565 140.151L92.675 139.812C92.7517 140.008 92.8731 140.191 93.0393 140.362C93.2055 140.532 93.425 140.668 93.6977 140.771C93.9747 140.877 94.3113 140.93 94.7077 140.93C95.3 140.93 95.7879 140.786 96.1714 140.496C96.5592 140.21 96.7531 139.731 96.7531 139.058V137.261H96.6381C96.5187 137.534 96.3398 137.792 96.1011 138.035C95.8625 138.278 95.5557 138.476 95.1807 138.629C94.8057 138.783 94.3582 138.859 93.8383 138.859C93.1011 138.859 92.43 138.689 91.8248 138.348C91.224 138.003 90.7446 137.477 90.3866 136.769C90.0329 136.058 89.8561 135.158 89.8561 134.072C89.8561 132.96 90.0372 132.031 90.3994 131.285C90.7616 130.539 91.2432 129.981 91.844 129.61C92.4491 129.239 93.1118 129.054 93.8319 129.054C94.3817 129.054 94.8419 129.148 95.2126 129.335C95.5834 129.518 95.8817 129.749 96.1075 130.026C96.3376 130.298 96.5145 130.567 96.6381 130.831H96.7403V129.182H99.4442V139.096C99.4442 139.931 99.2396 140.63 98.8305 141.192C98.4214 141.755 97.8547 142.177 97.1302 142.458C96.4101 142.744 95.5812 142.886 94.6437 142.886ZM94.7013 136.814C95.1402 136.814 95.5109 136.705 95.8135 136.488C96.1203 136.266 96.3547 135.951 96.5166 135.542C96.6828 135.129 96.7659 134.634 96.7659 134.059C96.7659 133.484 96.6849 132.985 96.523 132.563C96.3611 132.137 96.1267 131.807 95.8199 131.572C95.5131 131.338 95.1402 131.221 94.7013 131.221C94.2538 131.221 93.8767 131.342 93.5699 131.585C93.2631 131.824 93.0308 132.156 92.8731 132.582C92.7155 133.009 92.6366 133.501 92.6366 134.059C92.6366 134.626 92.7155 135.116 92.8731 135.529C93.0351 135.938 93.2673 136.256 93.5699 136.482C93.8767 136.703 94.2538 136.814 94.7013 136.814ZM101.611 139V129.182H104.251V130.895H104.353C104.532 130.286 104.833 129.825 105.255 129.514C105.676 129.199 106.162 129.041 106.712 129.041C106.848 129.041 106.995 129.05 107.153 129.067C107.311 129.084 107.449 129.107 107.568 129.137V131.553C107.441 131.515 107.264 131.481 107.038 131.451C106.812 131.421 106.605 131.406 106.418 131.406C106.017 131.406 105.659 131.494 105.344 131.668C105.033 131.839 104.786 132.077 104.603 132.384C104.424 132.691 104.334 133.045 104.334 133.445V139H101.611ZM111.495 139.185C110.868 139.185 110.31 139.077 109.82 138.859C109.33 138.638 108.942 138.312 108.657 137.881C108.375 137.447 108.235 136.906 108.235 136.258C108.235 135.712 108.335 135.254 108.535 134.884C108.736 134.513 109.008 134.214 109.353 133.989C109.699 133.763 110.091 133.592 110.53 133.477C110.973 133.362 111.437 133.281 111.923 133.234C112.494 133.175 112.954 133.119 113.304 133.068C113.653 133.013 113.907 132.932 114.064 132.825C114.222 132.719 114.301 132.561 114.301 132.352V132.314C114.301 131.909 114.173 131.596 113.917 131.374C113.666 131.153 113.308 131.042 112.843 131.042C112.353 131.042 111.964 131.151 111.674 131.368C111.384 131.581 111.192 131.849 111.098 132.173L108.58 131.969C108.708 131.372 108.959 130.857 109.334 130.422C109.709 129.983 110.193 129.646 110.785 129.412C111.382 129.173 112.072 129.054 112.856 129.054C113.402 129.054 113.924 129.118 114.422 129.246C114.925 129.374 115.37 129.572 115.758 129.84C116.15 130.109 116.459 130.454 116.685 130.876C116.911 131.293 117.024 131.794 117.024 132.378V139H114.441V137.638H114.365C114.207 137.945 113.996 138.216 113.732 138.45C113.468 138.68 113.15 138.862 112.78 138.994C112.409 139.121 111.981 139.185 111.495 139.185ZM112.275 137.306C112.675 137.306 113.029 137.227 113.336 137.07C113.642 136.908 113.883 136.69 114.058 136.418C114.233 136.145 114.32 135.836 114.32 135.491V134.449C114.235 134.504 114.118 134.555 113.968 134.602C113.824 134.645 113.66 134.685 113.476 134.724C113.293 134.758 113.11 134.79 112.927 134.82C112.743 134.845 112.577 134.869 112.428 134.89C112.108 134.937 111.829 135.011 111.591 135.114C111.352 135.216 111.167 135.354 111.035 135.529C110.902 135.7 110.836 135.913 110.836 136.168C110.836 136.539 110.971 136.822 111.239 137.018C111.512 137.21 111.857 137.306 112.275 137.306ZM119.136 139V129.182H121.732V130.914H121.847C122.051 130.339 122.392 129.885 122.869 129.553C123.347 129.22 123.918 129.054 124.582 129.054C125.256 129.054 125.829 129.222 126.302 129.559C126.775 129.891 127.09 130.343 127.248 130.914H127.35C127.551 130.352 127.913 129.902 128.437 129.565C128.965 129.224 129.59 129.054 130.31 129.054C131.226 129.054 131.97 129.346 132.541 129.93C133.116 130.509 133.403 131.332 133.403 132.397V139H130.687V132.934C130.687 132.388 130.542 131.979 130.252 131.707C129.962 131.434 129.6 131.298 129.166 131.298C128.671 131.298 128.286 131.455 128.009 131.771C127.732 132.082 127.593 132.493 127.593 133.004V139H124.953V132.876C124.953 132.395 124.815 132.011 124.538 131.726C124.265 131.44 123.905 131.298 123.457 131.298C123.155 131.298 122.882 131.374 122.639 131.528C122.401 131.677 122.211 131.888 122.07 132.161C121.93 132.429 121.859 132.744 121.859 133.107V139H119.136Z" fill="black"/>
<rect x="311" y="16" width="129" height="129" rx="33" fill="#F9F0F0"/>
<path d="M371.543 118.909H374.311V127.411C374.311 128.365 374.083 129.2 373.627 129.916C373.175 130.632 372.542 131.19 371.728 131.591C370.915 131.987 369.966 132.185 368.884 132.185C367.797 132.185 366.847 131.987 366.033 131.591C365.219 131.19 364.586 130.632 364.135 129.916C363.683 129.2 363.457 128.365 363.457 127.411V118.909H366.225V127.174C366.225 127.673 366.334 128.116 366.551 128.504C366.772 128.891 367.084 129.196 367.484 129.418C367.885 129.639 368.351 129.75 368.884 129.75C369.421 129.75 369.888 129.639 370.284 129.418C370.684 129.196 370.993 128.891 371.211 128.504C371.432 128.116 371.543 127.673 371.543 127.174V118.909ZM384.706 124.982L382.213 125.135C382.17 124.922 382.079 124.73 381.938 124.56C381.797 124.385 381.612 124.246 381.382 124.144C381.156 124.038 380.886 123.984 380.57 123.984C380.148 123.984 379.793 124.074 379.503 124.253C379.213 124.428 379.068 124.662 379.068 124.956C379.068 125.19 379.162 125.388 379.349 125.55C379.537 125.712 379.859 125.842 380.315 125.94L382.092 126.298C383.046 126.494 383.758 126.81 384.226 127.244C384.695 127.679 384.93 128.25 384.93 128.957C384.93 129.601 384.74 130.165 384.361 130.651C383.986 131.137 383.47 131.516 382.814 131.789C382.162 132.058 381.41 132.192 380.557 132.192C379.258 132.192 378.222 131.921 377.451 131.38C376.684 130.835 376.234 130.093 376.102 129.156L378.78 129.015C378.861 129.411 379.057 129.714 379.369 129.923C379.68 130.127 380.078 130.229 380.564 130.229C381.041 130.229 381.425 130.138 381.714 129.955C382.008 129.767 382.158 129.526 382.162 129.232C382.158 128.985 382.053 128.783 381.849 128.625C381.644 128.463 381.329 128.339 380.903 128.254L379.202 127.915C378.244 127.724 377.53 127.391 377.061 126.918C376.597 126.445 376.364 125.842 376.364 125.109C376.364 124.479 376.535 123.935 376.876 123.479C377.221 123.023 377.704 122.672 378.327 122.425C378.953 122.178 379.686 122.054 380.525 122.054C381.766 122.054 382.741 122.316 383.453 122.84C384.169 123.364 384.587 124.078 384.706 124.982ZM391.119 132.192C390.109 132.192 389.239 131.987 388.511 131.578C387.786 131.165 387.228 130.581 386.836 129.827C386.444 129.068 386.248 128.171 386.248 127.136C386.248 126.126 386.444 125.239 386.836 124.477C387.228 123.714 387.78 123.119 388.492 122.693C389.207 122.267 390.047 122.054 391.01 122.054C391.658 122.054 392.261 122.158 392.819 122.367C393.381 122.572 393.872 122.881 394.289 123.294C394.711 123.707 395.039 124.227 395.274 124.854C395.508 125.476 395.625 126.205 395.625 127.04V127.788H387.335V126.1H393.062C393.062 125.708 392.977 125.361 392.806 125.058C392.636 124.756 392.399 124.519 392.097 124.349C391.798 124.174 391.451 124.087 391.055 124.087C390.641 124.087 390.275 124.183 389.955 124.374C389.64 124.562 389.393 124.815 389.214 125.135C389.035 125.45 388.943 125.802 388.939 126.19V127.794C388.939 128.28 389.028 128.7 389.207 129.053C389.391 129.407 389.649 129.68 389.981 129.871C390.313 130.063 390.707 130.159 391.163 130.159C391.466 130.159 391.743 130.116 391.994 130.031C392.246 129.946 392.461 129.818 392.64 129.648C392.819 129.477 392.955 129.268 393.049 129.021L395.568 129.188C395.44 129.793 395.178 130.321 394.781 130.773C394.389 131.22 393.882 131.57 393.26 131.821C392.642 132.068 391.928 132.192 391.119 132.192ZM397.402 132V122.182H400.042V123.895H400.144C400.323 123.286 400.624 122.825 401.046 122.514C401.467 122.199 401.953 122.041 402.503 122.041C402.639 122.041 402.786 122.05 402.944 122.067C403.102 122.084 403.24 122.107 403.359 122.137V124.553C403.232 124.515 403.055 124.481 402.829 124.451C402.603 124.421 402.396 124.406 402.209 124.406C401.808 124.406 401.45 124.494 401.135 124.668C400.824 124.839 400.577 125.077 400.394 125.384C400.215 125.691 400.125 126.045 400.125 126.445V132H397.402Z" fill="black"/>
<path d="M386.04 52.6974C383.235 49.6682 379.316 48 374.99 48C370.642 48 366.71 49.6581 363.917 52.6686C361.094 55.7122 359.719 59.8487 360.042 64.3155C360.682 73.1278 367.388 80.2964 374.99 80.2964C382.593 80.2964 389.287 73.1292 389.938 64.3183C390.265 59.892 388.881 55.7641 386.04 52.6974V52.6974Z" fill="#0B6C69"/>
<path d="M400.366 112.593H349.615C348.95 112.601 348.292 112.462 347.689 112.184C347.085 111.907 346.551 111.498 346.125 110.988C345.188 109.868 344.811 108.338 345.09 106.791C346.307 100.04 350.105 94.3699 356.074 90.389C361.377 86.8552 368.094 84.9102 374.99 84.9102C381.886 84.9102 388.604 86.8566 393.907 90.389C399.876 94.3684 403.674 100.039 404.89 106.79C405.17 108.337 404.792 109.866 403.855 110.987C403.43 111.497 402.896 111.906 402.292 112.184C401.688 112.462 401.03 112.601 400.366 112.593V112.593Z" fill="#0B6C69"/>
<path d="M162 82.5C161.172 82.5 160.5 83.1716 160.5 84C160.5 84.8284 161.172 85.5 162 85.5V82.5ZM311 84L296 75.3397V92.6603L311 84ZM162 85.5H297.5V82.5H162V85.5Z" fill="black"/>
<path d="M209.829 80V66.9091H214.994C215.983 66.9091 216.826 67.0859 217.525 67.4396C218.228 67.7891 218.763 68.2855 219.13 68.929C219.5 69.5682 219.686 70.3203 219.686 71.1854C219.686 72.0547 219.498 72.8026 219.123 73.429C218.748 74.0511 218.205 74.5284 217.493 74.8608C216.786 75.1932 215.929 75.3594 214.924 75.3594H211.466V73.1349H214.476C215.005 73.1349 215.444 73.0625 215.793 72.9176C216.142 72.7727 216.402 72.5554 216.573 72.2656C216.748 71.9759 216.835 71.6158 216.835 71.1854C216.835 70.7507 216.748 70.3842 216.573 70.0859C216.402 69.7876 216.14 69.5618 215.787 69.4084C215.437 69.2507 214.996 69.1719 214.463 69.1719H212.597V80H209.829ZM216.899 74.0426L220.152 80H217.097L213.914 74.0426H216.899ZM225.907 80.1918C224.897 80.1918 224.028 79.9872 223.299 79.5781C222.574 79.1648 222.016 78.581 221.624 77.8267C221.232 77.0682 221.036 76.1712 221.036 75.1357C221.036 74.1257 221.232 73.2393 221.624 72.4766C222.016 71.7138 222.568 71.1193 223.28 70.6932C223.996 70.267 224.835 70.054 225.798 70.054C226.446 70.054 227.049 70.1584 227.607 70.3672C228.17 70.5717 228.66 70.8807 229.077 71.294C229.499 71.7074 229.827 72.2273 230.062 72.8537C230.296 73.4759 230.413 74.2045 230.413 75.0398V75.7876H222.123V74.1001H227.85C227.85 73.7081 227.765 73.3608 227.594 73.0582C227.424 72.7557 227.187 72.5192 226.885 72.3487C226.586 72.174 226.239 72.0866 225.843 72.0866C225.43 72.0866 225.063 72.1825 224.743 72.3743C224.428 72.5618 224.181 72.8153 224.002 73.1349C223.823 73.4503 223.731 73.8018 223.727 74.1896V75.794C223.727 76.2798 223.817 76.6996 223.996 77.0533C224.179 77.407 224.437 77.6797 224.769 77.8714C225.101 78.0632 225.496 78.1591 225.952 78.1591C226.254 78.1591 226.531 78.1165 226.782 78.0312C227.034 77.946 227.249 77.8182 227.428 77.6477C227.607 77.4773 227.743 77.2685 227.837 77.0213L230.356 77.1875C230.228 77.7926 229.966 78.321 229.569 78.7727C229.177 79.2202 228.67 79.5696 228.048 79.821C227.43 80.0682 226.716 80.1918 225.907 80.1918ZM240.359 72.9815L237.866 73.1349C237.824 72.9219 237.732 72.7301 237.591 72.5597C237.451 72.3849 237.265 72.2464 237.035 72.1442C236.809 72.0376 236.539 71.9844 236.224 71.9844C235.802 71.9844 235.446 72.0739 235.156 72.2528C234.866 72.4276 234.721 72.6619 234.721 72.956C234.721 73.1903 234.815 73.3885 235.003 73.5504C235.19 73.7124 235.512 73.8423 235.968 73.9403L237.745 74.2983C238.699 74.4943 239.411 74.8097 239.88 75.2443C240.349 75.679 240.583 76.25 240.583 76.9574C240.583 77.6009 240.393 78.1655 240.014 78.6513C239.639 79.1371 239.123 79.5163 238.467 79.7891C237.815 80.0575 237.063 80.1918 236.211 80.1918C234.911 80.1918 233.876 79.9212 233.104 79.38C232.337 78.8345 231.888 78.093 231.756 77.1555L234.434 77.0149C234.515 77.4112 234.711 77.7138 235.022 77.9226C235.333 78.1271 235.731 78.2294 236.217 78.2294C236.694 78.2294 237.078 78.1378 237.368 77.9545C237.662 77.767 237.811 77.5263 237.815 77.2322C237.811 76.9851 237.706 76.7827 237.502 76.625C237.297 76.4631 236.982 76.3395 236.556 76.2543L234.856 75.9155C233.897 75.7237 233.183 75.3913 232.714 74.9183C232.25 74.4453 232.018 73.8423 232.018 73.1094C232.018 72.4787 232.188 71.9354 232.529 71.4794C232.874 71.0234 233.358 70.6719 233.98 70.4247C234.606 70.1776 235.339 70.054 236.179 70.054C237.419 70.054 238.395 70.3161 239.106 70.8402C239.822 71.3643 240.24 72.0781 240.359 72.9815ZM248.594 75.8196V70.1818H251.317V80H248.702V78.2166H248.6C248.379 78.7919 248.01 79.2543 247.494 79.6037C246.983 79.9531 246.359 80.1278 245.621 80.1278C244.965 80.1278 244.388 79.9787 243.889 79.6804C243.391 79.3821 243.001 78.9581 242.719 78.4084C242.442 77.8587 242.302 77.2003 242.298 76.4332V70.1818H245.021V75.9474C245.025 76.527 245.18 76.9851 245.487 77.3217C245.794 77.6584 246.205 77.8267 246.721 77.8267C247.049 77.8267 247.356 77.7521 247.641 77.603C247.927 77.4496 248.157 77.2237 248.332 76.9254C248.511 76.6271 248.598 76.2585 248.594 75.8196ZM256.218 66.9091V80H253.495V66.9091H256.218ZM263.621 70.1818V72.2273H257.709V70.1818H263.621ZM259.051 67.8295H261.774V76.983C261.774 77.2344 261.813 77.4304 261.889 77.571C261.966 77.7074 262.072 77.8033 262.209 77.8587C262.349 77.9141 262.511 77.9418 262.695 77.9418C262.822 77.9418 262.95 77.9311 263.078 77.9098C263.206 77.8842 263.304 77.8651 263.372 77.8523L263.8 79.8786C263.664 79.9212 263.472 79.9702 263.225 80.0256C262.978 80.0852 262.678 80.1214 262.324 80.1342C261.668 80.1598 261.092 80.0724 260.598 79.8722C260.108 79.6719 259.727 79.3608 259.454 78.9389C259.181 78.517 259.047 77.9844 259.051 77.3409V67.8295ZM218.739 95.4545C218.739 96.8821 218.468 98.0966 217.927 99.098C217.39 100.099 216.657 100.864 215.728 101.393C214.804 101.917 213.764 102.179 212.609 102.179C211.446 102.179 210.402 101.915 209.477 101.386C208.552 100.858 207.821 100.093 207.284 99.0916C206.747 98.0902 206.479 96.8778 206.479 95.4545C206.479 94.027 206.747 92.8125 207.284 91.8111C207.821 90.8097 208.552 90.0469 209.477 89.5227C210.402 88.9943 211.446 88.7301 212.609 88.7301C213.764 88.7301 214.804 88.9943 215.728 89.5227C216.657 90.0469 217.39 90.8097 217.927 91.8111C218.468 92.8125 218.739 94.027 218.739 95.4545ZM215.933 95.4545C215.933 94.5298 215.794 93.75 215.517 93.1151C215.245 92.4801 214.859 91.9986 214.36 91.6705C213.862 91.3423 213.278 91.1783 212.609 91.1783C211.94 91.1783 211.356 91.3423 210.858 91.6705C210.359 91.9986 209.971 92.4801 209.694 93.1151C209.421 93.75 209.285 94.5298 209.285 95.4545C209.285 96.3793 209.421 97.1591 209.694 97.794C209.971 98.429 210.359 98.9105 210.858 99.2386C211.356 99.5668 211.94 99.7308 212.609 99.7308C213.278 99.7308 213.862 99.5668 214.36 99.2386C214.859 98.9105 215.245 98.429 215.517 97.794C215.794 97.1591 215.933 96.3793 215.933 95.4545ZM227.034 97.8196V92.1818H229.757V102H227.143V100.217H227.041C226.819 100.792 226.45 101.254 225.935 101.604C225.423 101.953 224.799 102.128 224.062 102.128C223.406 102.128 222.828 101.979 222.33 101.68C221.831 101.382 221.441 100.958 221.16 100.408C220.883 99.8587 220.742 99.2003 220.738 98.4332V92.1818H223.461V97.9474C223.465 98.527 223.621 98.9851 223.928 99.3217C224.234 99.6584 224.646 99.8267 225.161 99.8267C225.489 99.8267 225.796 99.7521 226.082 99.603C226.367 99.4496 226.597 99.2237 226.772 98.9254C226.951 98.6271 227.038 98.2585 227.034 97.8196ZM237.158 92.1818V94.2273H231.245V92.1818H237.158ZM232.587 89.8295H235.31V98.983C235.31 99.2344 235.349 99.4304 235.425 99.571C235.502 99.7074 235.609 99.8033 235.745 99.8587C235.886 99.9141 236.047 99.9418 236.231 99.9418C236.359 99.9418 236.486 99.9311 236.614 99.9098C236.742 99.8842 236.84 99.8651 236.908 99.8523L237.337 101.879C237.2 101.921 237.008 101.97 236.761 102.026C236.514 102.085 236.214 102.121 235.86 102.134C235.204 102.16 234.628 102.072 234.134 101.872C233.644 101.672 233.263 101.361 232.99 100.939C232.717 100.517 232.583 99.9844 232.587 99.3409V89.8295ZM238.931 105.682V92.1818H241.616V93.831H241.737C241.857 93.5668 242.029 93.2983 242.255 93.0256C242.485 92.7486 242.784 92.5185 243.15 92.3352C243.521 92.1477 243.981 92.054 244.531 92.054C245.247 92.054 245.907 92.2415 246.512 92.6165C247.117 92.9872 247.601 93.5476 247.963 94.2976C248.326 95.0433 248.507 95.9787 248.507 97.1037C248.507 98.1989 248.33 99.1236 247.976 99.8778C247.627 100.628 247.149 101.197 246.544 101.585C245.943 101.968 245.27 102.16 244.524 102.16C243.996 102.16 243.546 102.072 243.176 101.898C242.809 101.723 242.509 101.504 242.274 101.239C242.04 100.971 241.861 100.7 241.737 100.428H241.654V105.682H238.931ZM241.597 97.0909C241.597 97.6747 241.678 98.1839 241.84 98.6186C242.002 99.0533 242.236 99.392 242.543 99.6349C242.85 99.8736 243.223 99.9929 243.661 99.9929C244.105 99.9929 244.48 99.8714 244.786 99.6286C245.093 99.3814 245.326 99.0405 245.483 98.6058C245.645 98.1669 245.726 97.6619 245.726 97.0909C245.726 96.5241 245.647 96.0256 245.49 95.5952C245.332 95.1648 245.1 94.8281 244.793 94.5852C244.486 94.3423 244.109 94.2209 243.661 94.2209C243.218 94.2209 242.843 94.3381 242.536 94.5724C242.234 94.8068 242.002 95.1392 241.84 95.5696C241.678 96 241.597 96.5071 241.597 97.0909ZM256.618 97.8196V92.1818H259.341V102H256.727V100.217H256.625C256.403 100.792 256.034 101.254 255.519 101.604C255.007 101.953 254.383 102.128 253.646 102.128C252.99 102.128 252.412 101.979 251.914 101.68C251.415 101.382 251.025 100.958 250.744 100.408C250.467 99.8587 250.326 99.2003 250.322 98.4332V92.1818H253.045V97.9474C253.049 98.527 253.205 98.9851 253.512 99.3217C253.818 99.6584 254.23 99.8267 254.745 99.8267C255.073 99.8267 255.38 99.7521 255.666 99.603C255.951 99.4496 256.181 99.2237 256.356 98.9254C256.535 98.6271 256.622 98.2585 256.618 97.8196ZM266.742 92.1818V94.2273H260.829V92.1818H266.742ZM262.171 89.8295H264.894V98.983C264.894 99.2344 264.933 99.4304 265.009 99.571C265.086 99.7074 265.193 99.8033 265.329 99.8587C265.47 99.9141 265.631 99.9418 265.815 99.9418C265.943 99.9418 266.07 99.9311 266.198 99.9098C266.326 99.8842 266.424 99.8651 266.492 99.8523L266.921 101.879C266.784 101.921 266.592 101.97 266.345 102.026C266.098 102.085 265.798 102.121 265.444 102.134C264.788 102.16 264.212 102.072 263.718 101.872C263.228 101.672 262.847 101.361 262.574 100.939C262.301 100.517 262.167 99.9844 262.171 99.3409V89.8295Z" fill="black"/>
</svg>
