<svg width="750" height="255" viewBox="0 0 750 255" fill="none" xmlns="http://www.w3.org/2000/svg">
<rect width="750" height="254.237" rx="23" fill="#F3DADA"/>
<rect x="52.4364" y="25.4237" width="204.979" height="204.979" rx="33" fill="#F9F0F0"/>
<path d="M204.623 63.5593H104.085C99.2383 63.5646 94.5919 65.4922 91.1649 68.9192C87.738 72.3461 85.8104 76.9925 85.8051 81.839V173.237C85.8104 178.084 87.738 182.73 91.1649 186.157C94.5919 189.584 99.2383 191.512 104.085 191.517H204.623C209.469 191.512 214.116 189.584 217.543 186.157C220.97 182.73 222.897 178.084 222.903 173.237V81.839C222.897 76.9925 220.97 72.3461 217.543 68.9192C214.116 65.4922 209.469 63.5646 204.623 63.5593V63.5593ZM108.655 127.538C107.708 127.538 106.784 127.244 106.012 126.697C105.24 126.149 104.656 125.375 104.343 124.482C104.029 123.588 104.001 122.62 104.262 121.709C104.522 120.799 105.059 119.993 105.798 119.401L124.19 104.689L105.798 89.9763C105.33 89.6012 104.939 89.1375 104.65 88.6115C104.36 88.0856 104.177 87.5077 104.11 86.911C104.044 86.3142 104.096 85.7102 104.263 85.1335C104.43 84.5568 104.709 84.0187 105.084 83.5498C105.459 83.081 105.923 82.6906 106.449 82.401C106.975 82.1114 107.553 81.9282 108.15 81.8619C108.747 81.7956 109.35 81.8474 109.927 82.0145C110.504 82.1817 111.042 82.4607 111.511 82.8358L134.36 101.115C134.896 101.544 135.329 102.087 135.626 102.705C135.923 103.323 136.078 104 136.078 104.686C136.078 105.372 135.923 106.049 135.626 106.667C135.329 107.285 134.896 107.828 134.36 108.256L111.511 126.536C110.7 127.185 109.693 127.538 108.655 127.538ZM154.354 127.538H136.074C134.862 127.538 133.7 127.057 132.843 126.2C131.986 125.343 131.504 124.18 131.504 122.968C131.504 121.756 131.986 120.594 132.843 119.737C133.7 118.88 134.862 118.398 136.074 118.398H154.354C155.566 118.398 156.728 118.88 157.585 119.737C158.442 120.594 158.924 121.756 158.924 122.968C158.924 124.18 158.442 125.343 157.585 126.2C156.728 127.057 155.566 127.538 154.354 127.538Z" fill="#0B6C69"/>
<path d="M103.673 216.267V198.085H110.846C112.225 198.085 113.4 198.349 114.371 198.875C115.341 199.396 116.081 200.121 116.59 201.05C117.105 201.974 117.363 203.039 117.363 204.246C117.363 205.454 117.102 206.519 116.581 207.442C116.061 208.366 115.306 209.085 114.318 209.6C113.335 210.115 112.145 210.372 110.749 210.372H106.177V207.291H110.127C110.867 207.291 111.477 207.164 111.956 206.91C112.441 206.649 112.802 206.291 113.039 205.836C113.282 205.374 113.403 204.844 113.403 204.246C113.403 203.643 113.282 203.116 113.039 202.666C112.802 202.21 112.441 201.858 111.956 201.61C111.471 201.355 110.855 201.228 110.109 201.228H107.517V216.267H103.673ZM119.789 216.267V202.631H123.455V205.01H123.597C123.846 204.164 124.263 203.524 124.849 203.092C125.435 202.654 126.11 202.435 126.873 202.435C127.062 202.435 127.267 202.447 127.486 202.471C127.705 202.494 127.897 202.527 128.063 202.568V205.924C127.885 205.871 127.64 205.824 127.326 205.782C127.012 205.741 126.725 205.72 126.465 205.72C125.908 205.72 125.411 205.841 124.973 206.084C124.541 206.321 124.198 206.652 123.943 207.078C123.695 207.505 123.57 207.996 123.57 208.552V216.267H119.789ZM135.544 216.533C134.165 216.533 132.973 216.24 131.967 215.654C130.966 215.063 130.194 214.24 129.65 213.186C129.105 212.127 128.833 210.899 128.833 209.502C128.833 208.093 129.105 206.862 129.65 205.809C130.194 204.749 130.966 203.927 131.967 203.341C132.973 202.749 134.165 202.453 135.544 202.453C136.924 202.453 138.113 202.749 139.113 203.341C140.12 203.927 140.895 204.749 141.439 205.809C141.984 206.862 142.256 208.093 142.256 209.502C142.256 210.899 141.984 212.127 141.439 213.186C140.895 214.24 140.12 215.063 139.113 215.654C138.113 216.24 136.924 216.533 135.544 216.533ZM135.562 213.604C136.19 213.604 136.713 213.426 137.134 213.071C137.554 212.71 137.87 212.219 138.084 211.597C138.303 210.976 138.412 210.269 138.412 209.475C138.412 208.682 138.303 207.975 138.084 207.354C137.87 206.732 137.554 206.241 137.134 205.88C136.713 205.519 136.19 205.338 135.562 205.338C134.929 205.338 134.396 205.519 133.964 205.88C133.538 206.241 133.216 206.732 132.997 207.354C132.783 207.975 132.677 208.682 132.677 209.475C132.677 210.269 132.783 210.976 132.997 211.597C133.216 212.219 133.538 212.71 133.964 213.071C134.396 213.426 134.929 213.604 135.562 213.604ZM150.859 221.665C149.634 221.665 148.583 221.496 147.707 221.159C146.837 220.827 146.145 220.374 145.63 219.8C145.115 219.226 144.78 218.581 144.627 217.865L148.124 217.394C148.231 217.667 148.4 217.921 148.63 218.158C148.861 218.395 149.166 218.584 149.545 218.726C149.93 218.874 150.397 218.948 150.948 218.948C151.77 218.948 152.448 218.747 152.981 218.344C153.519 217.948 153.788 217.282 153.788 216.347V213.852H153.629C153.463 214.231 153.214 214.589 152.883 214.926C152.551 215.264 152.125 215.539 151.604 215.752C151.084 215.965 150.462 216.072 149.74 216.072C148.716 216.072 147.784 215.835 146.944 215.361C146.109 214.882 145.443 214.151 144.946 213.169C144.455 212.18 144.209 210.931 144.209 209.422C144.209 207.877 144.461 206.587 144.964 205.551C145.467 204.516 146.136 203.74 146.97 203.225C147.811 202.711 148.731 202.453 149.731 202.453C150.495 202.453 151.134 202.583 151.649 202.844C152.164 203.098 152.578 203.418 152.892 203.802C153.211 204.181 153.457 204.554 153.629 204.921H153.771V202.631H157.526V216.4C157.526 217.56 157.242 218.531 156.674 219.312C156.106 220.093 155.318 220.679 154.312 221.07C153.312 221.466 152.161 221.665 150.859 221.665ZM150.939 213.231C151.548 213.231 152.063 213.08 152.483 212.778C152.91 212.47 153.235 212.032 153.46 211.464C153.691 210.89 153.806 210.203 153.806 209.404C153.806 208.605 153.694 207.913 153.469 207.327C153.244 206.735 152.918 206.276 152.492 205.951C152.066 205.625 151.548 205.463 150.939 205.463C150.317 205.463 149.793 205.631 149.367 205.969C148.941 206.3 148.619 206.762 148.4 207.354C148.181 207.945 148.071 208.629 148.071 209.404C148.071 210.192 148.181 210.872 148.4 211.446C148.625 212.014 148.947 212.455 149.367 212.769C149.793 213.077 150.317 213.231 150.939 213.231ZM160.536 216.267V202.631H164.202V205.01H164.344C164.593 204.164 165.01 203.524 165.596 203.092C166.182 202.654 166.857 202.435 167.62 202.435C167.81 202.435 168.014 202.447 168.233 202.471C168.452 202.494 168.644 202.527 168.81 202.568V205.924C168.632 205.871 168.387 205.824 168.073 205.782C167.759 205.741 167.472 205.72 167.212 205.72C166.655 205.72 166.158 205.841 165.72 206.084C165.288 206.321 164.945 206.652 164.69 207.078C164.442 207.505 164.318 207.996 164.318 208.552V216.267H160.536ZM174.263 216.524C173.393 216.524 172.618 216.374 171.937 216.072C171.256 215.764 170.718 215.311 170.321 214.713C169.931 214.11 169.735 213.358 169.735 212.458C169.735 211.701 169.874 211.065 170.153 210.55C170.431 210.035 170.809 209.62 171.289 209.307C171.768 208.993 172.313 208.756 172.922 208.597C173.538 208.437 174.183 208.324 174.858 208.259C175.651 208.176 176.29 208.099 176.775 208.028C177.261 207.951 177.613 207.839 177.832 207.691C178.051 207.543 178.16 207.324 178.16 207.034V206.981C178.16 206.418 177.983 205.983 177.628 205.676C177.278 205.368 176.781 205.214 176.136 205.214C175.456 205.214 174.914 205.365 174.512 205.667C174.109 205.963 173.843 206.336 173.713 206.785L170.215 206.501C170.392 205.673 170.741 204.957 171.262 204.353C171.783 203.743 172.455 203.276 173.278 202.95C174.106 202.619 175.065 202.453 176.154 202.453C176.912 202.453 177.637 202.542 178.329 202.719C179.027 202.897 179.646 203.172 180.184 203.545C180.729 203.918 181.158 204.397 181.472 204.983C181.785 205.563 181.942 206.259 181.942 207.07V216.267H178.356V214.376H178.249C178.03 214.802 177.737 215.178 177.37 215.503C177.003 215.823 176.562 216.075 176.047 216.258C175.533 216.436 174.938 216.524 174.263 216.524ZM175.346 213.914C175.902 213.914 176.394 213.805 176.82 213.586C177.246 213.361 177.58 213.059 177.823 212.68C178.066 212.302 178.187 211.872 178.187 211.393V209.946C178.069 210.023 177.906 210.094 177.699 210.159C177.497 210.218 177.27 210.274 177.015 210.328C176.761 210.375 176.506 210.419 176.252 210.461C175.997 210.496 175.766 210.529 175.559 210.559C175.115 210.624 174.728 210.727 174.396 210.869C174.065 211.011 173.807 211.204 173.624 211.446C173.44 211.683 173.349 211.979 173.349 212.334C173.349 212.849 173.535 213.243 173.908 213.515C174.287 213.781 174.766 213.914 175.346 213.914ZM184.876 216.267V202.631H188.481V205.036H188.641C188.925 204.237 189.398 203.607 190.061 203.146C190.724 202.684 191.517 202.453 192.44 202.453C193.375 202.453 194.172 202.687 194.828 203.154C195.485 203.616 195.923 204.243 196.142 205.036H196.284C196.563 204.255 197.066 203.631 197.794 203.163C198.528 202.69 199.395 202.453 200.395 202.453C201.667 202.453 202.7 202.858 203.493 203.669C204.292 204.474 204.692 205.617 204.692 207.096V216.267H200.919V207.842C200.919 207.084 200.717 206.516 200.315 206.137C199.913 205.759 199.409 205.569 198.806 205.569C198.119 205.569 197.584 205.788 197.199 206.226C196.814 206.658 196.622 207.229 196.622 207.94V216.267H192.955V207.762C192.955 207.093 192.763 206.561 192.378 206.164C191.999 205.767 191.499 205.569 190.878 205.569C190.458 205.569 190.079 205.676 189.741 205.889C189.41 206.096 189.147 206.389 188.951 206.768C188.756 207.141 188.658 207.579 188.658 208.082V216.267H184.876Z" fill="black"/>
<rect x="494.174" y="25.4237" width="204.979" height="204.979" rx="33" fill="#F9F0F0"/>
<path d="M581.469 197.818H585.313V209.626C585.313 210.951 584.996 212.112 584.363 213.106C583.736 214.1 582.857 214.875 581.726 215.432C580.596 215.982 579.279 216.257 577.776 216.257C576.267 216.257 574.947 215.982 573.816 215.432C572.686 214.875 571.807 214.1 571.18 213.106C570.552 212.112 570.238 210.951 570.238 209.626V197.818H574.083V209.297C574.083 209.99 574.233 210.605 574.535 211.144C574.843 211.682 575.275 212.106 575.832 212.413C576.388 212.721 577.036 212.875 577.776 212.875C578.521 212.875 579.17 212.721 579.72 212.413C580.276 212.106 580.705 211.682 581.007 211.144C581.315 210.605 581.469 209.99 581.469 209.297V197.818ZM599.751 206.252L596.288 206.465C596.229 206.169 596.102 205.903 595.907 205.666C595.711 205.424 595.454 205.231 595.134 205.089C594.82 204.941 594.445 204.867 594.007 204.867C593.421 204.867 592.927 204.991 592.524 205.24C592.122 205.483 591.92 205.808 591.92 206.217C591.92 206.542 592.051 206.817 592.311 207.042C592.571 207.267 593.018 207.448 593.652 207.584L596.12 208.081C597.445 208.353 598.434 208.791 599.085 209.395C599.736 209.999 600.061 210.792 600.061 211.774C600.061 212.668 599.798 213.452 599.271 214.127C598.75 214.801 598.034 215.328 597.123 215.707C596.217 216.08 595.173 216.266 593.989 216.266C592.184 216.266 590.746 215.891 589.674 215.139C588.609 214.381 587.985 213.351 587.801 212.049L591.521 211.854C591.633 212.404 591.906 212.825 592.338 213.115C592.77 213.399 593.323 213.541 593.998 213.541C594.661 213.541 595.193 213.414 595.596 213.159C596.004 212.899 596.211 212.564 596.217 212.156C596.211 211.813 596.066 211.531 595.782 211.312C595.498 211.088 595.06 210.916 594.468 210.798L592.107 210.327C590.775 210.061 589.784 209.599 589.133 208.942C588.488 208.285 588.165 207.448 588.165 206.43C588.165 205.554 588.402 204.799 588.875 204.166C589.355 203.533 590.026 203.044 590.891 202.701C591.761 202.358 592.779 202.186 593.945 202.186C595.667 202.186 597.022 202.55 598.011 203.278C599.005 204.006 599.585 204.997 599.751 206.252ZM608.657 216.266C607.255 216.266 606.047 215.982 605.035 215.414C604.029 214.84 603.254 214.029 602.709 212.982C602.165 211.928 601.892 210.682 601.892 209.244C601.892 207.841 602.165 206.61 602.709 205.551C603.254 204.491 604.02 203.666 605.009 203.074C606.003 202.482 607.169 202.186 608.506 202.186C609.406 202.186 610.243 202.331 611.019 202.621C611.8 202.905 612.481 203.334 613.061 203.908C613.647 204.482 614.102 205.205 614.428 206.075C614.753 206.939 614.916 207.951 614.916 209.111V210.15H603.402V207.806H611.356C611.356 207.261 611.238 206.779 611.001 206.359C610.764 205.938 610.436 205.61 610.016 205.373C609.601 205.131 609.119 205.009 608.569 205.009C607.994 205.009 607.485 205.142 607.042 205.409C606.604 205.669 606.26 206.021 606.012 206.465C605.763 206.903 605.636 207.391 605.63 207.93V210.158C605.63 210.833 605.754 211.416 606.003 211.907C606.257 212.399 606.615 212.777 607.077 213.044C607.539 213.31 608.086 213.443 608.719 213.443C609.14 213.443 609.524 213.384 609.874 213.266C610.223 213.147 610.522 212.97 610.77 212.733C611.019 212.496 611.208 212.206 611.338 211.863L614.836 212.094C614.659 212.934 614.295 213.668 613.744 214.295C613.2 214.917 612.496 215.402 611.631 215.751C610.773 216.095 609.782 216.266 608.657 216.266ZM617.384 216V202.364H621.051V204.743H621.193C621.441 203.897 621.859 203.257 622.445 202.825C623.031 202.387 623.705 202.168 624.469 202.168C624.658 202.168 624.862 202.18 625.081 202.204C625.3 202.228 625.493 202.26 625.658 202.301V205.657C625.481 205.604 625.235 205.557 624.922 205.515C624.608 205.474 624.321 205.453 624.06 205.453C623.504 205.453 623.007 205.574 622.569 205.817C622.137 206.054 621.794 206.385 621.539 206.811C621.29 207.238 621.166 207.729 621.166 208.285V216H617.384Z" fill="black"/>
<path d="M618.428 83.7353C613.627 78.9219 606.921 76.2712 599.519 76.2712C592.078 76.2712 585.35 78.9058 580.571 83.6894C575.74 88.5257 573.386 95.0986 573.939 102.196C575.034 116.199 586.509 127.59 599.519 127.59C612.529 127.59 623.984 116.201 625.097 102.201C625.657 95.1674 623.289 88.6082 618.428 83.7353V83.7353Z" fill="#0B6C69"/>
<path d="M642.943 178.908H556.096C554.959 178.922 553.833 178.7 552.8 178.259C551.768 177.818 550.854 177.169 550.125 176.358C548.521 174.578 547.875 172.147 548.354 169.689C550.436 158.963 556.935 149.952 567.149 143.627C576.223 138.011 587.718 134.921 599.519 134.921C611.32 134.921 622.815 138.014 631.889 143.627C642.104 149.95 648.602 158.96 650.685 169.687C651.163 172.145 650.517 174.576 648.913 176.356C648.185 177.167 647.271 177.816 646.238 178.258C645.205 178.699 644.08 178.922 642.943 178.908V178.908Z" fill="#0B6C69"/>
<path d="M257.415 131.975C256.587 131.975 255.915 132.646 255.915 133.475C255.915 134.303 256.587 134.975 257.415 134.975V131.975ZM494.174 133.475L479.174 124.814V142.135L494.174 133.475ZM257.415 134.975H480.674V131.975H257.415V134.975Z" fill="black"/>
<path d="M332.825 126.517V105.426H341.146C342.739 105.426 344.098 105.711 345.224 106.281C346.357 106.844 347.218 107.644 347.809 108.68C348.406 109.71 348.705 110.922 348.705 112.316C348.705 113.716 348.403 114.921 347.799 115.93C347.194 116.933 346.319 117.702 345.173 118.237C344.033 118.773 342.653 119.04 341.033 119.04H335.461V115.457H340.312C341.163 115.457 341.87 115.34 342.433 115.106C342.996 114.873 343.415 114.523 343.69 114.056C343.971 113.589 344.112 113.009 344.112 112.316C344.112 111.615 343.971 111.025 343.69 110.544C343.415 110.064 342.993 109.7 342.423 109.453C341.86 109.199 341.149 109.072 340.291 109.072H337.284V126.517H332.825ZM344.215 116.919L349.457 126.517H344.534L339.405 116.919H344.215ZM358.728 126.826C357.101 126.826 355.7 126.496 354.526 125.837C353.359 125.171 352.459 124.231 351.828 123.016C351.196 121.793 350.88 120.348 350.88 118.68C350.88 117.053 351.196 115.625 351.828 114.396C352.459 113.167 353.348 112.209 354.495 111.523C355.648 110.836 357.001 110.493 358.553 110.493C359.596 110.493 360.568 110.661 361.467 110.997C362.373 111.327 363.163 111.825 363.836 112.491C364.515 113.157 365.044 113.994 365.422 115.003C365.799 116.006 365.988 117.18 365.988 118.525V119.73H352.631V117.012H361.858C361.858 116.38 361.721 115.82 361.446 115.333C361.172 114.846 360.791 114.465 360.303 114.19C359.823 113.908 359.263 113.768 358.625 113.768C357.959 113.768 357.368 113.922 356.853 114.231C356.345 114.533 355.947 114.942 355.659 115.457C355.37 115.965 355.223 116.531 355.216 117.156V119.741C355.216 120.523 355.36 121.2 355.648 121.769C355.944 122.339 356.359 122.779 356.895 123.088C357.43 123.397 358.065 123.551 358.8 123.551C359.287 123.551 359.733 123.482 360.139 123.345C360.544 123.208 360.89 123.002 361.179 122.727C361.467 122.453 361.687 122.116 361.838 121.718L365.895 121.986C365.689 122.961 365.267 123.812 364.629 124.54C363.997 125.261 363.18 125.824 362.178 126.229C361.182 126.627 360.032 126.826 358.728 126.826ZM382.012 115.209L377.996 115.457C377.927 115.113 377.779 114.804 377.553 114.53C377.326 114.248 377.028 114.025 376.657 113.86C376.293 113.689 375.857 113.603 375.349 113.603C374.669 113.603 374.096 113.747 373.629 114.035C373.162 114.317 372.929 114.695 372.929 115.168C372.929 115.546 373.08 115.865 373.382 116.126C373.684 116.387 374.203 116.596 374.937 116.754L377.8 117.331C379.338 117.647 380.485 118.155 381.24 118.855C381.995 119.555 382.373 120.475 382.373 121.615C382.373 122.652 382.067 123.561 381.456 124.344C380.852 125.127 380.021 125.738 378.964 126.177C377.913 126.61 376.702 126.826 375.328 126.826C373.235 126.826 371.566 126.39 370.324 125.518C369.088 124.639 368.363 123.445 368.151 121.934L372.466 121.708C372.596 122.346 372.912 122.834 373.413 123.17C373.914 123.5 374.556 123.664 375.339 123.664C376.108 123.664 376.726 123.517 377.192 123.222C377.666 122.919 377.906 122.532 377.913 122.058C377.906 121.66 377.738 121.333 377.409 121.079C377.079 120.819 376.571 120.619 375.885 120.482L373.145 119.936C371.601 119.627 370.451 119.092 369.695 118.33C368.947 117.568 368.573 116.596 368.573 115.415C368.573 114.399 368.847 113.524 369.397 112.789C369.953 112.055 370.732 111.488 371.734 111.09C372.744 110.692 373.924 110.493 375.277 110.493C377.275 110.493 378.847 110.915 379.994 111.76C381.147 112.604 381.82 113.754 382.012 115.209ZM395.279 119.782V110.699H399.666V126.517H395.454V123.644H395.289C394.932 124.571 394.338 125.315 393.508 125.878C392.684 126.441 391.678 126.723 390.49 126.723C389.433 126.723 388.503 126.483 387.699 126.002C386.896 125.521 386.268 124.838 385.815 123.953C385.368 123.067 385.142 122.006 385.135 120.771V110.699H389.522V119.988C389.529 120.922 389.78 121.66 390.274 122.202C390.768 122.744 391.431 123.016 392.261 123.016C392.79 123.016 393.284 122.895 393.744 122.655C394.204 122.408 394.575 122.044 394.857 121.563C395.145 121.083 395.286 120.489 395.279 119.782ZM407.562 105.426V126.517H403.175V105.426H407.562ZM419.49 110.699V113.994H409.964V110.699H419.49ZM412.127 106.909H416.514V121.656C416.514 122.061 416.576 122.377 416.699 122.604C416.823 122.823 416.995 122.978 417.214 123.067C417.441 123.156 417.702 123.201 417.997 123.201C418.203 123.201 418.409 123.184 418.615 123.149C418.821 123.108 418.979 123.077 419.089 123.057L419.779 126.321C419.559 126.39 419.25 126.469 418.852 126.558C418.453 126.654 417.969 126.713 417.4 126.733C416.342 126.774 415.415 126.634 414.619 126.311C413.83 125.988 413.215 125.487 412.776 124.807C412.336 124.128 412.12 123.27 412.127 122.233V106.909ZM347.179 150.972C347.179 153.271 346.743 155.228 345.872 156.842C345.006 158.455 343.826 159.687 342.329 160.539C340.839 161.383 339.164 161.805 337.303 161.805C335.429 161.805 333.747 161.38 332.257 160.528C330.767 159.677 329.59 158.445 328.725 156.831C327.86 155.218 327.427 153.265 327.427 150.972C327.427 148.672 327.86 146.715 328.725 145.101C329.59 143.488 330.767 142.259 332.257 141.415C333.747 140.563 335.429 140.138 337.303 140.138C339.164 140.138 340.839 140.563 342.329 141.415C343.826 142.259 345.006 143.488 345.872 145.101C346.743 146.715 347.179 148.672 347.179 150.972ZM342.658 150.972C342.658 149.482 342.435 148.225 341.989 147.202C341.55 146.179 340.928 145.404 340.125 144.875C339.322 144.346 338.381 144.082 337.303 144.082C336.225 144.082 335.285 144.346 334.482 144.875C333.678 145.404 333.054 146.179 332.607 147.202C332.168 148.225 331.948 149.482 331.948 150.972C331.948 152.461 332.168 153.718 332.607 154.741C333.054 155.764 333.678 156.539 334.482 157.068C335.285 157.597 336.225 157.861 337.303 157.861C338.381 157.861 339.322 157.597 340.125 157.068C340.928 156.539 341.55 155.764 341.989 154.741C342.435 153.718 342.658 152.461 342.658 150.972ZM360.544 154.782V145.699H364.931V161.517H360.719V158.644H360.554C360.197 159.571 359.603 160.315 358.773 160.878C357.949 161.441 356.943 161.723 355.755 161.723C354.698 161.723 353.768 161.483 352.964 161.002C352.161 160.521 351.533 159.838 351.08 158.953C350.634 158.067 350.407 157.006 350.4 155.771V145.699H354.787V154.988C354.794 155.922 355.045 156.66 355.539 157.202C356.033 157.744 356.696 158.016 357.527 158.016C358.055 158.016 358.55 157.895 359.01 157.655C359.47 157.408 359.84 157.044 360.122 156.563C360.41 156.083 360.551 155.489 360.544 154.782ZM376.854 145.699V148.994H367.328V145.699H376.854ZM369.491 141.909H373.878V156.656C373.878 157.061 373.94 157.377 374.063 157.604C374.187 157.823 374.358 157.978 374.578 158.067C374.805 158.156 375.065 158.201 375.361 158.201C375.567 158.201 375.773 158.184 375.979 158.149C376.185 158.108 376.342 158.077 376.452 158.057L377.142 161.321C376.923 161.39 376.614 161.469 376.215 161.558C375.817 161.654 375.333 161.713 374.763 161.733C373.706 161.774 372.779 161.634 371.983 161.311C371.193 160.988 370.579 160.487 370.139 159.807C369.7 159.128 369.484 158.27 369.491 157.233V141.909ZM379.712 167.449V145.699H384.037V148.356H384.233C384.425 147.93 384.703 147.498 385.067 147.058C385.438 146.612 385.918 146.241 386.509 145.946C387.106 145.644 387.847 145.493 388.733 145.493C389.886 145.493 390.951 145.795 391.925 146.399C392.9 146.996 393.68 147.899 394.263 149.108C394.847 150.309 395.139 151.816 395.139 153.628C395.139 155.393 394.854 156.883 394.284 158.098C393.721 159.306 392.952 160.223 391.977 160.848C391.009 161.465 389.924 161.774 388.723 161.774C387.871 161.774 387.147 161.634 386.55 161.352C385.959 161.071 385.475 160.717 385.098 160.291C384.72 159.859 384.432 159.423 384.233 158.984H384.099V167.449H379.712ZM384.006 153.608C384.006 154.548 384.137 155.369 384.397 156.069C384.658 156.769 385.036 157.315 385.53 157.707C386.025 158.091 386.625 158.283 387.332 158.283C388.046 158.283 388.651 158.088 389.145 157.696C389.639 157.298 390.013 156.749 390.267 156.049C390.528 155.341 390.659 154.528 390.659 153.608C390.659 152.695 390.532 151.891 390.278 151.198C390.024 150.505 389.65 149.962 389.155 149.571C388.661 149.18 388.053 148.984 387.332 148.984C386.618 148.984 386.014 149.173 385.52 149.55C385.032 149.928 384.658 150.463 384.397 151.157C384.137 151.85 384.006 152.667 384.006 153.608ZM408.207 154.782V145.699H412.594V161.517H408.382V158.644H408.217C407.86 159.571 407.267 160.315 406.436 160.878C405.612 161.441 404.606 161.723 403.418 161.723C402.361 161.723 401.431 161.483 400.628 161.002C399.824 160.521 399.196 159.838 398.743 158.953C398.297 158.067 398.07 157.006 398.063 155.771V145.699H402.45V154.988C402.457 155.922 402.708 156.66 403.202 157.202C403.696 157.744 404.359 158.016 405.19 158.016C405.718 158.016 406.213 157.895 406.673 157.655C407.133 157.408 407.503 157.044 407.785 156.563C408.073 156.083 408.214 155.489 408.207 154.782ZM424.517 145.699V148.994H414.991V145.699H424.517ZM417.154 141.909H421.541V156.656C421.541 157.061 421.603 157.377 421.726 157.604C421.85 157.823 422.021 157.978 422.241 158.067C422.468 158.156 422.729 158.201 423.024 158.201C423.23 158.201 423.436 158.184 423.642 158.149C423.848 158.108 424.006 158.077 424.115 158.057L424.805 161.321C424.586 161.39 424.277 161.469 423.879 161.558C423.48 161.654 422.996 161.713 422.426 161.733C421.369 161.774 420.442 161.634 419.646 161.311C418.856 160.988 418.242 160.487 417.803 159.807C417.363 159.128 417.147 158.27 417.154 157.233V141.909Z" fill="black"/>
</svg>
