<svg width="472" height="160" viewBox="0 0 472 160" fill="none" xmlns="http://www.w3.org/2000/svg">
<rect width="472" height="160" rx="23" fill="#F3DADA"/>
<rect x="32" y="16" width="129" height="129" rx="33" fill="#F9F0F0"/>
<path d="M92.5431 118.909H95.3108V127.411C95.3108 128.365 95.0828 129.2 94.6269 129.916C94.1752 130.632 93.5423 131.19 92.7284 131.591C91.9145 131.987 90.9664 132.185 89.884 132.185C88.7973 132.185 87.847 131.987 87.0331 131.591C86.2192 131.19 85.5864 130.632 85.1347 129.916C84.683 129.2 84.4571 128.365 84.4571 127.411V118.909H87.2249V127.174C87.2249 127.673 87.3335 128.116 87.5509 128.504C87.7725 128.891 88.0835 129.196 88.4841 129.418C88.8847 129.639 89.3513 129.75 89.884 129.75C90.4209 129.75 90.8875 129.639 91.2838 129.418C91.6844 129.196 91.9933 128.891 92.2107 128.504C92.4323 128.116 92.5431 127.673 92.5431 127.174V118.909ZM105.706 124.982L103.213 125.135C103.17 124.922 103.079 124.73 102.938 124.56C102.797 124.385 102.612 124.246 102.382 124.144C102.156 124.038 101.886 123.984 101.57 123.984C101.148 123.984 100.793 124.074 100.503 124.253C100.213 124.428 100.068 124.662 100.068 124.956C100.068 125.19 100.162 125.388 100.349 125.55C100.537 125.712 100.859 125.842 101.315 125.94L103.092 126.298C104.046 126.494 104.758 126.81 105.226 127.244C105.695 127.679 105.93 128.25 105.93 128.957C105.93 129.601 105.74 130.165 105.361 130.651C104.986 131.137 104.47 131.516 103.814 131.789C103.162 132.058 102.41 132.192 101.557 132.192C100.258 132.192 99.2222 131.921 98.4509 131.38C97.6839 130.835 97.2343 130.093 97.1022 129.156L99.7805 129.015C99.8614 129.411 100.057 129.714 100.369 129.923C100.68 130.127 101.078 130.229 101.564 130.229C102.041 130.229 102.425 130.138 102.714 129.955C103.008 129.767 103.158 129.526 103.162 129.232C103.158 128.985 103.053 128.783 102.849 128.625C102.644 128.463 102.329 128.339 101.903 128.254L100.202 127.915C99.2435 127.724 98.5297 127.391 98.061 126.918C97.5965 126.445 97.3643 125.842 97.3643 125.109C97.3643 124.479 97.5347 123.935 97.8756 123.479C98.2208 123.023 98.7045 122.672 99.3266 122.425C99.953 122.178 100.686 122.054 101.525 122.054C102.766 122.054 103.741 122.316 104.453 122.84C105.169 123.364 105.587 124.078 105.706 124.982ZM112.119 132.192C111.109 132.192 110.239 131.987 109.511 131.578C108.786 131.165 108.228 130.581 107.836 129.827C107.444 129.068 107.248 128.171 107.248 127.136C107.248 126.126 107.444 125.239 107.836 124.477C108.228 123.714 108.78 123.119 109.492 122.693C110.207 122.267 111.047 122.054 112.01 122.054C112.658 122.054 113.261 122.158 113.819 122.367C114.381 122.572 114.872 122.881 115.289 123.294C115.711 123.707 116.039 124.227 116.274 124.854C116.508 125.476 116.625 126.205 116.625 127.04V127.788H108.335V126.1H114.062C114.062 125.708 113.977 125.361 113.806 125.058C113.636 124.756 113.399 124.519 113.097 124.349C112.798 124.174 112.451 124.087 112.055 124.087C111.641 124.087 111.275 124.183 110.955 124.374C110.64 124.562 110.393 124.815 110.214 125.135C110.035 125.45 109.943 125.802 109.939 126.19V127.794C109.939 128.28 110.028 128.7 110.207 129.053C110.391 129.407 110.649 129.68 110.981 129.871C111.313 130.063 111.707 130.159 112.163 130.159C112.466 130.159 112.743 130.116 112.994 130.031C113.246 129.946 113.461 129.818 113.64 129.648C113.819 129.477 113.955 129.268 114.049 129.021L116.568 129.188C116.44 129.793 116.178 130.321 115.781 130.773C115.389 131.22 114.882 131.57 114.26 131.821C113.642 132.068 112.928 132.192 112.119 132.192ZM118.402 132V122.182H121.042V123.895H121.144C121.323 123.286 121.624 122.825 122.046 122.514C122.467 122.199 122.953 122.041 123.503 122.041C123.639 122.041 123.786 122.05 123.944 122.067C124.102 122.084 124.24 122.107 124.359 122.137V124.553C124.232 124.515 124.055 124.481 123.829 124.451C123.603 124.421 123.396 124.406 123.209 124.406C122.808 124.406 122.45 124.494 122.135 124.668C121.824 124.839 121.577 125.077 121.394 125.384C121.215 125.691 121.125 126.045 121.125 126.445V132H118.402Z" fill="black"/>
<path d="M107.04 52.6974C104.235 49.6682 100.316 48 95.9904 48C91.6419 48 87.7101 49.6581 84.9173 52.6686C82.0942 55.7122 80.7188 59.8487 81.0417 64.3155C81.6819 73.1278 88.3877 80.2964 95.9904 80.2964C103.593 80.2964 110.287 73.1292 110.938 64.3183C111.265 59.892 109.881 55.7641 107.04 52.6974V52.6974Z" fill="#0B6C69"/>
<path d="M121.366 112.593H70.6146C69.9503 112.601 69.2924 112.462 68.6889 112.184C68.0853 111.907 67.5512 111.498 67.1254 110.988C66.1883 109.868 65.8105 108.338 66.0902 106.791C67.3071 100.04 71.1048 94.3699 77.0739 90.389C82.3768 86.8552 89.0942 84.9102 95.9903 84.9102C102.886 84.9102 109.604 86.8566 114.907 90.389C120.876 94.3684 124.674 100.039 125.89 106.79C126.17 108.337 125.792 109.866 124.855 110.987C124.43 111.497 123.896 111.906 123.292 112.184C122.688 112.462 122.03 112.601 121.366 112.593V112.593Z" fill="#0B6C69"/>
<path d="M161 82.5C160.172 82.5 159.5 83.1716 159.5 84C159.5 84.8284 160.172 85.5 161 85.5V82.5ZM310 84L295 75.3397V92.6603L310 84ZM161 85.5H296.5V82.5H161V85.5Z" fill="black"/>
<path d="M172.288 78.485C173.448 78.485 174.028 78.055 174.028 77.195C174.028 76.845 173.938 76.57 173.758 76.37C173.588 76.17 173.268 75.995 172.798 75.845L171.568 75.44C170.098 74.96 169.363 73.995 169.363 72.545C169.363 71.705 169.623 71.015 170.143 70.475C170.673 69.925 171.498 69.65 172.618 69.65C173.088 69.65 173.553 69.705 174.013 69.815C174.473 69.915 174.963 70.08 175.483 70.31L174.928 71.855C174.448 71.665 174.038 71.53 173.698 71.45C173.368 71.36 173.028 71.315 172.678 71.315C172.218 71.315 171.853 71.4 171.583 71.57C171.323 71.73 171.193 72.025 171.193 72.455C171.193 72.775 171.283 73.04 171.463 73.25C171.653 73.45 171.963 73.62 172.393 73.76L173.623 74.165C174.363 74.415 174.918 74.78 175.288 75.26C175.668 75.73 175.858 76.355 175.858 77.135C175.858 78.035 175.573 78.765 175.003 79.325C174.433 79.875 173.538 80.15 172.318 80.15C171.838 80.15 171.338 80.095 170.818 79.985C170.308 79.865 169.748 79.665 169.138 79.385L169.693 77.84C170.253 78.08 170.728 78.25 171.118 78.35C171.518 78.44 171.908 78.485 172.288 78.485ZM179.376 70.955H177.561V69.17H179.376V70.955ZM179.331 80H177.606V72.395H179.331V80ZM188.023 80.765C188.023 81.575 187.703 82.205 187.063 82.655C186.433 83.115 185.553 83.345 184.423 83.345C183.893 83.345 183.333 83.285 182.743 83.165C182.153 83.045 181.608 82.845 181.108 82.565L181.603 81.2C182.083 81.44 182.558 81.61 183.028 81.71C183.498 81.82 183.958 81.875 184.408 81.875C185.038 81.875 185.518 81.79 185.848 81.62C186.178 81.45 186.343 81.225 186.343 80.945C186.343 80.515 186.088 80.3 185.578 80.3H183.778C183.288 80.3 182.893 80.22 182.593 80.06C182.293 79.9 182.073 79.695 181.933 79.445C181.793 79.185 181.723 78.915 181.723 78.635C181.723 78.345 181.783 78.075 181.903 77.825C182.033 77.565 182.208 77.325 182.428 77.105C182.068 76.885 181.778 76.59 181.558 76.22C181.348 75.85 181.243 75.405 181.243 74.885C181.243 74.295 181.368 73.805 181.618 73.415C181.868 73.025 182.208 72.735 182.638 72.545C183.078 72.345 183.563 72.245 184.093 72.245H184.348C184.548 72.245 184.743 72.26 184.933 72.29C185.123 72.31 185.303 72.345 185.473 72.395H188.188V73.865L186.688 73.625C186.838 73.785 186.953 73.985 187.033 74.225C187.123 74.455 187.168 74.74 187.168 75.08C187.168 75.59 187.038 76.03 186.778 76.4C186.528 76.76 186.188 77.04 185.758 77.24C185.338 77.43 184.868 77.525 184.348 77.525H184.093C183.893 77.525 183.703 77.51 183.523 77.48C183.413 77.6 183.333 77.725 183.283 77.855C183.233 77.975 183.208 78.09 183.208 78.2C183.208 78.55 183.433 78.725 183.883 78.725H185.713C186.403 78.725 186.958 78.905 187.378 79.265C187.808 79.615 188.023 80.115 188.023 80.765ZM184.348 76.115C184.658 76.115 184.928 76.01 185.158 75.8C185.398 75.59 185.518 75.285 185.518 74.885C185.518 74.485 185.398 74.18 185.158 73.97C184.928 73.76 184.658 73.655 184.348 73.655H184.093C183.773 73.655 183.493 73.76 183.253 73.97C183.023 74.18 182.908 74.485 182.908 74.885C182.908 75.285 183.023 75.59 183.253 75.8C183.493 76.01 183.773 76.115 184.093 76.115H184.348ZM193.397 73.85C193.147 73.85 192.862 73.91 192.542 74.03C192.222 74.15 191.842 74.385 191.402 74.735V80H189.677V72.395H191.312V73.415C191.782 73.005 192.227 72.71 192.647 72.53C193.067 72.34 193.492 72.245 193.922 72.245C194.652 72.245 195.207 72.48 195.587 72.95C195.967 73.41 196.157 74.06 196.157 74.9V80H194.432V75.11C194.432 74.27 194.087 73.85 193.397 73.85ZM204.196 80.075C203.686 80.075 203.276 79.97 202.966 79.76C202.666 79.55 202.446 79.29 202.306 78.98C201.876 79.38 201.461 79.675 201.061 79.865C200.661 80.055 200.231 80.15 199.771 80.15C199.101 80.15 198.606 79.935 198.286 79.505C197.976 79.075 197.821 78.53 197.821 77.87C197.821 77.43 197.901 77.045 198.061 76.715C198.231 76.375 198.506 76.11 198.886 75.92C199.266 75.73 199.786 75.635 200.446 75.635C200.706 75.635 200.976 75.655 201.256 75.695C201.536 75.725 201.816 75.765 202.096 75.815V74.93C202.096 74.51 201.981 74.225 201.751 74.075C201.521 73.915 201.211 73.835 200.821 73.835C200.521 73.835 200.191 73.875 199.831 73.955C199.481 74.035 199.101 74.16 198.691 74.33L198.196 72.86C199.206 72.45 200.121 72.245 200.941 72.245C201.681 72.245 202.251 72.37 202.651 72.62C203.061 72.87 203.346 73.2 203.506 73.61C203.666 74.02 203.746 74.46 203.746 74.93V77.855C203.746 78.005 203.786 78.15 203.866 78.29C203.956 78.42 204.126 78.485 204.376 78.485H204.541V80.075H204.196ZM199.486 77.84C199.486 78.11 199.546 78.325 199.666 78.485C199.786 78.635 199.961 78.71 200.191 78.71C200.421 78.71 200.681 78.65 200.971 78.53C201.261 78.41 201.636 78.13 202.096 77.69V77.045C201.576 76.955 201.066 76.91 200.566 76.91C200.176 76.91 199.896 76.99 199.726 77.15C199.566 77.31 199.486 77.54 199.486 77.84ZM205.994 77.855V68.9H207.719V77.855C207.719 78.005 207.754 78.15 207.824 78.29C207.904 78.42 208.054 78.485 208.274 78.485H208.514V80.075H208.094C207.524 80.075 207.089 79.965 206.789 79.745C206.489 79.525 206.279 79.245 206.159 78.905C206.049 78.565 205.994 78.215 205.994 77.855ZM213.275 68.9H215.045L210.185 82.145H208.415L213.275 68.9ZM218.113 71.75V72.395H222.718V80H220.993V73.895H218.113V80H216.388V73.895H215.158V72.395H216.388V71.75C216.388 71.16 216.493 70.64 216.703 70.19C216.913 69.74 217.248 69.39 217.708 69.14C218.178 68.88 218.788 68.75 219.538 68.75C219.948 68.75 220.388 68.8 220.858 68.9C221.328 68.99 221.818 69.16 222.328 69.41L221.698 70.82C221.248 70.65 220.853 70.535 220.513 70.475C220.173 70.405 219.863 70.37 219.583 70.37C219.123 70.37 218.763 70.47 218.503 70.67C218.243 70.86 218.113 71.22 218.113 71.75ZM225.037 77.855V68.9H226.762V77.855C226.762 78.005 226.797 78.15 226.867 78.29C226.947 78.42 227.097 78.485 227.317 78.485H227.557V80.075H227.137C226.567 80.075 226.132 79.965 225.832 79.745C225.532 79.525 225.322 79.245 225.202 78.905C225.092 78.565 225.037 78.215 225.037 77.855ZM235.002 79.565C234.482 79.775 233.992 79.925 233.532 80.015C233.072 80.105 232.637 80.15 232.227 80.15C231.097 80.15 230.242 79.83 229.662 79.19C229.082 78.55 228.792 77.7 228.792 76.64V75.74C228.792 75.03 228.922 74.415 229.182 73.895C229.442 73.375 229.812 72.97 230.292 72.68C230.772 72.39 231.337 72.245 231.987 72.245C232.517 72.245 233.012 72.355 233.472 72.575C233.942 72.785 234.322 73.12 234.612 73.58C234.912 74.03 235.062 74.61 235.062 75.32C235.062 75.53 235.047 75.755 235.017 75.995C234.987 76.225 234.937 76.47 234.867 76.73H230.457C230.477 77.35 230.632 77.815 230.922 78.125C231.212 78.435 231.677 78.59 232.317 78.59C232.657 78.59 233.007 78.55 233.367 78.47C233.737 78.39 234.117 78.27 234.507 78.11L235.002 79.565ZM231.987 73.7C231.527 73.7 231.167 73.85 230.907 74.15C230.657 74.44 230.512 74.86 230.472 75.41H233.352C233.362 75.36 233.367 75.315 233.367 75.275C233.367 75.225 233.367 75.18 233.367 75.14C233.367 74.66 233.232 74.3 232.962 74.06C232.692 73.82 232.367 73.7 231.987 73.7ZM239.18 78.65C239.55 78.65 239.855 78.59 240.095 78.47C240.335 78.34 240.455 78.15 240.455 77.9C240.455 77.68 240.375 77.51 240.215 77.39C240.065 77.26 239.79 77.145 239.39 77.045L238.535 76.82C237.875 76.65 237.385 76.365 237.065 75.965C236.755 75.565 236.6 75.09 236.6 74.54C236.6 73.89 236.825 73.345 237.275 72.905C237.725 72.465 238.42 72.245 239.36 72.245C239.74 72.245 240.14 72.29 240.56 72.38C240.98 72.47 241.42 72.615 241.88 72.815L241.385 74.285C240.965 74.085 240.585 73.945 240.245 73.865C239.905 73.785 239.605 73.745 239.345 73.745C238.635 73.745 238.28 73.985 238.28 74.465C238.28 74.655 238.34 74.805 238.46 74.915C238.59 75.025 238.825 75.125 239.165 75.215L240.02 75.44C240.75 75.63 241.28 75.92 241.61 76.31C241.95 76.7 242.12 77.19 242.12 77.78C242.12 78.48 241.88 79.05 241.4 79.49C240.93 79.93 240.185 80.15 239.165 80.15C238.295 80.15 237.38 79.95 236.42 79.55L236.885 78.125C237.355 78.315 237.78 78.45 238.16 78.53C238.54 78.61 238.88 78.65 239.18 78.65ZM246.981 68.9H248.751L243.891 82.145H242.121L246.981 68.9ZM251.564 70.955H249.749V69.17H251.564V70.955ZM251.519 80H249.794V72.395H251.519V80ZM257.615 73.85C257.365 73.85 257.08 73.91 256.76 74.03C256.44 74.15 256.06 74.385 255.62 74.735V80H253.895V72.395H255.53V73.415C256 73.005 256.445 72.71 256.865 72.53C257.285 72.34 257.71 72.245 258.14 72.245C258.87 72.245 259.425 72.48 259.805 72.95C260.185 73.41 260.375 74.06 260.375 74.9V80H258.65V75.11C258.65 74.27 258.305 73.85 257.615 73.85ZM265.91 80.15C265.66 80.15 265.405 80.125 265.145 80.075C264.895 80.025 264.64 79.955 264.38 79.865V83.195H262.655V72.395H264.29V73.43C264.76 72.96 265.16 72.645 265.49 72.485C265.82 72.325 266.165 72.245 266.525 72.245C267.355 72.245 267.995 72.555 268.445 73.175C268.895 73.795 269.12 74.665 269.12 75.785V76.595C269.12 77.685 268.845 78.55 268.295 79.19C267.745 79.83 266.95 80.15 265.91 80.15ZM266.06 73.85C265.83 73.85 265.585 73.92 265.325 74.06C265.075 74.19 264.76 74.445 264.38 74.825V78.305C264.87 78.505 265.32 78.605 265.73 78.605C266.31 78.605 266.725 78.425 266.975 78.065C267.225 77.705 267.35 77.215 267.35 76.595V75.785C267.35 75.115 267.235 74.625 267.005 74.315C266.785 74.005 266.47 73.85 266.06 73.85ZM275.652 80V78.995C275.192 79.395 274.762 79.69 274.362 79.88C273.962 80.06 273.557 80.15 273.147 80.15C272.467 80.15 271.942 79.92 271.572 79.46C271.202 78.99 271.017 78.335 271.017 77.495V72.395H272.742V77.285C272.742 78.125 273.052 78.545 273.672 78.545C273.922 78.545 274.192 78.485 274.482 78.365C274.782 78.245 275.142 78.015 275.562 77.675V72.395H277.287V80H275.652ZM284.237 79.745C283.977 79.865 283.677 79.96 283.337 80.03C282.997 80.11 282.652 80.15 282.302 80.15C281.722 80.15 281.257 80.03 280.907 79.79C280.557 79.55 280.302 79.215 280.142 78.785C279.992 78.355 279.917 77.865 279.917 77.315V73.895H278.687V72.395H279.917V70.415H281.642V72.395H284.012V73.895H281.642V77.315C281.642 77.775 281.727 78.095 281.897 78.275C282.077 78.445 282.332 78.53 282.662 78.53C282.822 78.53 282.992 78.515 283.172 78.485C283.362 78.445 283.572 78.38 283.802 78.29L284.237 79.745ZM288.714 68.9H290.484L285.624 82.145H283.854L288.714 68.9ZM195.516 93.755V94.64C195.516 95.28 195.631 95.76 195.861 96.08C196.091 96.4 196.461 96.56 196.971 96.56C197.221 96.56 197.501 96.53 197.811 96.47C198.131 96.4 198.476 96.295 198.846 96.155L199.341 97.61C198.891 97.79 198.466 97.925 198.066 98.015C197.666 98.105 197.271 98.15 196.881 98.15C195.881 98.15 195.116 97.83 194.586 97.19C194.056 96.55 193.791 95.7 193.791 94.64V93.755C193.791 92.685 194.056 91.835 194.586 91.205C195.116 90.565 195.881 90.245 196.881 90.245C197.261 90.245 197.646 90.29 198.036 90.38C198.426 90.47 198.836 90.6 199.266 90.77L198.771 92.255C198.051 91.975 197.451 91.835 196.971 91.835C196.461 91.835 196.091 91.995 195.861 92.315C195.631 92.625 195.516 93.105 195.516 93.755ZM207.144 93.74V94.64C207.144 95.7 206.854 96.55 206.274 97.19C205.694 97.83 204.874 98.15 203.814 98.15C202.754 98.15 201.934 97.83 201.354 97.19C200.774 96.55 200.484 95.7 200.484 94.64V93.74C200.484 92.68 200.769 91.835 201.339 91.205C201.919 90.565 202.744 90.245 203.814 90.245C204.884 90.245 205.704 90.565 206.274 91.205C206.854 91.835 207.144 92.68 207.144 93.74ZM205.374 93.74C205.374 93.13 205.239 92.655 204.969 92.315C204.699 91.965 204.314 91.79 203.814 91.79C203.314 91.79 202.929 91.965 202.659 92.315C202.389 92.655 202.254 93.13 202.254 93.74V94.64C202.254 95.25 202.389 95.73 202.659 96.08C202.929 96.43 203.314 96.605 203.814 96.605C204.314 96.605 204.699 96.43 204.969 96.08C205.239 95.73 205.374 95.25 205.374 94.64V93.74ZM210.804 92.735V98H209.079V90.395H210.714V91.4C211.184 90.99 211.619 90.695 212.019 90.515C212.419 90.335 212.829 90.245 213.249 90.245C214.179 90.245 214.814 90.655 215.154 91.475C215.654 91.035 216.119 90.72 216.549 90.53C216.979 90.34 217.414 90.245 217.854 90.245C218.554 90.245 219.089 90.48 219.459 90.95C219.829 91.41 220.014 92.06 220.014 92.9V98H218.289V93.11C218.289 92.27 217.969 91.85 217.329 91.85C217.079 91.85 216.804 91.91 216.504 92.03C216.204 92.15 215.839 92.385 215.409 92.735V98H213.684V93.11C213.684 92.27 213.364 91.85 212.724 91.85C212.474 91.85 212.199 91.91 211.899 92.03C211.599 92.15 211.234 92.385 210.804 92.735ZM224.016 92.735V98H222.291V90.395H223.926V91.4C224.396 90.99 224.831 90.695 225.231 90.515C225.631 90.335 226.041 90.245 226.461 90.245C227.391 90.245 228.026 90.655 228.366 91.475C228.866 91.035 229.331 90.72 229.761 90.53C230.191 90.34 230.626 90.245 231.066 90.245C231.766 90.245 232.301 90.48 232.671 90.95C233.041 91.41 233.226 92.06 233.226 92.9V98H231.501V93.11C231.501 92.27 231.181 91.85 230.541 91.85C230.291 91.85 230.016 91.91 229.716 92.03C229.416 92.15 229.051 92.385 228.621 92.735V98H226.896V93.11C226.896 92.27 226.576 91.85 225.936 91.85C225.686 91.85 225.411 91.91 225.111 92.03C224.811 92.15 224.446 92.385 224.016 92.735ZM241.264 98.075C240.754 98.075 240.344 97.97 240.034 97.76C239.734 97.55 239.514 97.29 239.374 96.98C238.944 97.38 238.529 97.675 238.129 97.865C237.729 98.055 237.299 98.15 236.839 98.15C236.169 98.15 235.674 97.935 235.354 97.505C235.044 97.075 234.889 96.53 234.889 95.87C234.889 95.43 234.969 95.045 235.129 94.715C235.299 94.375 235.574 94.11 235.954 93.92C236.334 93.73 236.854 93.635 237.514 93.635C237.774 93.635 238.044 93.655 238.324 93.695C238.604 93.725 238.884 93.765 239.164 93.815V92.93C239.164 92.51 239.049 92.225 238.819 92.075C238.589 91.915 238.279 91.835 237.889 91.835C237.589 91.835 237.259 91.875 236.899 91.955C236.549 92.035 236.169 92.16 235.759 92.33L235.264 90.86C236.274 90.45 237.189 90.245 238.009 90.245C238.749 90.245 239.319 90.37 239.719 90.62C240.129 90.87 240.414 91.2 240.574 91.61C240.734 92.02 240.814 92.46 240.814 92.93V95.855C240.814 96.005 240.854 96.15 240.934 96.29C241.024 96.42 241.194 96.485 241.444 96.485H241.609V98.075H241.264ZM236.554 95.84C236.554 96.11 236.614 96.325 236.734 96.485C236.854 96.635 237.029 96.71 237.259 96.71C237.489 96.71 237.749 96.65 238.039 96.53C238.329 96.41 238.704 96.13 239.164 95.69V95.045C238.644 94.955 238.134 94.91 237.634 94.91C237.244 94.91 236.964 94.99 236.794 95.15C236.634 95.31 236.554 95.54 236.554 95.84ZM246.827 91.85C246.577 91.85 246.292 91.91 245.972 92.03C245.652 92.15 245.272 92.385 244.832 92.735V98H243.107V90.395H244.742V91.415C245.212 91.005 245.657 90.71 246.077 90.53C246.497 90.34 246.922 90.245 247.352 90.245C248.082 90.245 248.637 90.48 249.017 90.95C249.397 91.41 249.587 92.06 249.587 92.9V98H247.862V93.11C247.862 92.27 247.517 91.85 246.827 91.85ZM256.322 98V96.965C255.862 97.425 255.462 97.74 255.122 97.91C254.792 98.07 254.447 98.15 254.087 98.15C253.267 98.15 252.627 97.84 252.167 97.22C251.717 96.6 251.492 95.73 251.492 94.61V93.8C251.492 92.71 251.767 91.845 252.317 91.205C252.867 90.565 253.662 90.245 254.702 90.245C254.962 90.245 255.217 90.27 255.467 90.32C255.727 90.37 255.982 90.44 256.232 90.53V86.9H257.957V98H256.322ZM253.262 94.61C253.262 95.28 253.372 95.77 253.592 96.08C253.822 96.39 254.142 96.545 254.552 96.545C254.782 96.545 255.027 96.48 255.287 96.35C255.547 96.21 255.862 95.95 256.232 95.57V92.09C255.742 91.89 255.292 91.79 254.882 91.79C254.302 91.79 253.887 91.97 253.637 92.33C253.387 92.69 253.262 93.18 253.262 93.8V94.61ZM262.463 96.65C262.833 96.65 263.138 96.59 263.378 96.47C263.618 96.34 263.738 96.15 263.738 95.9C263.738 95.68 263.658 95.51 263.498 95.39C263.348 95.26 263.073 95.145 262.673 95.045L261.818 94.82C261.158 94.65 260.668 94.365 260.348 93.965C260.038 93.565 259.883 93.09 259.883 92.54C259.883 91.89 260.108 91.345 260.558 90.905C261.008 90.465 261.703 90.245 262.643 90.245C263.023 90.245 263.423 90.29 263.843 90.38C264.263 90.47 264.703 90.615 265.163 90.815L264.668 92.285C264.248 92.085 263.868 91.945 263.528 91.865C263.188 91.785 262.888 91.745 262.628 91.745C261.918 91.745 261.563 91.985 261.563 92.465C261.563 92.655 261.623 92.805 261.743 92.915C261.873 93.025 262.108 93.125 262.448 93.215L263.303 93.44C264.033 93.63 264.563 93.92 264.893 94.31C265.233 94.7 265.403 95.19 265.403 95.78C265.403 96.48 265.163 97.05 264.683 97.49C264.213 97.93 263.468 98.15 262.448 98.15C261.578 98.15 260.663 97.95 259.703 97.55L260.168 96.125C260.638 96.315 261.063 96.45 261.443 96.53C261.823 96.61 262.163 96.65 262.463 96.65Z" fill="black"/>
<rect x="310" y="16" width="129" height="129" rx="33" fill="#F9F0F0"/>
<path d="M405.776 40H342.504C339.454 40.0033 336.53 41.2164 334.373 43.3731C332.216 45.5298 331.003 48.454 331 51.504V109.024C331.003 112.074 332.216 114.998 334.373 117.155C336.53 119.312 339.454 120.525 342.504 120.528H405.776C408.826 120.525 411.75 119.312 413.907 117.155C416.064 114.998 417.277 112.074 417.28 109.024V51.504C417.277 48.454 416.064 45.5298 413.907 43.3731C411.75 41.2164 408.826 40.0033 405.776 40V40ZM345.38 80.264C344.784 80.264 344.203 80.0789 343.717 79.7344C343.231 79.3898 342.864 78.9027 342.666 78.3405C342.469 77.7783 342.451 77.1686 342.615 76.5958C342.779 76.023 343.117 75.5153 343.582 75.1429L355.157 65.884L343.582 56.6251C343.287 56.389 343.042 56.0972 342.859 55.7662C342.677 55.4352 342.562 55.0715 342.52 54.696C342.478 54.3204 342.511 53.9403 342.616 53.5774C342.721 53.2144 342.897 52.8758 343.133 52.5807C343.369 52.2856 343.661 52.04 343.992 51.8577C344.323 51.6754 344.687 51.5601 345.062 51.5184C345.438 51.4767 345.818 51.5093 346.181 51.6145C346.544 51.7197 346.882 51.8953 347.177 52.1313L361.557 63.6353C361.895 63.9047 362.167 64.2466 362.354 64.6356C362.541 65.0245 362.638 65.4506 362.638 65.8822C362.638 66.3138 362.541 66.7399 362.354 67.1288C362.167 67.5178 361.895 67.8597 361.557 68.1291L347.177 79.6331C346.667 80.0415 346.033 80.264 345.38 80.264ZM374.14 80.264H362.636C361.873 80.264 361.142 79.961 360.602 79.4216C360.063 78.8823 359.76 78.1508 359.76 77.388C359.76 76.6252 360.063 75.8937 360.602 75.3544C361.142 74.815 361.873 74.512 362.636 74.512H374.14C374.903 74.512 375.634 74.815 376.174 75.3544C376.713 75.8937 377.016 76.6252 377.016 77.388C377.016 78.1508 376.713 78.8823 376.174 79.4216C375.634 79.961 374.903 80.264 374.14 80.264Z" fill="#0B6C69"/>
<path d="M337.67 139V125.909H342.835C343.828 125.909 344.674 126.099 345.372 126.478C346.071 126.853 346.604 127.375 346.97 128.044C347.341 128.709 347.527 129.476 347.527 130.345C347.527 131.214 347.339 131.982 346.964 132.646C346.589 133.311 346.046 133.829 345.334 134.2C344.627 134.57 343.77 134.756 342.764 134.756H339.473V132.538H342.317C342.85 132.538 343.289 132.446 343.634 132.263C343.983 132.075 344.243 131.817 344.414 131.489C344.588 131.157 344.676 130.776 344.676 130.345C344.676 129.911 344.588 129.531 344.414 129.207C344.243 128.879 343.983 128.626 343.634 128.447C343.284 128.263 342.841 128.172 342.304 128.172H340.438V139H337.67ZM349.273 139V129.182H351.913V130.895H352.015C352.194 130.286 352.495 129.825 352.917 129.514C353.339 129.199 353.824 129.041 354.374 129.041C354.51 129.041 354.657 129.05 354.815 129.067C354.973 129.084 355.111 129.107 355.231 129.137V131.553C355.103 131.515 354.926 131.481 354.7 131.451C354.474 131.421 354.267 131.406 354.08 131.406C353.679 131.406 353.321 131.494 353.006 131.668C352.695 131.839 352.448 132.077 352.265 132.384C352.086 132.691 351.996 133.045 351.996 133.445V139H349.273ZM360.617 139.192C359.625 139.192 358.766 138.981 358.041 138.559C357.321 138.133 356.765 137.54 356.373 136.782C355.981 136.019 355.785 135.135 355.785 134.129C355.785 133.115 355.981 132.229 356.373 131.47C356.765 130.707 357.321 130.115 358.041 129.693C358.766 129.267 359.625 129.054 360.617 129.054C361.61 129.054 362.467 129.267 363.187 129.693C363.911 130.115 364.47 130.707 364.862 131.47C365.254 132.229 365.45 133.115 365.45 134.129C365.45 135.135 365.254 136.019 364.862 136.782C364.47 137.54 363.911 138.133 363.187 138.559C362.467 138.981 361.61 139.192 360.617 139.192ZM360.63 137.082C361.082 137.082 361.459 136.955 361.762 136.699C362.064 136.439 362.292 136.085 362.446 135.638C362.603 135.19 362.682 134.681 362.682 134.11C362.682 133.539 362.603 133.03 362.446 132.582C362.292 132.135 362.064 131.781 361.762 131.521C361.459 131.261 361.082 131.131 360.63 131.131C360.174 131.131 359.791 131.261 359.48 131.521C359.173 131.781 358.941 132.135 358.783 132.582C358.63 133.03 358.553 133.539 358.553 134.11C358.553 134.681 358.63 135.19 358.783 135.638C358.941 136.085 359.173 136.439 359.48 136.699C359.791 136.955 360.174 137.082 360.63 137.082ZM371.644 142.886C370.762 142.886 370.005 142.765 369.375 142.522C368.748 142.283 368.25 141.957 367.879 141.544C367.508 141.131 367.267 140.666 367.157 140.151L369.675 139.812C369.752 140.008 369.873 140.191 370.039 140.362C370.206 140.532 370.425 140.668 370.698 140.771C370.975 140.877 371.311 140.93 371.708 140.93C372.3 140.93 372.788 140.786 373.171 140.496C373.559 140.21 373.753 139.731 373.753 139.058V137.261H373.638C373.519 137.534 373.34 137.792 373.101 138.035C372.862 138.278 372.556 138.476 372.181 138.629C371.806 138.783 371.358 138.859 370.838 138.859C370.101 138.859 369.43 138.689 368.825 138.348C368.224 138.003 367.745 137.477 367.387 136.769C367.033 136.058 366.856 135.158 366.856 134.072C366.856 132.96 367.037 132.031 367.399 131.285C367.762 130.539 368.243 129.981 368.844 129.61C369.449 129.239 370.112 129.054 370.832 129.054C371.382 129.054 371.842 129.148 372.213 129.335C372.583 129.518 372.882 129.749 373.108 130.026C373.338 130.298 373.514 130.567 373.638 130.831H373.74V129.182H376.444V139.096C376.444 139.931 376.24 140.63 375.831 141.192C375.421 141.755 374.855 142.177 374.13 142.458C373.41 142.744 372.581 142.886 371.644 142.886ZM371.701 136.814C372.14 136.814 372.511 136.705 372.813 136.488C373.12 136.266 373.355 135.951 373.517 135.542C373.683 135.129 373.766 134.634 373.766 134.059C373.766 133.484 373.685 132.985 373.523 132.563C373.361 132.137 373.127 131.807 372.82 131.572C372.513 131.338 372.14 131.221 371.701 131.221C371.254 131.221 370.877 131.342 370.57 131.585C370.263 131.824 370.031 132.156 369.873 132.582C369.715 133.009 369.637 133.501 369.637 134.059C369.637 134.626 369.715 135.116 369.873 135.529C370.035 135.938 370.267 136.256 370.57 136.482C370.877 136.703 371.254 136.814 371.701 136.814ZM378.611 139V129.182H381.251V130.895H381.353C381.532 130.286 381.833 129.825 382.255 129.514C382.676 129.199 383.162 129.041 383.712 129.041C383.848 129.041 383.995 129.05 384.153 129.067C384.311 129.084 384.449 129.107 384.568 129.137V131.553C384.441 131.515 384.264 131.481 384.038 131.451C383.812 131.421 383.605 131.406 383.418 131.406C383.017 131.406 382.659 131.494 382.344 131.668C382.033 131.839 381.786 132.077 381.603 132.384C381.424 132.691 381.334 133.045 381.334 133.445V139H378.611ZM388.495 139.185C387.868 139.185 387.31 139.077 386.82 138.859C386.33 138.638 385.942 138.312 385.657 137.881C385.375 137.447 385.235 136.906 385.235 136.258C385.235 135.712 385.335 135.254 385.535 134.884C385.736 134.513 386.008 134.214 386.353 133.989C386.699 133.763 387.091 133.592 387.53 133.477C387.973 133.362 388.437 133.281 388.923 133.234C389.494 133.175 389.954 133.119 390.304 133.068C390.653 133.013 390.907 132.932 391.064 132.825C391.222 132.719 391.301 132.561 391.301 132.352V132.314C391.301 131.909 391.173 131.596 390.917 131.374C390.666 131.153 390.308 131.042 389.843 131.042C389.353 131.042 388.964 131.151 388.674 131.368C388.384 131.581 388.192 131.849 388.098 132.173L385.58 131.969C385.708 131.372 385.959 130.857 386.334 130.422C386.709 129.983 387.193 129.646 387.785 129.412C388.382 129.173 389.072 129.054 389.856 129.054C390.402 129.054 390.924 129.118 391.422 129.246C391.925 129.374 392.37 129.572 392.758 129.84C393.15 130.109 393.459 130.454 393.685 130.876C393.911 131.293 394.024 131.794 394.024 132.378V139H391.441V137.638H391.365C391.207 137.945 390.996 138.216 390.732 138.45C390.468 138.68 390.15 138.862 389.78 138.994C389.409 139.121 388.981 139.185 388.495 139.185ZM389.275 137.306C389.675 137.306 390.029 137.227 390.336 137.07C390.642 136.908 390.883 136.69 391.058 136.418C391.233 136.145 391.32 135.836 391.32 135.491V134.449C391.235 134.504 391.118 134.555 390.968 134.602C390.824 134.645 390.66 134.685 390.476 134.724C390.293 134.758 390.11 134.79 389.927 134.82C389.743 134.845 389.577 134.869 389.428 134.89C389.108 134.937 388.829 135.011 388.591 135.114C388.352 135.216 388.167 135.354 388.035 135.529C387.902 135.7 387.836 135.913 387.836 136.168C387.836 136.539 387.971 136.822 388.239 137.018C388.512 137.21 388.857 137.306 389.275 137.306ZM396.136 139V129.182H398.732V130.914H398.847C399.051 130.339 399.392 129.885 399.869 129.553C400.347 129.22 400.918 129.054 401.582 129.054C402.256 129.054 402.829 129.222 403.302 129.559C403.775 129.891 404.09 130.343 404.248 130.914H404.35C404.551 130.352 404.913 129.902 405.437 129.565C405.965 129.224 406.59 129.054 407.31 129.054C408.226 129.054 408.97 129.346 409.541 129.93C410.116 130.509 410.403 131.332 410.403 132.397V139H407.687V132.934C407.687 132.388 407.542 131.979 407.252 131.707C406.962 131.434 406.6 131.298 406.166 131.298C405.671 131.298 405.286 131.455 405.009 131.771C404.732 132.082 404.593 132.493 404.593 133.004V139H401.953V132.876C401.953 132.395 401.815 132.011 401.538 131.726C401.265 131.44 400.905 131.298 400.457 131.298C400.155 131.298 399.882 131.374 399.639 131.528C399.401 131.677 399.211 131.888 399.07 132.161C398.93 132.429 398.859 132.744 398.859 133.107V139H396.136Z" fill="black"/>
</svg>
