<svg width="750" height="255" viewBox="0 0 750 255" fill="none" xmlns="http://www.w3.org/2000/svg">
<rect width="750" height="254.237" rx="23" fill="#F3DADA"/>
<rect x="50.8475" y="25.4237" width="204.979" height="204.979" rx="33" fill="#F9F0F0"/>
<path d="M137.469 185.818H141.313V197.626C141.313 198.951 140.996 200.112 140.363 201.106C139.736 202.1 138.857 202.875 137.726 203.432C136.596 203.982 135.279 204.257 133.776 204.257C132.267 204.257 130.947 203.982 129.816 203.432C128.686 202.875 127.807 202.1 127.18 201.106C126.552 200.112 126.238 198.951 126.238 197.626V185.818H130.083V197.297C130.083 197.99 130.233 198.605 130.535 199.144C130.843 199.682 131.275 200.106 131.832 200.413C132.388 200.721 133.036 200.875 133.776 200.875C134.521 200.875 135.17 200.721 135.72 200.413C136.276 200.106 136.705 199.682 137.007 199.144C137.315 198.605 137.469 197.99 137.469 197.297V185.818ZM155.751 194.252L152.288 194.465C152.229 194.169 152.102 193.903 151.907 193.666C151.711 193.424 151.454 193.231 151.134 193.089C150.82 192.941 150.445 192.867 150.007 192.867C149.421 192.867 148.927 192.991 148.524 193.24C148.122 193.483 147.92 193.808 147.92 194.217C147.92 194.542 148.051 194.817 148.311 195.042C148.571 195.267 149.018 195.448 149.652 195.584L152.12 196.081C153.445 196.353 154.434 196.791 155.085 197.395C155.736 197.999 156.061 198.792 156.061 199.774C156.061 200.668 155.798 201.452 155.271 202.127C154.75 202.801 154.034 203.328 153.123 203.707C152.217 204.08 151.173 204.266 149.989 204.266C148.184 204.266 146.746 203.891 145.674 203.139C144.609 202.381 143.985 201.351 143.801 200.049L147.521 199.854C147.633 200.404 147.906 200.825 148.338 201.115C148.77 201.399 149.323 201.541 149.998 201.541C150.661 201.541 151.193 201.414 151.596 201.159C152.004 200.899 152.211 200.564 152.217 200.156C152.211 199.813 152.066 199.531 151.782 199.312C151.498 199.088 151.06 198.916 150.468 198.798L148.107 198.327C146.775 198.061 145.784 197.599 145.133 196.942C144.488 196.285 144.165 195.448 144.165 194.43C144.165 193.554 144.402 192.799 144.875 192.166C145.355 191.533 146.026 191.044 146.891 190.701C147.761 190.358 148.779 190.186 149.945 190.186C151.667 190.186 153.022 190.55 154.011 191.278C155.005 192.006 155.585 192.997 155.751 194.252ZM164.657 204.266C163.255 204.266 162.047 203.982 161.035 203.414C160.029 202.84 159.254 202.029 158.709 200.982C158.165 199.928 157.892 198.682 157.892 197.244C157.892 195.841 158.165 194.61 158.709 193.551C159.254 192.491 160.02 191.666 161.009 191.074C162.003 190.482 163.169 190.186 164.506 190.186C165.406 190.186 166.243 190.331 167.019 190.621C167.8 190.905 168.481 191.334 169.061 191.908C169.647 192.482 170.102 193.205 170.428 194.075C170.753 194.939 170.916 195.951 170.916 197.111V198.15H159.402V195.806H167.356C167.356 195.261 167.238 194.779 167.001 194.359C166.764 193.938 166.436 193.61 166.016 193.373C165.601 193.131 165.119 193.009 164.569 193.009C163.994 193.009 163.485 193.142 163.042 193.409C162.604 193.669 162.26 194.021 162.012 194.465C161.763 194.903 161.636 195.391 161.63 195.93V198.158C161.63 198.833 161.754 199.416 162.003 199.907C162.257 200.399 162.615 200.777 163.077 201.044C163.539 201.31 164.086 201.443 164.719 201.443C165.14 201.443 165.524 201.384 165.874 201.266C166.223 201.147 166.522 200.97 166.77 200.733C167.019 200.496 167.208 200.206 167.338 199.863L170.836 200.094C170.659 200.934 170.295 201.668 169.744 202.295C169.2 202.917 168.496 203.402 167.631 203.751C166.773 204.095 165.782 204.266 164.657 204.266ZM173.384 204V190.364H177.051V192.743H177.193C177.441 191.897 177.859 191.257 178.445 190.825C179.031 190.387 179.705 190.168 180.469 190.168C180.658 190.168 180.862 190.18 181.081 190.204C181.3 190.228 181.493 190.26 181.658 190.301V193.657C181.481 193.604 181.235 193.557 180.922 193.515C180.608 193.474 180.321 193.453 180.06 193.453C179.504 193.453 179.007 193.574 178.569 193.817C178.137 194.054 177.794 194.385 177.539 194.811C177.29 195.238 177.166 195.729 177.166 196.285V204H173.384Z" fill="black"/>
<path d="M175.102 83.7353C170.301 78.9219 163.595 76.2712 156.193 76.2712C148.752 76.2712 142.024 78.9058 137.245 83.6894C132.414 88.5257 130.06 95.0986 130.613 102.196C131.708 116.199 143.183 127.59 156.193 127.59C169.203 127.59 180.658 116.201 181.771 102.201C182.331 95.1674 179.962 88.6082 175.102 83.7353V83.7353Z" fill="#0B6C69"/>
<path d="M199.616 178.908H112.769C111.633 178.922 110.507 178.7 109.474 178.259C108.441 177.818 107.527 177.169 106.799 176.358C105.195 174.578 104.549 172.147 105.027 169.689C107.11 158.963 113.608 149.952 123.823 143.627C132.897 138.011 144.392 134.921 156.193 134.921C167.994 134.921 179.489 138.014 188.563 143.627C198.777 149.95 205.276 158.96 207.358 169.687C207.837 172.145 207.191 174.576 205.587 176.356C204.859 177.167 203.945 177.816 202.912 178.258C201.879 178.699 200.753 178.922 199.616 178.908V178.908Z" fill="#0B6C69"/>
<path d="M255.826 131.975C254.998 131.975 254.326 132.646 254.326 133.475C254.326 134.303 254.998 134.975 255.826 134.975V131.975ZM492.585 133.475L477.585 124.814V142.135L492.585 133.475ZM255.826 134.975H479.085V131.975H255.826V134.975Z" fill="black"/>
<path d="M276.946 123.961C278.725 123.961 279.614 123.302 279.614 121.983C279.614 121.446 279.476 121.025 279.2 120.718C278.939 120.411 278.449 120.143 277.728 119.913L275.842 119.292C273.588 118.556 272.461 117.076 272.461 114.853C272.461 113.565 272.86 112.507 273.657 111.679C274.47 110.836 275.735 110.414 277.452 110.414C278.173 110.414 278.886 110.498 279.591 110.667C280.296 110.82 281.048 111.073 281.845 111.426L280.994 113.795C280.258 113.504 279.629 113.297 279.108 113.174C278.602 113.036 278.081 112.967 277.544 112.967C276.839 112.967 276.279 113.097 275.865 113.358C275.466 113.603 275.267 114.056 275.267 114.715C275.267 115.206 275.405 115.612 275.681 115.934C275.972 116.241 276.448 116.501 277.107 116.716L278.993 117.337C280.128 117.72 280.979 118.28 281.546 119.016C282.129 119.737 282.42 120.695 282.42 121.891C282.42 123.271 281.983 124.39 281.109 125.249C280.235 126.092 278.863 126.514 276.992 126.514C276.256 126.514 275.489 126.43 274.692 126.261C273.91 126.077 273.051 125.77 272.116 125.341L272.967 122.972C273.826 123.34 274.554 123.601 275.152 123.754C275.765 123.892 276.363 123.961 276.946 123.961ZM287.815 112.415H285.032V109.678H287.815V112.415ZM287.746 126.284H285.101V114.623H287.746V126.284ZM301.073 127.457C301.073 128.699 300.583 129.665 299.601 130.355C298.635 131.06 297.286 131.413 295.553 131.413C294.741 131.413 293.882 131.321 292.977 131.137C292.073 130.953 291.237 130.646 290.47 130.217L291.229 128.124C291.965 128.492 292.694 128.753 293.414 128.906C294.135 129.075 294.84 129.159 295.53 129.159C296.496 129.159 297.232 129.029 297.738 128.768C298.244 128.507 298.497 128.162 298.497 127.733C298.497 127.074 298.106 126.744 297.324 126.744H294.564C293.813 126.744 293.207 126.621 292.747 126.376C292.287 126.131 291.95 125.816 291.735 125.433C291.521 125.034 291.413 124.62 291.413 124.191C291.413 123.746 291.505 123.332 291.689 122.949C291.889 122.55 292.157 122.182 292.494 121.845C291.942 121.508 291.498 121.055 291.16 120.488C290.838 119.921 290.677 119.238 290.677 118.441C290.677 117.536 290.869 116.785 291.252 116.187C291.636 115.589 292.157 115.144 292.816 114.853C293.491 114.546 294.235 114.393 295.047 114.393H295.438C295.745 114.393 296.044 114.416 296.335 114.462C296.627 114.493 296.903 114.546 297.163 114.623H301.326V116.877L299.026 116.509C299.256 116.754 299.433 117.061 299.555 117.429C299.693 117.782 299.762 118.219 299.762 118.74C299.762 119.522 299.563 120.197 299.164 120.764C298.781 121.316 298.26 121.745 297.6 122.052C296.956 122.343 296.236 122.489 295.438 122.489H295.047C294.741 122.489 294.449 122.466 294.173 122.42C294.005 122.604 293.882 122.796 293.805 122.995C293.729 123.179 293.69 123.355 293.69 123.524C293.69 124.061 294.035 124.329 294.725 124.329H297.531C298.589 124.329 299.44 124.605 300.084 125.157C300.744 125.694 301.073 126.46 301.073 127.457ZM295.438 120.327C295.914 120.327 296.328 120.166 296.68 119.844C297.048 119.522 297.232 119.054 297.232 118.441C297.232 117.828 297.048 117.36 296.68 117.038C296.328 116.716 295.914 116.555 295.438 116.555H295.047C294.557 116.555 294.127 116.716 293.759 117.038C293.407 117.36 293.23 117.828 293.23 118.441C293.23 119.054 293.407 119.522 293.759 119.844C294.127 120.166 294.557 120.327 295.047 120.327H295.438ZM309.313 116.854C308.93 116.854 308.493 116.946 308.002 117.13C307.512 117.314 306.929 117.674 306.254 118.211V126.284H303.609V114.623H306.116V116.187C306.837 115.558 307.519 115.106 308.163 114.83C308.807 114.539 309.459 114.393 310.118 114.393C311.238 114.393 312.089 114.753 312.671 115.474C313.254 116.179 313.545 117.176 313.545 118.464V126.284H310.9V118.786C310.9 117.498 310.371 116.854 309.313 116.854ZM325.873 126.399C325.091 126.399 324.462 126.238 323.987 125.916C323.527 125.594 323.19 125.195 322.975 124.72C322.316 125.333 321.679 125.786 321.066 126.077C320.453 126.368 319.793 126.514 319.088 126.514C318.061 126.514 317.302 126.184 316.811 125.525C316.336 124.866 316.098 124.03 316.098 123.018C316.098 122.343 316.221 121.753 316.466 121.247C316.727 120.726 317.148 120.319 317.731 120.028C318.314 119.737 319.111 119.591 320.123 119.591C320.522 119.591 320.936 119.622 321.365 119.683C321.794 119.729 322.224 119.79 322.653 119.867V118.51C322.653 117.866 322.477 117.429 322.124 117.199C321.771 116.954 321.296 116.831 320.698 116.831C320.238 116.831 319.732 116.892 319.18 117.015C318.643 117.138 318.061 117.329 317.432 117.59L316.673 115.336C318.222 114.707 319.625 114.393 320.882 114.393C322.017 114.393 322.891 114.585 323.504 114.968C324.133 115.351 324.57 115.857 324.815 116.486C325.06 117.115 325.183 117.789 325.183 118.51V122.995C325.183 123.225 325.244 123.447 325.367 123.662C325.505 123.861 325.766 123.961 326.149 123.961H326.402V126.399H325.873ZM318.651 122.972C318.651 123.386 318.743 123.716 318.927 123.961C319.111 124.191 319.379 124.306 319.732 124.306C320.085 124.306 320.483 124.214 320.928 124.03C321.373 123.846 321.948 123.417 322.653 122.742V121.753C321.856 121.615 321.074 121.546 320.307 121.546C319.709 121.546 319.28 121.669 319.019 121.914C318.774 122.159 318.651 122.512 318.651 122.972ZM328.629 122.995V109.264H331.274V122.995C331.274 123.225 331.328 123.447 331.435 123.662C331.558 123.861 331.788 123.961 332.125 123.961H332.493V126.399H331.849C330.975 126.399 330.308 126.23 329.848 125.893C329.388 125.556 329.066 125.126 328.882 124.605C328.713 124.084 328.629 123.547 328.629 122.995ZM339.793 109.264H342.507L335.055 129.573H332.341L339.793 109.264ZM347.211 113.634V114.623H354.272V126.284H351.627V116.923H347.211V126.284H344.566V116.923H342.68V114.623H344.566V113.634C344.566 112.729 344.727 111.932 345.049 111.242C345.371 110.552 345.885 110.015 346.59 109.632C347.311 109.233 348.246 109.034 349.396 109.034C350.025 109.034 350.7 109.111 351.42 109.264C352.141 109.402 352.892 109.663 353.674 110.046L352.708 112.208C352.018 111.947 351.413 111.771 350.891 111.679C350.37 111.572 349.895 111.518 349.465 111.518C348.76 111.518 348.208 111.671 347.809 111.978C347.411 112.269 347.211 112.821 347.211 113.634ZM357.828 122.995V109.264H360.473V122.995C360.473 123.225 360.527 123.447 360.634 123.662C360.757 123.861 360.987 123.961 361.324 123.961H361.692V126.399H361.048C360.174 126.399 359.507 126.23 359.047 125.893C358.587 125.556 358.265 125.126 358.081 124.605C357.913 124.084 357.828 123.547 357.828 122.995ZM373.109 125.617C372.311 125.939 371.56 126.169 370.855 126.307C370.149 126.445 369.482 126.514 368.854 126.514C367.121 126.514 365.81 126.023 364.921 125.042C364.031 124.061 363.587 122.757 363.587 121.132V119.752C363.587 118.663 363.786 117.72 364.185 116.923C364.583 116.126 365.151 115.505 365.887 115.06C366.623 114.615 367.489 114.393 368.486 114.393C369.298 114.393 370.057 114.562 370.763 114.899C371.483 115.221 372.066 115.735 372.511 116.44C372.971 117.13 373.201 118.019 373.201 119.108C373.201 119.43 373.178 119.775 373.132 120.143C373.086 120.496 373.009 120.871 372.902 121.27H366.14C366.17 122.221 366.408 122.934 366.853 123.409C367.297 123.884 368.01 124.122 368.992 124.122C369.513 124.122 370.05 124.061 370.602 123.938C371.169 123.815 371.752 123.631 372.35 123.386L373.109 125.617ZM368.486 116.624C367.78 116.624 367.228 116.854 366.83 117.314C366.446 117.759 366.224 118.403 366.163 119.246H370.579C370.594 119.169 370.602 119.1 370.602 119.039C370.602 118.962 370.602 118.893 370.602 118.832C370.602 118.096 370.395 117.544 369.981 117.176C369.567 116.808 369.068 116.624 368.486 116.624ZM379.514 124.214C380.081 124.214 380.549 124.122 380.917 123.938C381.285 123.739 381.469 123.447 381.469 123.064C381.469 122.727 381.346 122.466 381.101 122.282C380.871 122.083 380.449 121.906 379.836 121.753L378.525 121.408C377.513 121.147 376.762 120.71 376.271 120.097C375.796 119.484 375.558 118.755 375.558 117.912C375.558 116.915 375.903 116.08 376.593 115.405C377.283 114.73 378.349 114.393 379.79 114.393C380.373 114.393 380.986 114.462 381.63 114.6C382.274 114.738 382.949 114.96 383.654 115.267L382.895 117.521C382.251 117.214 381.668 117 381.147 116.877C380.626 116.754 380.166 116.693 379.767 116.693C378.678 116.693 378.134 117.061 378.134 117.797C378.134 118.088 378.226 118.318 378.41 118.487C378.609 118.656 378.97 118.809 379.491 118.947L380.802 119.292C381.921 119.583 382.734 120.028 383.24 120.626C383.761 121.224 384.022 121.975 384.022 122.88C384.022 123.953 383.654 124.827 382.918 125.502C382.197 126.177 381.055 126.514 379.491 126.514C378.157 126.514 376.754 126.207 375.282 125.594L375.995 123.409C376.716 123.7 377.367 123.907 377.95 124.03C378.533 124.153 379.054 124.214 379.514 124.214ZM391.475 109.264H394.189L386.737 129.573H384.023L391.475 109.264ZM398.503 112.415H395.72V109.678H398.503V112.415ZM398.434 126.284H395.789V114.623H398.434V126.284ZM407.782 116.854C407.399 116.854 406.962 116.946 406.471 117.13C405.98 117.314 405.398 117.674 404.723 118.211V126.284H402.078V114.623H404.585V116.187C405.306 115.558 405.988 115.106 406.632 114.83C407.276 114.539 407.928 114.393 408.587 114.393C409.706 114.393 410.557 114.753 411.14 115.474C411.723 116.179 412.014 117.176 412.014 118.464V126.284H409.369V118.786C409.369 117.498 408.84 116.854 407.782 116.854ZM420.501 126.514C420.117 126.514 419.726 126.476 419.328 126.399C418.944 126.322 418.553 126.215 418.155 126.077V131.183H415.51V114.623H418.017V116.21C418.737 115.489 419.351 115.006 419.857 114.761C420.363 114.516 420.892 114.393 421.444 114.393C422.716 114.393 423.698 114.868 424.388 115.819C425.078 116.77 425.423 118.104 425.423 119.821V121.063C425.423 122.734 425.001 124.061 424.158 125.042C423.314 126.023 422.095 126.514 420.501 126.514ZM420.731 116.854C420.378 116.854 420.002 116.961 419.604 117.176C419.22 117.375 418.737 117.766 418.155 118.349V123.685C418.906 123.992 419.596 124.145 420.225 124.145C421.114 124.145 421.75 123.869 422.134 123.317C422.517 122.765 422.709 122.014 422.709 121.063V119.821C422.709 118.794 422.532 118.042 422.18 117.567C421.842 117.092 421.359 116.854 420.731 116.854ZM435.438 126.284V124.743C434.733 125.356 434.073 125.809 433.46 126.1C432.847 126.376 432.226 126.514 431.597 126.514C430.554 126.514 429.749 126.161 429.182 125.456C428.615 124.735 428.331 123.731 428.331 122.443V114.623H430.976V122.121C430.976 123.409 431.451 124.053 432.402 124.053C432.785 124.053 433.199 123.961 433.644 123.777C434.104 123.593 434.656 123.24 435.3 122.719V114.623H437.945V126.284H435.438ZM448.602 125.893C448.203 126.077 447.743 126.223 447.222 126.33C446.7 126.453 446.171 126.514 445.635 126.514C444.745 126.514 444.032 126.33 443.496 125.962C442.959 125.594 442.568 125.08 442.323 124.421C442.093 123.762 441.978 123.01 441.978 122.167V116.923H440.092V114.623H441.978V111.587H444.623V114.623H448.257V116.923H444.623V122.167C444.623 122.872 444.753 123.363 445.014 123.639C445.29 123.9 445.681 124.03 446.187 124.03C446.432 124.03 446.693 124.007 446.969 123.961C447.26 123.9 447.582 123.8 447.935 123.662L448.602 125.893ZM455.466 109.264H458.18L450.728 129.573H448.014L455.466 109.264ZM312.562 147.775V149.132C312.562 150.113 312.739 150.849 313.091 151.34C313.444 151.831 314.011 152.076 314.793 152.076C315.177 152.076 315.606 152.03 316.081 151.938C316.572 151.831 317.101 151.67 317.668 151.455L318.427 153.686C317.737 153.962 317.086 154.169 316.472 154.307C315.859 154.445 315.253 154.514 314.655 154.514C313.122 154.514 311.949 154.023 311.136 153.042C310.324 152.061 309.917 150.757 309.917 149.132V147.775C309.917 146.134 310.324 144.831 311.136 143.865C311.949 142.884 313.122 142.393 314.655 142.393C315.238 142.393 315.828 142.462 316.426 142.6C317.024 142.738 317.653 142.937 318.312 143.198L317.553 145.475C316.449 145.046 315.529 144.831 314.793 144.831C314.011 144.831 313.444 145.076 313.091 145.567C312.739 146.042 312.562 146.778 312.562 147.775ZM330.393 147.752V149.132C330.393 150.757 329.948 152.061 329.059 153.042C328.17 154.023 326.912 154.514 325.287 154.514C323.662 154.514 322.404 154.023 321.515 153.042C320.626 152.061 320.181 150.757 320.181 149.132V147.752C320.181 146.127 320.618 144.831 321.492 143.865C322.381 142.884 323.646 142.393 325.287 142.393C326.928 142.393 328.185 142.884 329.059 143.865C329.948 144.831 330.393 146.127 330.393 147.752ZM327.679 147.752C327.679 146.817 327.472 146.088 327.058 145.567C326.644 145.03 326.054 144.762 325.287 144.762C324.52 144.762 323.93 145.03 323.516 145.567C323.102 146.088 322.895 146.817 322.895 147.752V149.132C322.895 150.067 323.102 150.803 323.516 151.34C323.93 151.877 324.52 152.145 325.287 152.145C326.054 152.145 326.644 151.877 327.058 151.34C327.472 150.803 327.679 150.067 327.679 149.132V147.752ZM336.004 146.211V154.284H333.359V142.623H335.866V144.164C336.586 143.535 337.253 143.083 337.867 142.807C338.48 142.531 339.109 142.393 339.753 142.393C341.179 142.393 342.152 143.022 342.674 144.279C343.44 143.604 344.153 143.121 344.813 142.83C345.472 142.539 346.139 142.393 346.814 142.393C347.887 142.393 348.707 142.753 349.275 143.474C349.842 144.179 350.126 145.176 350.126 146.464V154.284H347.481V146.786C347.481 145.498 346.99 144.854 346.009 144.854C345.625 144.854 345.204 144.946 344.744 145.13C344.284 145.314 343.724 145.674 343.065 146.211V154.284H340.42V146.786C340.42 145.498 339.929 144.854 338.948 144.854C338.564 144.854 338.143 144.946 337.683 145.13C337.223 145.314 336.663 145.674 336.004 146.211ZM356.264 146.211V154.284H353.619V142.623H356.126V144.164C356.846 143.535 357.513 143.083 358.127 142.807C358.74 142.531 359.369 142.393 360.013 142.393C361.439 142.393 362.412 143.022 362.934 144.279C363.7 143.604 364.413 143.121 365.073 142.83C365.732 142.539 366.399 142.393 367.074 142.393C368.147 142.393 368.967 142.753 369.535 143.474C370.102 144.179 370.386 145.176 370.386 146.464V154.284H367.741V146.786C367.741 145.498 367.25 144.854 366.269 144.854C365.885 144.854 365.464 144.946 365.004 145.13C364.544 145.314 363.984 145.674 363.325 146.211V154.284H360.68V146.786C360.68 145.498 360.189 144.854 359.208 144.854C358.824 144.854 358.403 144.946 357.943 145.13C357.483 145.314 356.923 145.674 356.264 146.211ZM382.71 154.399C381.928 154.399 381.3 154.238 380.824 153.916C380.364 153.594 380.027 153.195 379.812 152.72C379.153 153.333 378.517 153.786 377.903 154.077C377.29 154.368 376.631 154.514 375.925 154.514C374.898 154.514 374.139 154.184 373.648 153.525C373.173 152.866 372.935 152.03 372.935 151.018C372.935 150.343 373.058 149.753 373.303 149.247C373.564 148.726 373.986 148.319 374.568 148.028C375.151 147.737 375.948 147.591 376.96 147.591C377.359 147.591 377.773 147.622 378.202 147.683C378.632 147.729 379.061 147.79 379.49 147.867V146.51C379.49 145.866 379.314 145.429 378.961 145.199C378.609 144.954 378.133 144.831 377.535 144.831C377.075 144.831 376.569 144.892 376.017 145.015C375.481 145.138 374.898 145.329 374.269 145.59L373.51 143.336C375.059 142.707 376.462 142.393 377.719 142.393C378.854 142.393 379.728 142.585 380.341 142.968C380.97 143.351 381.407 143.857 381.652 144.486C381.898 145.115 382.02 145.789 382.02 146.51V150.995C382.02 151.225 382.082 151.447 382.204 151.662C382.342 151.861 382.603 151.961 382.986 151.961H383.239V154.399H382.71ZM375.488 150.972C375.488 151.386 375.58 151.716 375.764 151.961C375.948 152.191 376.217 152.306 376.569 152.306C376.922 152.306 377.321 152.214 377.765 152.03C378.21 151.846 378.785 151.417 379.49 150.742V149.753C378.693 149.615 377.911 149.546 377.144 149.546C376.546 149.546 376.117 149.669 375.856 149.914C375.611 150.159 375.488 150.512 375.488 150.972ZM391.239 144.854C390.856 144.854 390.419 144.946 389.928 145.13C389.438 145.314 388.855 145.674 388.18 146.211V154.284H385.535V142.623H388.042V144.187C388.763 143.558 389.445 143.106 390.089 142.83C390.733 142.539 391.385 142.393 392.044 142.393C393.164 142.393 394.015 142.753 394.597 143.474C395.18 144.179 395.471 145.176 395.471 146.464V154.284H392.826V146.786C392.826 145.498 392.297 144.854 391.239 144.854ZM405.798 154.284V152.697C405.093 153.402 404.479 153.885 403.958 154.146C403.452 154.391 402.923 154.514 402.371 154.514C401.114 154.514 400.132 154.039 399.427 153.088C398.737 152.137 398.392 150.803 398.392 149.086V147.844C398.392 146.173 398.814 144.846 399.657 143.865C400.5 142.884 401.719 142.393 403.314 142.393C403.713 142.393 404.104 142.431 404.487 142.508C404.886 142.585 405.277 142.692 405.66 142.83V137.264H408.305V154.284H405.798ZM401.106 149.086C401.106 150.113 401.275 150.865 401.612 151.34C401.965 151.815 402.455 152.053 403.084 152.053C403.437 152.053 403.812 151.953 404.211 151.754C404.61 151.539 405.093 151.141 405.66 150.558V145.222C404.909 144.915 404.219 144.762 403.59 144.762C402.701 144.762 402.064 145.038 401.681 145.59C401.298 146.142 401.106 146.893 401.106 147.844V149.086ZM415.216 152.214C415.783 152.214 416.251 152.122 416.619 151.938C416.987 151.739 417.171 151.447 417.171 151.064C417.171 150.727 417.048 150.466 416.803 150.282C416.573 150.083 416.151 149.906 415.538 149.753L414.227 149.408C413.215 149.147 412.463 148.71 411.973 148.097C411.497 147.484 411.26 146.755 411.26 145.912C411.26 144.915 411.605 144.08 412.295 143.405C412.985 142.73 414.05 142.393 415.492 142.393C416.074 142.393 416.688 142.462 417.332 142.6C417.976 142.738 418.65 142.96 419.356 143.267L418.597 145.521C417.953 145.214 417.37 145 416.849 144.877C416.327 144.754 415.867 144.693 415.469 144.693C414.38 144.693 413.836 145.061 413.836 145.797C413.836 146.088 413.928 146.318 414.112 146.487C414.311 146.656 414.671 146.809 415.193 146.947L416.504 147.292C417.623 147.583 418.436 148.028 418.942 148.626C419.463 149.224 419.724 149.975 419.724 150.88C419.724 151.953 419.356 152.827 418.62 153.502C417.899 154.177 416.757 154.514 415.193 154.514C413.859 154.514 412.456 154.207 410.984 153.594L411.697 151.409C412.417 151.7 413.069 151.907 413.652 152.03C414.234 152.153 414.756 152.214 415.216 152.214Z" fill="black"/>
<rect x="492.585" y="25.4237" width="204.979" height="204.979" rx="33" fill="#F9F0F0"/>
<path d="M644.771 63.5593H544.233C539.387 63.5646 534.74 65.4922 531.313 68.9192C527.886 72.3461 525.959 76.9925 525.953 81.839V173.237C525.959 178.084 527.886 182.73 531.313 186.157C534.74 189.584 539.387 191.512 544.233 191.517H644.771C649.618 191.512 654.264 189.584 657.691 186.157C661.118 182.73 663.046 178.084 663.051 173.237V81.839C663.046 76.9925 661.118 72.3461 657.691 68.9192C654.264 65.4922 649.618 63.5646 644.771 63.5593V63.5593ZM548.803 127.538C547.856 127.538 546.933 127.244 546.16 126.697C545.388 126.149 544.805 125.375 544.491 124.482C544.177 123.588 544.149 122.62 544.41 121.709C544.671 120.799 545.208 119.993 545.947 119.401L564.338 104.689L545.947 89.9763C545.478 89.6012 545.088 89.1375 544.798 88.6115C544.508 88.0856 544.325 87.5077 544.259 86.911C544.192 86.3142 544.244 85.7102 544.411 85.1335C544.579 84.5568 544.858 84.0187 545.233 83.5498C545.608 83.081 546.072 82.6906 546.597 82.401C547.123 82.1114 547.701 81.9282 548.298 81.8619C548.895 81.7956 549.499 81.8474 550.075 82.0145C550.652 82.1817 551.19 82.4607 551.659 82.8358L574.509 101.115C575.045 101.544 575.477 102.087 575.774 102.705C576.072 103.323 576.226 104 576.226 104.686C576.226 105.372 576.072 106.049 575.774 106.667C575.477 107.285 575.045 107.828 574.509 108.256L551.659 126.536C550.849 127.185 549.841 127.538 548.803 127.538ZM594.502 127.538H576.222C575.01 127.538 573.848 127.057 572.991 126.2C572.134 125.343 571.653 124.18 571.653 122.968C571.653 121.756 572.134 120.594 572.991 119.737C573.848 118.88 575.01 118.398 576.222 118.398H594.502C595.714 118.398 596.877 118.88 597.734 119.737C598.591 120.594 599.072 121.756 599.072 122.968C599.072 124.18 598.591 125.343 597.734 126.2C596.877 127.057 595.714 127.538 594.502 127.538Z" fill="#0B6C69"/>
<path d="M543.821 216.267V198.085H550.995C552.374 198.085 553.548 198.349 554.519 198.875C555.49 199.396 556.23 200.121 556.739 201.05C557.254 201.974 557.511 203.039 557.511 204.246C557.511 205.454 557.251 206.519 556.73 207.442C556.209 208.366 555.454 209.085 554.466 209.6C553.483 210.115 552.294 210.372 550.897 210.372H546.325V207.291H550.276C551.015 207.291 551.625 207.164 552.104 206.91C552.59 206.649 552.951 206.291 553.187 205.836C553.43 205.374 553.551 204.844 553.551 204.246C553.551 203.643 553.43 203.116 553.187 202.666C552.951 202.21 552.59 201.858 552.104 201.61C551.619 201.355 551.004 201.228 550.258 201.228H547.665V216.267H543.821ZM559.937 216.267V202.631H563.603V205.01H563.745C563.994 204.164 564.411 203.524 564.997 203.092C565.583 202.654 566.258 202.435 567.021 202.435C567.211 202.435 567.415 202.447 567.634 202.471C567.853 202.494 568.045 202.527 568.211 202.568V205.924C568.033 205.871 567.788 205.824 567.474 205.782C567.16 205.741 566.873 205.72 566.613 205.72C566.057 205.72 565.559 205.841 565.122 206.084C564.689 206.321 564.346 206.652 564.092 207.078C563.843 207.505 563.719 207.996 563.719 208.552V216.267H559.937ZM575.693 216.533C574.314 216.533 573.121 216.24 572.115 215.654C571.115 215.063 570.342 214.24 569.798 213.186C569.253 212.127 568.981 210.899 568.981 209.502C568.981 208.093 569.253 206.862 569.798 205.809C570.342 204.749 571.115 203.927 572.115 203.341C573.121 202.749 574.314 202.453 575.693 202.453C577.072 202.453 578.261 202.749 579.262 203.341C580.268 203.927 581.043 204.749 581.588 205.809C582.132 206.862 582.404 208.093 582.404 209.502C582.404 210.899 582.132 212.127 581.588 213.186C581.043 214.24 580.268 215.063 579.262 215.654C578.261 216.24 577.072 216.533 575.693 216.533ZM575.711 213.604C576.338 213.604 576.862 213.426 577.282 213.071C577.702 212.71 578.019 212.219 578.232 211.597C578.451 210.976 578.56 210.269 578.56 209.475C578.56 208.682 578.451 207.975 578.232 207.354C578.019 206.732 577.702 206.241 577.282 205.88C576.862 205.519 576.338 205.338 575.711 205.338C575.077 205.338 574.545 205.519 574.113 205.88C573.686 206.241 573.364 206.732 573.145 207.354C572.932 207.975 572.825 208.682 572.825 209.475C572.825 210.269 572.932 210.976 573.145 211.597C573.364 212.219 573.686 212.71 574.113 213.071C574.545 213.426 575.077 213.604 575.711 213.604ZM591.007 221.665C589.782 221.665 588.731 221.496 587.855 221.159C586.985 220.827 586.293 220.374 585.778 219.8C585.263 219.226 584.929 218.581 584.775 217.865L588.273 217.394C588.379 217.667 588.548 217.921 588.779 218.158C589.01 218.395 589.314 218.584 589.693 218.726C590.078 218.874 590.545 218.948 591.096 218.948C591.919 218.948 592.596 218.747 593.129 218.344C593.667 217.948 593.937 217.282 593.937 216.347V213.852H593.777C593.611 214.231 593.363 214.589 593.031 214.926C592.7 215.264 592.274 215.539 591.753 215.752C591.232 215.965 590.611 216.072 589.888 216.072C588.865 216.072 587.932 215.835 587.092 215.361C586.257 214.882 585.592 214.151 585.094 213.169C584.603 212.18 584.358 210.931 584.358 209.422C584.358 207.877 584.609 206.587 585.112 205.551C585.615 204.516 586.284 203.74 587.119 203.225C587.959 202.711 588.879 202.453 589.88 202.453C590.643 202.453 591.282 202.583 591.797 202.844C592.312 203.098 592.726 203.418 593.04 203.802C593.36 204.181 593.605 204.554 593.777 204.921H593.919V202.631H597.674V216.4C597.674 217.56 597.39 218.531 596.822 219.312C596.254 220.093 595.467 220.679 594.461 221.07C593.46 221.466 592.309 221.665 591.007 221.665ZM591.087 213.231C591.697 213.231 592.211 213.08 592.632 212.778C593.058 212.47 593.383 212.032 593.608 211.464C593.839 210.89 593.955 210.203 593.955 209.404C593.955 208.605 593.842 207.913 593.617 207.327C593.392 206.735 593.067 206.276 592.641 205.951C592.214 205.625 591.697 205.463 591.087 205.463C590.466 205.463 589.942 205.631 589.516 205.969C589.089 206.3 588.767 206.762 588.548 207.354C588.329 207.945 588.219 208.629 588.219 209.404C588.219 210.192 588.329 210.872 588.548 211.446C588.773 212.014 589.095 212.455 589.516 212.769C589.942 213.077 590.466 213.231 591.087 213.231ZM600.684 216.267V202.631H604.35V205.01H604.493C604.741 204.164 605.158 203.524 605.744 203.092C606.33 202.654 607.005 202.435 607.768 202.435C607.958 202.435 608.162 202.447 608.381 202.471C608.6 202.494 608.792 202.527 608.958 202.568V205.924C608.781 205.871 608.535 205.824 608.221 205.782C607.908 205.741 607.62 205.72 607.36 205.72C606.804 205.72 606.307 205.841 605.869 206.084C605.437 206.321 605.093 206.652 604.839 207.078C604.59 207.505 604.466 207.996 604.466 208.552V216.267H600.684ZM614.411 216.524C613.541 216.524 612.766 216.374 612.085 216.072C611.405 215.764 610.866 215.311 610.47 214.713C610.079 214.11 609.884 213.358 609.884 212.458C609.884 211.701 610.023 211.065 610.301 210.55C610.579 210.035 610.958 209.62 611.437 209.307C611.917 208.993 612.461 208.756 613.071 208.597C613.686 208.437 614.331 208.324 615.006 208.259C615.799 208.176 616.438 208.099 616.924 208.028C617.409 207.951 617.761 207.839 617.98 207.691C618.199 207.543 618.309 207.324 618.309 207.034V206.981C618.309 206.418 618.131 205.983 617.776 205.676C617.427 205.368 616.93 205.214 616.285 205.214C615.604 205.214 615.062 205.365 614.66 205.667C614.257 205.963 613.991 206.336 613.861 206.785L610.363 206.501C610.541 205.673 610.89 204.957 611.411 204.353C611.931 203.743 612.603 203.276 613.426 202.95C614.254 202.619 615.213 202.453 616.302 202.453C617.06 202.453 617.785 202.542 618.477 202.719C619.176 202.897 619.794 203.172 620.333 203.545C620.877 203.918 621.306 204.397 621.62 204.983C621.934 205.563 622.091 206.259 622.091 207.07V216.267H618.504V214.376H618.397C618.178 214.802 617.885 215.178 617.519 215.503C617.152 215.823 616.711 216.075 616.196 216.258C615.681 216.436 615.086 216.524 614.411 216.524ZM615.494 213.914C616.051 213.914 616.542 213.805 616.968 213.586C617.394 213.361 617.729 213.059 617.971 212.68C618.214 212.302 618.335 211.872 618.335 211.393V209.946C618.217 210.023 618.054 210.094 617.847 210.159C617.646 210.218 617.418 210.274 617.163 210.328C616.909 210.375 616.654 210.419 616.4 210.461C616.145 210.496 615.915 210.529 615.707 210.559C615.264 210.624 614.876 210.727 614.544 210.869C614.213 211.011 613.956 211.204 613.772 211.446C613.589 211.683 613.497 211.979 613.497 212.334C613.497 212.849 613.683 213.243 614.056 213.515C614.435 213.781 614.914 213.914 615.494 213.914ZM625.025 216.267V202.631H628.629V205.036H628.789C629.073 204.237 629.547 203.607 630.209 203.146C630.872 202.684 631.665 202.453 632.589 202.453C633.524 202.453 634.32 202.687 634.977 203.154C635.634 203.616 636.072 204.243 636.291 205.036H636.433C636.711 204.255 637.214 203.631 637.942 203.163C638.676 202.69 639.543 202.453 640.543 202.453C641.816 202.453 642.848 202.858 643.642 203.669C644.441 204.474 644.84 205.617 644.84 207.096V216.267H641.067V207.842C641.067 207.084 640.866 206.516 640.463 206.137C640.061 205.759 639.558 205.569 638.954 205.569C638.268 205.569 637.732 205.788 637.347 206.226C636.962 206.658 636.77 207.229 636.77 207.94V216.267H633.104V207.762C633.104 207.093 632.911 206.561 632.527 206.164C632.148 205.767 631.648 205.569 631.026 205.569C630.606 205.569 630.227 205.676 629.89 205.889C629.558 206.096 629.295 206.389 629.1 206.768C628.904 207.141 628.807 207.579 628.807 208.082V216.267H625.025Z" fill="black"/>
</svg>
