<svg width="750" height="423" viewBox="0 0 750 423" fill="none" xmlns="http://www.w3.org/2000/svg">
<rect x="290" y="31" width="153" height="119" rx="21" fill="url(#paint0_linear_3_2)"/>
<rect x="76.5" y="249.5" width="117" height="118" rx="58.5" fill="url(#paint1_linear_3_2)" stroke="black"/>
<rect x="505.5" y="249.5" width="152" height="118" fill="url(#paint2_linear_3_2)" stroke="black"/>
<g filter="url(#filter0_ddd_3_2)">
<path d="M340.862 155.819C341.314 154.514 340.623 153.09 339.319 152.638L318.06 145.269C316.755 144.816 315.331 145.507 314.879 146.812C314.427 148.117 315.118 149.541 316.422 149.993L335.319 156.543L328.769 175.44C328.316 176.745 329.007 178.169 330.312 178.621C331.616 179.073 333.041 178.382 333.493 177.078L340.862 155.819ZM154.091 247.249L339.591 157.249L337.409 152.751L151.909 242.751L154.091 247.249Z" fill="#312929"/>
</g>
<g filter="url(#filter1_ddd_3_2)">
<path d="M365.768 152.232C364.791 151.256 363.209 151.256 362.232 152.232L346.322 168.142C345.346 169.118 345.346 170.701 346.322 171.678C347.299 172.654 348.882 172.654 349.858 171.678L364 157.536L378.142 171.678C379.118 172.654 380.701 172.654 381.678 171.678C382.654 170.701 382.654 169.118 381.678 168.142L365.768 152.232ZM366.5 247L366.5 154L361.5 154L361.5 247L366.5 247Z" fill="#312929"/>
</g>
<g filter="url(#filter2_ddd_3_2)">
<path d="M397.247 151.616C395.931 152.032 395.2 153.436 395.616 154.753L402.392 176.208C402.807 177.525 404.212 178.255 405.528 177.84C406.845 177.424 407.575 176.019 407.159 174.703L401.137 155.631L420.208 149.609C421.525 149.193 422.255 147.788 421.84 146.472C421.424 145.155 420.019 144.425 418.703 144.841L397.247 151.616ZM574.153 242.782L399.153 151.782L396.847 156.218L571.847 247.218L574.153 242.782Z" fill="#312929"/>
</g>
<path d="M292.127 357.75L363.5 251.894L434.873 357.75H292.127Z" fill="url(#paint3_linear_3_2)" stroke="black"/>
<path d="M342.82 87.0472C342.749 86.3311 342.445 85.7747 341.906 85.3782C341.367 84.9817 340.637 84.7834 339.713 84.7834C339.086 84.7834 338.556 84.8722 338.124 85.0497C337.692 85.2214 337.361 85.4611 337.13 85.7688C336.905 86.0766 336.792 86.4258 336.792 86.8164C336.781 87.1419 336.849 87.426 336.997 87.6687C337.151 87.9113 337.361 88.1214 337.627 88.299C337.893 88.4706 338.201 88.6216 338.55 88.7518C338.899 88.8761 339.272 88.9826 339.669 89.0714L341.302 89.462C342.095 89.6396 342.823 89.8763 343.486 90.1722C344.149 90.4682 344.723 90.8321 345.209 91.2642C345.694 91.6963 346.07 92.2053 346.336 92.7912C346.608 93.3771 346.747 94.0489 346.753 94.8065C346.747 95.9192 346.463 96.8839 345.901 97.7006C345.345 98.5115 344.54 99.1418 343.486 99.5916C342.439 100.036 341.175 100.257 339.695 100.257C338.228 100.257 336.949 100.033 335.86 99.5827C334.777 99.1329 333.931 98.4671 333.321 97.5852C332.718 96.6974 332.401 95.5996 332.371 94.2915H336.091C336.133 94.9012 336.307 95.4102 336.615 95.8185C336.929 96.221 337.346 96.5258 337.867 96.733C338.393 96.9342 338.988 97.0348 339.651 97.0348C340.302 97.0348 340.867 96.9401 341.347 96.7507C341.832 96.5613 342.208 96.2979 342.474 95.9606C342.741 95.6232 342.874 95.2356 342.874 94.7976C342.874 94.3892 342.752 94.0459 342.51 93.7678C342.273 93.4896 341.924 93.2528 341.462 93.0575C341.006 92.8622 340.447 92.6847 339.784 92.5249L337.805 92.0277C336.272 91.6548 335.061 91.0719 334.173 90.2788C333.286 89.4857 332.845 88.4174 332.851 87.0739C332.845 85.973 333.138 85.0112 333.73 84.1886C334.327 83.3659 335.147 82.7237 336.189 82.2621C337.23 81.8004 338.414 81.5696 339.74 81.5696C341.089 81.5696 342.267 81.8004 343.273 82.2621C344.285 82.7237 345.073 83.3659 345.635 84.1886C346.197 85.0112 346.487 85.9641 346.505 87.0472H342.82ZM353.05 92.1165V100H349.268V81.8182H352.943V88.7695H353.103C353.411 87.9646 353.908 87.3343 354.595 86.8786C355.281 86.4169 356.142 86.1861 357.178 86.1861C358.125 86.1861 358.951 86.3932 359.655 86.8075C360.365 87.2159 360.916 87.8048 361.306 88.5742C361.703 89.3377 361.898 90.2521 361.892 91.3175V100H358.11V91.9922C358.116 91.1518 357.903 90.4978 357.471 90.0302C357.045 89.5626 356.447 89.3288 355.678 89.3288C355.163 89.3288 354.707 89.4383 354.311 89.6573C353.92 89.8763 353.612 90.1959 353.387 90.6161C353.168 91.0304 353.056 91.5305 353.05 92.1165ZM368.757 100.257C367.887 100.257 367.112 100.107 366.431 99.8047C365.75 99.4969 365.212 99.0442 364.815 98.4464C364.425 97.8427 364.229 97.091 364.229 96.1914C364.229 95.4338 364.368 94.7976 364.647 94.2827C364.925 93.7678 365.304 93.3535 365.783 93.0398C366.262 92.7261 366.807 92.4893 367.417 92.3295C368.032 92.1697 368.677 92.0573 369.352 91.9922C370.145 91.9093 370.784 91.8324 371.27 91.7614C371.755 91.6844 372.107 91.572 372.326 91.424C372.545 91.276 372.654 91.0571 372.654 90.767V90.7138C372.654 90.1515 372.477 89.7165 372.122 89.4087C371.773 89.101 371.275 88.9471 370.63 88.9471C369.95 88.9471 369.408 89.098 369.006 89.3999C368.603 89.6958 368.337 90.0687 368.207 90.5185L364.709 90.2344C364.886 89.4058 365.236 88.6896 365.756 88.0859C366.277 87.4763 366.949 87.0088 367.772 86.6832C368.6 86.3518 369.559 86.1861 370.648 86.1861C371.406 86.1861 372.131 86.2749 372.823 86.4524C373.522 86.63 374.14 86.9052 374.679 87.2781C375.223 87.6509 375.652 88.1303 375.966 88.7163C376.28 89.2963 376.436 89.9917 376.436 90.8026V100H372.85V98.109H372.743C372.524 98.5352 372.231 98.911 371.864 99.2365C371.497 99.5561 371.056 99.8076 370.542 99.9911C370.027 100.169 369.432 100.257 368.757 100.257ZM369.84 97.6474C370.397 97.6474 370.888 97.5379 371.314 97.3189C371.74 97.094 372.074 96.7921 372.317 96.4134C372.56 96.0346 372.681 95.6055 372.681 95.1261V93.679C372.563 93.7559 372.4 93.8269 372.193 93.892C371.992 93.9512 371.764 94.0075 371.509 94.0607C371.255 94.1081 371 94.1525 370.746 94.1939C370.491 94.2294 370.26 94.262 370.053 94.2915C369.609 94.3567 369.222 94.4602 368.89 94.6023C368.559 94.7443 368.301 94.9367 368.118 95.1793C367.934 95.4161 367.843 95.712 367.843 96.0671C367.843 96.582 368.029 96.9756 368.402 97.2479C368.781 97.5142 369.26 97.6474 369.84 97.6474ZM379.371 105.114V86.3636H383.099V88.6541H383.268C383.434 88.2872 383.673 87.9143 383.987 87.5355C384.307 87.1508 384.721 86.8312 385.23 86.5767C385.745 86.3163 386.384 86.1861 387.148 86.1861C388.142 86.1861 389.059 86.4465 389.9 86.9673C390.74 87.4822 391.412 88.2605 391.915 89.3022C392.418 90.3379 392.67 91.6371 392.67 93.1996C392.67 94.7206 392.424 96.005 391.933 97.0526C391.447 98.0942 390.785 98.8844 389.944 99.4229C389.11 99.9556 388.174 100.222 387.139 100.222C386.405 100.222 385.78 100.101 385.265 99.858C384.756 99.6153 384.339 99.3105 384.014 98.9435C383.688 98.5707 383.44 98.1948 383.268 97.8161H383.153V105.114H379.371ZM383.073 93.1818C383.073 93.9927 383.185 94.6999 383.41 95.3036C383.635 95.9073 383.96 96.3778 384.387 96.7152C384.813 97.0466 385.331 97.2124 385.94 97.2124C386.556 97.2124 387.077 97.0437 387.503 96.7063C387.929 96.363 388.251 95.8896 388.47 95.2859C388.695 94.6763 388.808 93.9749 388.808 93.1818C388.808 92.3946 388.698 91.7022 388.479 91.1044C388.26 90.5066 387.938 90.0391 387.512 89.7017C387.085 89.3643 386.562 89.1957 385.94 89.1957C385.325 89.1957 384.804 89.3584 384.378 89.6839C383.957 90.0095 383.635 90.4711 383.41 91.0689C383.185 91.6667 383.073 92.371 383.073 93.1818ZM401.405 100.266C400.003 100.266 398.795 99.9822 397.783 99.4141C396.777 98.84 396.002 98.0291 395.457 96.9815C394.913 95.928 394.64 94.6822 394.64 93.244C394.64 91.8413 394.913 90.6102 395.457 89.5508C396.002 88.4914 396.768 87.6657 397.757 87.0739C398.751 86.482 399.917 86.1861 401.254 86.1861C402.154 86.1861 402.992 86.3311 403.767 86.6211C404.548 86.9052 405.229 87.3343 405.809 87.9084C406.395 88.4825 406.85 89.2045 407.176 90.0746C407.501 90.9387 407.664 91.9508 407.664 93.1108V94.1495H396.15V91.8058H404.104C404.104 91.2612 403.986 90.7789 403.749 90.3587C403.512 89.9384 403.184 89.61 402.764 89.3732C402.349 89.1306 401.867 89.0092 401.317 89.0092C400.742 89.0092 400.233 89.1424 399.79 89.4087C399.352 89.6692 399.008 90.0213 398.76 90.4652C398.511 90.9032 398.384 91.3915 398.378 91.93V94.1584C398.378 94.8331 398.502 95.4161 398.751 95.9073C399.005 96.3986 399.363 96.7773 399.825 97.0437C400.287 97.31 400.834 97.4432 401.468 97.4432C401.888 97.4432 402.272 97.384 402.622 97.2656C402.971 97.1473 403.27 96.9697 403.518 96.733C403.767 96.4962 403.956 96.2062 404.086 95.8629L407.584 96.0938C407.407 96.9342 407.043 97.6681 406.492 98.2955C405.948 98.9169 405.244 99.4022 404.379 99.7514C403.521 100.095 402.53 100.266 401.405 100.266Z" fill="white"/>
<path d="M116.807 306.184H112.919C112.848 305.681 112.703 305.234 112.484 304.843C112.265 304.446 111.983 304.109 111.64 303.831C111.297 303.553 110.9 303.34 110.451 303.192C110.007 303.044 109.524 302.97 109.003 302.97C108.062 302.97 107.243 303.204 106.544 303.671C105.846 304.133 105.304 304.808 104.92 305.695C104.535 306.577 104.343 307.648 104.343 308.909C104.343 310.205 104.535 311.294 104.92 312.176C105.31 313.058 105.855 313.724 106.553 314.174C107.252 314.623 108.059 314.848 108.977 314.848C109.492 314.848 109.968 314.78 110.406 314.644C110.85 314.508 111.244 314.31 111.587 314.049C111.93 313.783 112.214 313.46 112.439 313.082C112.67 312.703 112.83 312.271 112.919 311.786L116.807 311.803C116.706 312.638 116.455 313.443 116.052 314.218C115.656 314.987 115.12 315.677 114.446 316.287C113.777 316.89 112.978 317.37 112.049 317.725C111.125 318.074 110.081 318.249 108.915 318.249C107.293 318.249 105.843 317.882 104.565 317.148C103.292 316.414 102.286 315.351 101.546 313.961C100.812 312.57 100.445 310.886 100.445 308.909C100.445 306.926 100.818 305.24 101.564 303.849C102.31 302.458 103.322 301.398 104.6 300.67C105.878 299.937 107.317 299.57 108.915 299.57C109.968 299.57 110.945 299.718 111.844 300.013C112.75 300.309 113.552 300.741 114.25 301.31C114.949 301.872 115.517 302.561 115.955 303.378C116.399 304.195 116.683 305.13 116.807 306.184ZM119.493 318V304.364H123.275V318H119.493ZM121.392 302.606C120.83 302.606 120.348 302.419 119.945 302.047C119.549 301.668 119.351 301.215 119.351 300.688C119.351 300.167 119.549 299.721 119.945 299.348C120.348 298.969 120.83 298.779 121.392 298.779C121.955 298.779 122.434 298.969 122.831 299.348C123.233 299.721 123.434 300.167 123.434 300.688C123.434 301.215 123.233 301.668 122.831 302.047C122.434 302.419 121.955 302.606 121.392 302.606ZM126.304 318V304.364H129.971V306.743H130.113C130.361 305.897 130.779 305.257 131.365 304.825C131.95 304.387 132.625 304.168 133.389 304.168C133.578 304.168 133.782 304.18 134.001 304.204C134.22 304.228 134.413 304.26 134.578 304.301V307.657C134.401 307.604 134.155 307.557 133.841 307.515C133.528 307.474 133.241 307.453 132.98 307.453C132.424 307.453 131.927 307.574 131.489 307.817C131.057 308.054 130.713 308.385 130.459 308.811C130.21 309.238 130.086 309.729 130.086 310.285V318H126.304ZM142.06 318.266C140.663 318.266 139.462 317.97 138.456 317.379C137.455 316.781 136.686 315.952 136.147 314.893C135.615 313.833 135.348 312.614 135.348 311.235C135.348 309.838 135.618 308.613 136.156 307.56C136.701 306.5 137.473 305.675 138.473 305.083C139.474 304.485 140.663 304.186 142.042 304.186C143.232 304.186 144.274 304.402 145.167 304.834C146.061 305.266 146.768 305.873 147.289 306.654C147.81 307.435 148.097 308.353 148.15 309.406H144.581C144.481 308.726 144.214 308.178 143.782 307.764C143.356 307.344 142.797 307.134 142.104 307.134C141.519 307.134 141.007 307.293 140.569 307.613C140.137 307.927 139.799 308.385 139.557 308.989C139.314 309.593 139.193 310.324 139.193 311.182C139.193 312.052 139.311 312.792 139.548 313.401C139.79 314.011 140.131 314.475 140.569 314.795C141.007 315.115 141.519 315.275 142.104 315.275C142.537 315.275 142.924 315.186 143.267 315.008C143.617 314.831 143.904 314.573 144.129 314.236C144.359 313.893 144.51 313.481 144.581 313.002H148.15C148.091 314.043 147.807 314.961 147.298 315.754C146.795 316.541 146.1 317.157 145.212 317.6C144.324 318.044 143.273 318.266 142.06 318.266ZM154.354 299.818V318H150.572V299.818H154.354ZM163.598 318.266C162.195 318.266 160.988 317.982 159.976 317.414C158.969 316.84 158.194 316.029 157.65 314.982C157.105 313.928 156.833 312.682 156.833 311.244C156.833 309.841 157.105 308.61 157.65 307.551C158.194 306.491 158.961 305.666 159.949 305.074C160.943 304.482 162.109 304.186 163.447 304.186C164.346 304.186 165.184 304.331 165.959 304.621C166.741 304.905 167.421 305.334 168.001 305.908C168.587 306.482 169.043 307.205 169.368 308.075C169.694 308.939 169.857 309.951 169.857 311.111V312.15H158.342V309.806H166.297C166.297 309.261 166.178 308.779 165.941 308.359C165.705 307.938 165.376 307.61 164.956 307.373C164.542 307.131 164.059 307.009 163.509 307.009C162.935 307.009 162.426 307.142 161.982 307.409C161.544 307.669 161.201 308.021 160.952 308.465C160.704 308.903 160.576 309.391 160.57 309.93V312.158C160.57 312.833 160.695 313.416 160.943 313.907C161.198 314.399 161.556 314.777 162.017 315.044C162.479 315.31 163.027 315.443 163.66 315.443C164.08 315.443 164.465 315.384 164.814 315.266C165.163 315.147 165.462 314.97 165.711 314.733C165.959 314.496 166.149 314.206 166.279 313.863L169.777 314.094C169.599 314.934 169.235 315.668 168.685 316.295C168.14 316.917 167.436 317.402 166.572 317.751C165.714 318.095 164.722 318.266 163.598 318.266Z" fill="white"/>
<path d="M327.23 324.99V322.455H339.176V324.99H334.723V337H331.683V324.99H327.23ZM339.953 337V326.091H342.887V327.994H343C343.199 327.317 343.533 326.806 344.002 326.46C344.471 326.11 345.01 325.935 345.621 325.935C345.773 325.935 345.936 325.944 346.111 325.963C346.286 325.982 346.44 326.008 346.573 326.041V328.726C346.431 328.683 346.234 328.645 345.983 328.612C345.732 328.579 345.503 328.562 345.294 328.562C344.849 328.562 344.452 328.66 344.101 328.854C343.756 329.043 343.481 329.308 343.277 329.649C343.078 329.99 342.979 330.383 342.979 330.828V337H339.953ZM348.137 337V326.091H351.163V337H348.137ZM349.657 324.685C349.207 324.685 348.821 324.536 348.499 324.237C348.182 323.934 348.023 323.572 348.023 323.151C348.023 322.734 348.182 322.376 348.499 322.078C348.821 321.775 349.207 321.624 349.657 321.624C350.107 321.624 350.49 321.775 350.808 322.078C351.129 322.376 351.29 322.734 351.29 323.151C351.29 323.572 351.129 323.934 350.808 324.237C350.49 324.536 350.107 324.685 349.657 324.685ZM356.697 337.206C356.001 337.206 355.381 337.085 354.836 336.844C354.292 336.598 353.861 336.235 353.544 335.757C353.231 335.274 353.075 334.673 353.075 333.953C353.075 333.347 353.186 332.838 353.409 332.426C353.631 332.014 353.934 331.683 354.318 331.432C354.701 331.181 355.137 330.991 355.625 330.864C356.117 330.736 356.633 330.646 357.173 330.594C357.807 330.527 358.319 330.466 358.707 330.409C359.095 330.348 359.377 330.258 359.552 330.139C359.727 330.021 359.815 329.846 359.815 329.614V329.571C359.815 329.121 359.673 328.773 359.389 328.527C359.109 328.281 358.712 328.158 358.196 328.158C357.651 328.158 357.218 328.278 356.896 328.52C356.574 328.757 356.361 329.055 356.257 329.415L353.458 329.188C353.6 328.525 353.88 327.952 354.297 327.469C354.713 326.981 355.251 326.607 355.909 326.347C356.572 326.081 357.339 325.949 358.21 325.949C358.816 325.949 359.396 326.02 359.95 326.162C360.509 326.304 361.003 326.524 361.434 326.822C361.87 327.121 362.213 327.504 362.464 327.973C362.715 328.437 362.841 328.993 362.841 329.642V337H359.971V335.487H359.886C359.711 335.828 359.476 336.129 359.183 336.389C358.889 336.645 358.537 336.846 358.125 336.993C357.713 337.135 357.237 337.206 356.697 337.206ZM357.564 335.118C358.009 335.118 358.402 335.03 358.743 334.855C359.083 334.675 359.351 334.434 359.545 334.131C359.739 333.828 359.836 333.484 359.836 333.101V331.943C359.742 332.005 359.611 332.062 359.446 332.114C359.285 332.161 359.102 332.206 358.899 332.249C358.695 332.286 358.492 332.322 358.288 332.355C358.084 332.384 357.9 332.41 357.734 332.433C357.379 332.485 357.069 332.568 356.804 332.682C356.538 332.795 356.333 332.949 356.186 333.143C356.039 333.333 355.966 333.57 355.966 333.854C355.966 334.266 356.115 334.58 356.413 334.798C356.716 335.011 357.1 335.118 357.564 335.118ZM368.213 330.693V337H365.188V326.091H368.071V328.016H368.199C368.441 327.381 368.846 326.879 369.414 326.51C369.982 326.136 370.671 325.949 371.48 325.949C372.238 325.949 372.899 326.115 373.462 326.446C374.025 326.777 374.463 327.251 374.776 327.866C375.088 328.477 375.245 329.206 375.245 330.054V337H372.219V330.594C372.224 329.926 372.053 329.405 371.708 329.031C371.362 328.652 370.886 328.463 370.28 328.463C369.873 328.463 369.513 328.551 369.201 328.726C368.893 328.901 368.651 329.157 368.476 329.493C368.306 329.824 368.218 330.224 368.213 330.693ZM382.544 341.318C381.564 341.318 380.723 341.183 380.023 340.913C379.327 340.648 378.773 340.286 378.361 339.827C377.949 339.367 377.681 338.851 377.558 338.278L380.357 337.902C380.442 338.12 380.577 338.323 380.761 338.513C380.946 338.702 381.19 338.854 381.493 338.967C381.801 339.086 382.175 339.145 382.615 339.145C383.273 339.145 383.815 338.984 384.241 338.662C384.672 338.345 384.888 337.812 384.888 337.064V335.068H384.76C384.627 335.371 384.429 335.658 384.163 335.928C383.898 336.197 383.557 336.418 383.141 336.588C382.724 336.759 382.227 336.844 381.649 336.844C380.83 336.844 380.084 336.654 379.412 336.276C378.744 335.892 378.212 335.307 377.814 334.521C377.421 333.731 377.224 332.732 377.224 331.524C377.224 330.288 377.426 329.256 377.828 328.428C378.231 327.599 378.766 326.979 379.433 326.567C380.106 326.155 380.842 325.949 381.642 325.949C382.253 325.949 382.764 326.053 383.176 326.261C383.588 326.465 383.92 326.721 384.17 327.028C384.426 327.331 384.623 327.63 384.76 327.923H384.874V326.091H387.878V337.107C387.878 338.035 387.651 338.811 387.196 339.436C386.741 340.061 386.112 340.53 385.307 340.842C384.507 341.16 383.586 341.318 382.544 341.318ZM382.608 334.571C383.096 334.571 383.508 334.45 383.844 334.209C384.185 333.963 384.445 333.612 384.625 333.158C384.81 332.698 384.902 332.149 384.902 331.51C384.902 330.871 384.812 330.317 384.632 329.848C384.452 329.375 384.192 329.008 383.851 328.747C383.51 328.487 383.096 328.357 382.608 328.357C382.111 328.357 381.692 328.491 381.351 328.761C381.01 329.027 380.752 329.396 380.577 329.869C380.402 330.343 380.314 330.89 380.314 331.51C380.314 332.14 380.402 332.684 380.577 333.143C380.757 333.598 381.015 333.951 381.351 334.202C381.692 334.448 382.111 334.571 382.608 334.571ZM393.311 322.455V337H390.286V322.455H393.311ZM400.706 337.213C399.584 337.213 398.618 336.986 397.809 336.531C397.004 336.072 396.383 335.423 395.948 334.585C395.512 333.742 395.294 332.746 395.294 331.595C395.294 330.473 395.512 329.488 395.948 328.641C396.383 327.793 396.997 327.133 397.787 326.659C398.583 326.186 399.516 325.949 400.586 325.949C401.305 325.949 401.975 326.065 402.596 326.297C403.221 326.524 403.765 326.867 404.229 327.327C404.698 327.786 405.062 328.364 405.323 329.06C405.583 329.751 405.713 330.561 405.713 331.489V332.32H396.502V330.445H402.865C402.865 330.009 402.771 329.623 402.581 329.287C402.392 328.951 402.129 328.688 401.793 328.499C401.462 328.304 401.076 328.207 400.635 328.207C400.176 328.207 399.769 328.314 399.414 328.527C399.063 328.735 398.789 329.017 398.59 329.372C398.391 329.723 398.289 330.113 398.284 330.544V332.327C398.284 332.866 398.384 333.333 398.583 333.726C398.786 334.119 399.073 334.422 399.442 334.635C399.811 334.848 400.249 334.955 400.756 334.955C401.092 334.955 401.4 334.907 401.679 334.812C401.959 334.718 402.198 334.576 402.397 334.386C402.596 334.197 402.747 333.965 402.851 333.69L405.65 333.875C405.507 334.547 405.216 335.134 404.776 335.636C404.34 336.134 403.777 336.522 403.086 336.801C402.399 337.076 401.606 337.213 400.706 337.213Z" fill="white"/>
<g filter="url(#filter3_dddd_3_2)">
<path d="M521.508 318V299.818H528.681C530.054 299.818 531.226 300.064 532.197 300.555C533.173 301.04 533.916 301.73 534.425 302.624C534.94 303.511 535.198 304.556 535.198 305.757C535.198 306.965 534.937 308.004 534.416 308.874C533.896 309.738 533.141 310.401 532.153 310.862C531.17 311.324 529.98 311.555 528.584 311.555H523.781V308.465H527.962C528.696 308.465 529.306 308.365 529.791 308.163C530.276 307.962 530.637 307.66 530.874 307.258C531.117 306.855 531.238 306.355 531.238 305.757C531.238 305.154 531.117 304.645 530.874 304.23C530.637 303.816 530.273 303.502 529.782 303.289C529.297 303.07 528.684 302.961 527.944 302.961H525.352V318H521.508ZM531.327 309.726L535.846 318H531.602L527.181 309.726H531.327ZM543.838 318.266C542.435 318.266 541.228 317.982 540.216 317.414C539.21 316.84 538.434 316.029 537.89 314.982C537.345 313.928 537.073 312.682 537.073 311.244C537.073 309.841 537.345 308.61 537.89 307.551C538.434 306.491 539.201 305.666 540.189 305.074C541.184 304.482 542.349 304.186 543.687 304.186C544.587 304.186 545.424 304.331 546.199 304.621C546.981 304.905 547.661 305.334 548.241 305.908C548.827 306.482 549.283 307.205 549.609 308.075C549.934 308.939 550.097 309.951 550.097 311.111V312.15H538.582V309.806H546.537C546.537 309.261 546.418 308.779 546.182 308.359C545.945 307.938 545.617 307.61 545.196 307.373C544.782 307.131 544.3 307.009 543.749 307.009C543.175 307.009 542.666 307.142 542.222 307.409C541.784 307.669 541.441 308.021 541.192 308.465C540.944 308.903 540.817 309.391 540.811 309.93V312.158C540.811 312.833 540.935 313.416 541.184 313.907C541.438 314.399 541.796 314.777 542.258 315.044C542.719 315.31 543.267 315.443 543.9 315.443C544.32 315.443 544.705 315.384 545.054 315.266C545.403 315.147 545.702 314.97 545.951 314.733C546.199 314.496 546.389 314.206 546.519 313.863L550.017 314.094C549.839 314.934 549.475 315.668 548.925 316.295C548.38 316.917 547.676 317.402 546.812 317.751C545.954 318.095 544.963 318.266 543.838 318.266ZM558.726 318.266C557.329 318.266 556.128 317.97 555.122 317.379C554.121 316.781 553.352 315.952 552.813 314.893C552.281 313.833 552.014 312.614 552.014 311.235C552.014 309.838 552.284 308.613 552.822 307.56C553.367 306.5 554.139 305.675 555.139 305.083C556.14 304.485 557.329 304.186 558.708 304.186C559.898 304.186 560.94 304.402 561.833 304.834C562.727 305.266 563.434 305.873 563.955 306.654C564.476 307.435 564.763 308.353 564.816 309.406H561.247C561.147 308.726 560.88 308.178 560.448 307.764C560.022 307.344 559.463 307.134 558.771 307.134C558.185 307.134 557.673 307.293 557.235 307.613C556.803 307.927 556.465 308.385 556.223 308.989C555.98 309.593 555.859 310.324 555.859 311.182C555.859 312.052 555.977 312.792 556.214 313.401C556.456 314.011 556.797 314.475 557.235 314.795C557.673 315.115 558.185 315.275 558.771 315.275C559.203 315.275 559.59 315.186 559.934 315.008C560.283 314.831 560.57 314.573 560.795 314.236C561.025 313.893 561.176 313.481 561.247 313.002H564.816C564.757 314.043 564.473 314.961 563.964 315.754C563.461 316.541 562.766 317.157 561.878 317.6C560.99 318.044 559.939 318.266 558.726 318.266ZM574.491 304.364V307.205H566.279V304.364H574.491ZM568.143 301.097H571.925V313.81C571.925 314.159 571.979 314.431 572.085 314.626C572.192 314.816 572.34 314.949 572.529 315.026C572.724 315.103 572.949 315.141 573.204 315.141C573.381 315.141 573.559 315.127 573.736 315.097C573.914 315.061 574.05 315.035 574.145 315.017L574.74 317.831C574.55 317.891 574.284 317.959 573.941 318.036C573.597 318.118 573.18 318.169 572.689 318.186C571.777 318.222 570.978 318.101 570.292 317.822C569.611 317.544 569.081 317.112 568.703 316.526C568.324 315.94 568.137 315.201 568.143 314.307V301.097ZM580.843 318.257C579.973 318.257 579.198 318.107 578.517 317.805C577.836 317.497 577.298 317.044 576.901 316.446C576.511 315.843 576.315 315.091 576.315 314.191C576.315 313.434 576.454 312.798 576.733 312.283C577.011 311.768 577.39 311.353 577.869 311.04C578.348 310.726 578.893 310.489 579.502 310.33C580.118 310.17 580.763 310.057 581.438 309.992C582.231 309.909 582.87 309.832 583.355 309.761C583.841 309.684 584.193 309.572 584.412 309.424C584.631 309.276 584.74 309.057 584.74 308.767V308.714C584.74 308.152 584.563 307.717 584.208 307.409C583.859 307.101 583.361 306.947 582.716 306.947C582.036 306.947 581.494 307.098 581.092 307.4C580.689 307.696 580.423 308.069 580.293 308.518L576.795 308.234C576.972 307.406 577.321 306.69 577.842 306.086C578.363 305.476 579.035 305.009 579.858 304.683C580.686 304.352 581.645 304.186 582.734 304.186C583.492 304.186 584.217 304.275 584.909 304.452C585.607 304.63 586.226 304.905 586.765 305.278C587.309 305.651 587.738 306.13 588.052 306.716C588.366 307.296 588.522 307.992 588.522 308.803V318H584.936V316.109H584.829C584.61 316.535 584.317 316.911 583.95 317.237C583.583 317.556 583.142 317.808 582.627 317.991C582.113 318.169 581.518 318.257 580.843 318.257ZM581.926 315.647C582.482 315.647 582.974 315.538 583.4 315.319C583.826 315.094 584.16 314.792 584.403 314.413C584.646 314.035 584.767 313.605 584.767 313.126V311.679C584.649 311.756 584.486 311.827 584.279 311.892C584.078 311.951 583.85 312.007 583.595 312.061C583.341 312.108 583.086 312.152 582.832 312.194C582.577 312.229 582.346 312.262 582.139 312.292C581.695 312.357 581.308 312.46 580.976 312.602C580.645 312.744 580.387 312.937 580.204 313.179C580.02 313.416 579.929 313.712 579.929 314.067C579.929 314.582 580.115 314.976 580.488 315.248C580.867 315.514 581.346 315.647 581.926 315.647ZM595.238 310.116V318H591.456V304.364H595.061V306.77H595.221C595.523 305.976 596.029 305.349 596.739 304.887C597.449 304.42 598.31 304.186 599.322 304.186C600.269 304.186 601.095 304.393 601.799 304.808C602.503 305.222 603.051 305.814 603.442 306.583C603.832 307.347 604.028 308.258 604.028 309.317V318H600.246V309.992C600.251 309.158 600.038 308.507 599.606 308.039C599.174 307.566 598.579 307.329 597.822 307.329C597.313 307.329 596.863 307.438 596.472 307.657C596.088 307.876 595.786 308.196 595.567 308.616C595.354 309.03 595.244 309.531 595.238 310.116ZM613.152 323.398C611.927 323.398 610.876 323.229 610 322.892C609.13 322.56 608.438 322.107 607.923 321.533C607.408 320.959 607.073 320.314 606.919 319.598L610.417 319.127C610.524 319.4 610.693 319.654 610.923 319.891C611.154 320.128 611.459 320.317 611.838 320.459C612.223 320.607 612.69 320.681 613.241 320.681C614.063 320.681 614.741 320.48 615.274 320.077C615.812 319.681 616.081 319.015 616.081 318.08V315.585H615.922C615.756 315.964 615.507 316.322 615.176 316.659C614.844 316.997 614.418 317.272 613.897 317.485C613.377 317.698 612.755 317.805 612.033 317.805C611.009 317.805 610.077 317.568 609.237 317.094C608.402 316.615 607.736 315.884 607.239 314.902C606.748 313.913 606.502 312.664 606.502 311.155C606.502 309.61 606.754 308.32 607.257 307.284C607.76 306.249 608.429 305.473 609.263 304.958C610.104 304.444 611.024 304.186 612.024 304.186C612.788 304.186 613.427 304.316 613.942 304.577C614.457 304.831 614.871 305.151 615.185 305.536C615.504 305.914 615.75 306.287 615.922 306.654H616.064V304.364H619.819V318.133C619.819 319.293 619.535 320.264 618.967 321.045C618.399 321.826 617.611 322.412 616.605 322.803C615.605 323.199 614.454 323.398 613.152 323.398ZM613.232 314.964C613.841 314.964 614.356 314.813 614.776 314.511C615.203 314.203 615.528 313.765 615.753 313.197C615.984 312.623 616.099 311.936 616.099 311.137C616.099 310.338 615.987 309.646 615.762 309.06C615.537 308.468 615.211 308.009 614.785 307.684C614.359 307.358 613.841 307.196 613.232 307.196C612.61 307.196 612.086 307.364 611.66 307.702C611.234 308.033 610.912 308.495 610.693 309.087C610.474 309.679 610.364 310.362 610.364 311.137C610.364 311.925 610.474 312.605 610.693 313.179C610.917 313.748 611.24 314.188 611.66 314.502C612.086 314.81 612.61 314.964 613.232 314.964ZM626.611 299.818V318H622.829V299.818H626.611ZM635.855 318.266C634.452 318.266 633.244 317.982 632.232 317.414C631.226 316.84 630.451 316.029 629.906 314.982C629.362 313.928 629.09 312.682 629.09 311.244C629.09 309.841 629.362 308.61 629.906 307.551C630.451 306.491 631.217 305.666 632.206 305.074C633.2 304.482 634.366 304.186 635.704 304.186C636.603 304.186 637.441 304.331 638.216 304.621C638.997 304.905 639.678 305.334 640.258 305.908C640.844 306.482 641.3 307.205 641.625 308.075C641.951 308.939 642.113 309.951 642.113 311.111V312.15H630.599V309.806H638.553C638.553 309.261 638.435 308.779 638.198 308.359C637.962 307.938 637.633 307.61 637.213 307.373C636.799 307.131 636.316 307.009 635.766 307.009C635.192 307.009 634.683 307.142 634.239 307.409C633.801 307.669 633.458 308.021 633.209 308.465C632.96 308.903 632.833 309.391 632.827 309.93V312.158C632.827 312.833 632.952 313.416 633.2 313.907C633.455 314.399 633.813 314.777 634.274 315.044C634.736 315.31 635.283 315.443 635.917 315.443C636.337 315.443 636.722 315.384 637.071 315.266C637.42 315.147 637.719 314.97 637.968 314.733C638.216 314.496 638.405 314.206 638.536 313.863L642.034 314.094C641.856 314.934 641.492 315.668 640.942 316.295C640.397 316.917 639.693 317.402 638.829 317.751C637.97 318.095 636.979 318.266 635.855 318.266Z" fill="white"/>
</g>
<defs>
<filter id="filter0_ddd_3_2" x="147.909" y="145.13" width="197.092" height="110.119" filterUnits="userSpaceOnUse" color-interpolation-filters="sRGB">
<feFlood flood-opacity="0" result="BackgroundImageFix"/>
<feColorMatrix in="SourceAlpha" type="matrix" values="0 0 0 0 0 0 0 0 0 0 0 0 0 0 0 0 0 0 127 0" result="hardAlpha"/>
<feOffset dy="4"/>
<feGaussianBlur stdDeviation="2"/>
<feComposite in2="hardAlpha" operator="out"/>
<feColorMatrix type="matrix" values="0 0 0 0 0 0 0 0 0 0 0 0 0 0 0 0 0 0 0.25 0"/>
<feBlend mode="normal" in2="BackgroundImageFix" result="effect1_dropShadow_3_2"/>
<feColorMatrix in="SourceAlpha" type="matrix" values="0 0 0 0 0 0 0 0 0 0 0 0 0 0 0 0 0 0 127 0" result="hardAlpha"/>
<feOffset dy="4"/>
<feGaussianBlur stdDeviation="2"/>
<feComposite in2="hardAlpha" operator="out"/>
<feColorMatrix type="matrix" values="0 0 0 0 0 0 0 0 0 0 0 0 0 0 0 0 0 0 0.25 0"/>
<feBlend mode="normal" in2="effect1_dropShadow_3_2" result="effect2_dropShadow_3_2"/>
<feColorMatrix in="SourceAlpha" type="matrix" values="0 0 0 0 0 0 0 0 0 0 0 0 0 0 0 0 0 0 127 0" result="hardAlpha"/>
<feOffset dy="4"/>
<feGaussianBlur stdDeviation="2"/>
<feComposite in2="hardAlpha" operator="out"/>
<feColorMatrix type="matrix" values="0 0 0 0 0 0 0 0 0 0 0 0 0 0 0 0 0 0 0.25 0"/>
<feBlend mode="normal" in2="effect2_dropShadow_3_2" result="effect3_dropShadow_3_2"/>
<feBlend mode="normal" in="SourceGraphic" in2="effect3_dropShadow_3_2" result="shape"/>
</filter>
<filter id="filter1_ddd_3_2" x="341.59" y="151.5" width="44.8198" height="103.5" filterUnits="userSpaceOnUse" color-interpolation-filters="sRGB">
<feFlood flood-opacity="0" result="BackgroundImageFix"/>
<feColorMatrix in="SourceAlpha" type="matrix" values="0 0 0 0 0 0 0 0 0 0 0 0 0 0 0 0 0 0 127 0" result="hardAlpha"/>
<feOffset dy="4"/>
<feGaussianBlur stdDeviation="2"/>
<feComposite in2="hardAlpha" operator="out"/>
<feColorMatrix type="matrix" values="0 0 0 0 0 0 0 0 0 0 0 0 0 0 0 0 0 0 0.25 0"/>
<feBlend mode="normal" in2="BackgroundImageFix" result="effect1_dropShadow_3_2"/>
<feColorMatrix in="SourceAlpha" type="matrix" values="0 0 0 0 0 0 0 0 0 0 0 0 0 0 0 0 0 0 127 0" result="hardAlpha"/>
<feOffset dy="4"/>
<feGaussianBlur stdDeviation="2"/>
<feComposite in2="hardAlpha" operator="out"/>
<feColorMatrix type="matrix" values="0 0 0 0 0 0 0 0 0 0 0 0 0 0 0 0 0 0 0.25 0"/>
<feBlend mode="normal" in2="effect1_dropShadow_3_2" result="effect2_dropShadow_3_2"/>
<feColorMatrix in="SourceAlpha" type="matrix" values="0 0 0 0 0 0 0 0 0 0 0 0 0 0 0 0 0 0 127 0" result="hardAlpha"/>
<feOffset dy="4"/>
<feGaussianBlur stdDeviation="2"/>
<feComposite in2="hardAlpha" operator="out"/>
<feColorMatrix type="matrix" values="0 0 0 0 0 0 0 0 0 0 0 0 0 0 0 0 0 0 0.25 0"/>
<feBlend mode="normal" in2="effect2_dropShadow_3_2" result="effect3_dropShadow_3_2"/>
<feBlend mode="normal" in="SourceGraphic" in2="effect3_dropShadow_3_2" result="shape"/>
</filter>
<filter id="filter2_ddd_3_2" x="391.499" y="144.724" width="186.654" height="110.494" filterUnits="userSpaceOnUse" color-interpolation-filters="sRGB">
<feFlood flood-opacity="0" result="BackgroundImageFix"/>
<feColorMatrix in="SourceAlpha" type="matrix" values="0 0 0 0 0 0 0 0 0 0 0 0 0 0 0 0 0 0 127 0" result="hardAlpha"/>
<feOffset dy="4"/>
<feGaussianBlur stdDeviation="2"/>
<feComposite in2="hardAlpha" operator="out"/>
<feColorMatrix type="matrix" values="0 0 0 0 0 0 0 0 0 0 0 0 0 0 0 0 0 0 0.25 0"/>
<feBlend mode="normal" in2="BackgroundImageFix" result="effect1_dropShadow_3_2"/>
<feColorMatrix in="SourceAlpha" type="matrix" values="0 0 0 0 0 0 0 0 0 0 0 0 0 0 0 0 0 0 127 0" result="hardAlpha"/>
<feOffset dy="4"/>
<feGaussianBlur stdDeviation="2"/>
<feComposite in2="hardAlpha" operator="out"/>
<feColorMatrix type="matrix" values="0 0 0 0 0 0 0 0 0 0 0 0 0 0 0 0 0 0 0.25 0"/>
<feBlend mode="normal" in2="effect1_dropShadow_3_2" result="effect2_dropShadow_3_2"/>
<feColorMatrix in="SourceAlpha" type="matrix" values="0 0 0 0 0 0 0 0 0 0 0 0 0 0 0 0 0 0 127 0" result="hardAlpha"/>
<feOffset dy="4"/>
<feGaussianBlur stdDeviation="2"/>
<feComposite in2="hardAlpha" operator="out"/>
<feColorMatrix type="matrix" values="0 0 0 0 0 0 0 0 0 0 0 0 0 0 0 0 0 0 0.25 0"/>
<feBlend mode="normal" in2="effect2_dropShadow_3_2" result="effect3_dropShadow_3_2"/>
<feBlend mode="normal" in="SourceGraphic" in2="effect3_dropShadow_3_2" result="shape"/>
</filter>
<filter id="filter3_dddd_3_2" x="517.508" y="299.818" width="128.605" height="31.5795" filterUnits="userSpaceOnUse" color-interpolation-filters="sRGB">
<feFlood flood-opacity="0" result="BackgroundImageFix"/>
<feColorMatrix in="SourceAlpha" type="matrix" values="0 0 0 0 0 0 0 0 0 0 0 0 0 0 0 0 0 0 127 0" result="hardAlpha"/>
<feOffset dy="4"/>
<feGaussianBlur stdDeviation="2"/>
<feComposite in2="hardAlpha" operator="out"/>
<feColorMatrix type="matrix" values="0 0 0 0 0 0 0 0 0 0 0 0 0 0 0 0 0 0 0.25 0"/>
<feBlend mode="normal" in2="BackgroundImageFix" result="effect1_dropShadow_3_2"/>
<feColorMatrix in="SourceAlpha" type="matrix" values="0 0 0 0 0 0 0 0 0 0 0 0 0 0 0 0 0 0 127 0" result="hardAlpha"/>
<feOffset dy="4"/>
<feGaussianBlur stdDeviation="2"/>
<feComposite in2="hardAlpha" operator="out"/>
<feColorMatrix type="matrix" values="0 0 0 0 0 0 0 0 0 0 0 0 0 0 0 0 0 0 0.25 0"/>
<feBlend mode="normal" in2="effect1_dropShadow_3_2" result="effect2_dropShadow_3_2"/>
<feColorMatrix in="SourceAlpha" type="matrix" values="0 0 0 0 0 0 0 0 0 0 0 0 0 0 0 0 0 0 127 0" result="hardAlpha"/>
<feOffset dy="4"/>
<feGaussianBlur stdDeviation="2"/>
<feComposite in2="hardAlpha" operator="out"/>
<feColorMatrix type="matrix" values="0 0 0 0 0 0 0 0 0 0 0 0 0 0 0 0 0 0 0.25 0"/>
<feBlend mode="normal" in2="effect2_dropShadow_3_2" result="effect3_dropShadow_3_2"/>
<feColorMatrix in="SourceAlpha" type="matrix" values="0 0 0 0 0 0 0 0 0 0 0 0 0 0 0 0 0 0 127 0" result="hardAlpha"/>
<feOffset dy="4"/>
<feGaussianBlur stdDeviation="2"/>
<feComposite in2="hardAlpha" operator="out"/>
<feColorMatrix type="matrix" values="0 0 0 0 0 0 0 0 0 0 0 0 0 0 0 0 0 0 0.25 0"/>
<feBlend mode="normal" in2="effect3_dropShadow_3_2" result="effect4_dropShadow_3_2"/>
<feBlend mode="normal" in="SourceGraphic" in2="effect4_dropShadow_3_2" result="shape"/>
</filter>
<linearGradient id="paint0_linear_3_2" x1="366.5" y1="31" x2="366.5" y2="150" gradientUnits="userSpaceOnUse">
<stop stop-color="#FB0101"/>
<stop offset="0.524875" stop-color="#C10184"/>
<stop offset="1" stop-color="#8D01FB"/>
</linearGradient>
<linearGradient id="paint1_linear_3_2" x1="135" y1="249" x2="135" y2="368" gradientUnits="userSpaceOnUse">
<stop stop-color="#0500FF"/>
<stop offset="1" stop-color="#009217"/>
</linearGradient>
<linearGradient id="paint2_linear_3_2" x1="581.5" y1="249" x2="581.5" y2="368" gradientUnits="userSpaceOnUse">
<stop stop-color="#D0520A"/>
<stop offset="1" stop-color="#92D02B"/>
</linearGradient>
<linearGradient id="paint3_linear_3_2" x1="363.5" y1="251" x2="363.5" y2="394" gradientUnits="userSpaceOnUse">
<stop stop-color="#FF007A"/>
<stop offset="1" stop-color="#0418C8"/>
<stop offset="1" stop-color="#5710AE"/>
</linearGradient>
</defs>
</svg>
