<svg width="750" height="414" viewBox="0 0 750 414" fill="none" xmlns="http://www.w3.org/2000/svg">
<rect width="750" height="414" rx="23" fill="#F3DADA"/>
<rect x="277.5" y="33.5" width="195" height="346" rx="13.5" fill="#D9D9D9" stroke="black"/>
<path d="M291 33.5H459C466.456 33.5 472.5 39.5442 472.5 47V69.5H277.5V47C277.5 39.5442 283.544 33.5 291 33.5Z" fill="#0B6C69" stroke="black"/>
<path d="M277.5 343.5H472.5V366C472.5 373.456 466.456 379.5 459 379.5H291C283.544 379.5 277.5 373.456 277.5 366V343.5Z" fill="#0B6C69" stroke="black"/>
<rect x="277.5" y="307.5" width="195" height="36" fill="#0B6C69" stroke="black"/>
<rect x="277.5" y="271.5" width="195" height="36" fill="#0B6C69" stroke="black"/>
<path d="M358.709 282.2H360.557V286.204H363.721V282.2H365.569V292H363.721V287.968H360.557V292H358.709V282.2ZM369.074 289.102C369.083 289.307 369.13 289.499 369.214 289.676C369.307 289.844 369.428 289.993 369.578 290.124C369.736 290.245 369.914 290.343 370.11 290.418C370.315 290.483 370.53 290.516 370.754 290.516C371.192 290.516 371.528 290.441 371.762 290.292C371.995 290.133 372.163 289.947 372.266 289.732L373.778 290.572C373.694 290.749 373.577 290.936 373.428 291.132C373.278 291.319 373.082 291.491 372.84 291.65C372.606 291.809 372.317 291.939 371.972 292.042C371.636 292.145 371.239 292.196 370.782 292.196C370.259 292.196 369.783 292.112 369.354 291.944C368.924 291.776 368.551 291.533 368.234 291.216C367.926 290.899 367.683 290.511 367.506 290.054C367.338 289.597 367.254 289.079 367.254 288.5V288.416C367.254 287.884 367.342 287.399 367.52 286.96C367.706 286.521 367.958 286.148 368.276 285.84C368.593 285.532 368.962 285.294 369.382 285.126C369.811 284.949 370.268 284.86 370.754 284.86C371.351 284.86 371.864 284.967 372.294 285.182C372.723 285.387 373.078 285.653 373.358 285.98C373.638 286.297 373.843 286.652 373.974 287.044C374.104 287.427 374.17 287.8 374.17 288.164V289.102H369.074ZM370.74 286.456C370.292 286.456 369.928 286.573 369.648 286.806C369.368 287.03 369.186 287.291 369.102 287.59H372.378C372.322 287.263 372.144 286.993 371.846 286.778C371.556 286.563 371.188 286.456 370.74 286.456ZM380.586 290.992C380.399 291.431 380.138 291.743 379.802 291.93C379.466 292.107 379.074 292.196 378.626 292.196C378.206 292.196 377.809 292.117 377.436 291.958C377.072 291.799 376.75 291.566 376.47 291.258C376.19 290.95 375.966 290.577 375.798 290.138C375.639 289.699 375.56 289.2 375.56 288.64V288.416C375.56 287.865 375.639 287.371 375.798 286.932C375.957 286.493 376.171 286.12 376.442 285.812C376.713 285.504 377.025 285.271 377.38 285.112C377.744 284.944 378.131 284.86 378.542 284.86C379.037 284.86 379.433 284.944 379.732 285.112C380.04 285.28 380.283 285.541 380.46 285.896H380.712V285.056H382.476V289.9C382.476 290.18 382.602 290.32 382.854 290.32H383.12V292H381.916C381.599 292 381.337 291.907 381.132 291.72C380.936 291.533 380.838 291.291 380.838 290.992H380.586ZM379.018 290.516C379.531 290.516 379.942 290.348 380.25 290.012C380.558 289.667 380.712 289.2 380.712 288.612V288.444C380.712 287.856 380.558 287.394 380.25 287.058C379.942 286.713 379.531 286.54 379.018 286.54C378.505 286.54 378.094 286.713 377.786 287.058C377.478 287.394 377.324 287.856 377.324 288.444V288.612C377.324 289.2 377.478 289.667 377.786 290.012C378.094 290.348 378.505 290.516 379.018 290.516ZM386.064 294.8H384.3V285.056H386.064V286.064H386.316C386.503 285.681 386.774 285.387 387.128 285.182C387.483 284.967 387.936 284.86 388.486 284.86C388.897 284.86 389.284 284.939 389.648 285.098C390.022 285.257 390.344 285.49 390.614 285.798C390.894 286.097 391.114 286.465 391.272 286.904C391.44 287.343 391.524 287.842 391.524 288.402V288.654C391.524 289.223 391.445 289.727 391.286 290.166C391.128 290.605 390.913 290.978 390.642 291.286C390.372 291.585 390.05 291.813 389.676 291.972C389.312 292.121 388.916 292.196 388.486 292.196C388.169 292.196 387.894 292.163 387.66 292.098C387.427 292.033 387.222 291.944 387.044 291.832C386.876 291.72 386.732 291.594 386.61 291.454C386.498 291.305 386.4 291.151 386.316 290.992H386.064V294.8ZM387.912 290.516C388.463 290.516 388.906 290.348 389.242 290.012C389.588 289.667 389.76 289.2 389.76 288.612V288.444C389.76 287.856 389.588 287.394 389.242 287.058C388.906 286.713 388.463 286.54 387.912 286.54C387.362 286.54 386.914 286.717 386.568 287.072C386.232 287.417 386.064 287.875 386.064 288.444V288.612C386.064 289.181 386.232 289.643 386.568 289.998C386.914 290.343 387.362 290.516 387.912 290.516Z" fill="white"/>
<path d="M358.709 282.2H360.557V286.204H363.721V282.2H365.569V292H363.721V287.968H360.557V292H358.709V282.2ZM369.074 289.102C369.083 289.307 369.13 289.499 369.214 289.676C369.307 289.844 369.428 289.993 369.578 290.124C369.736 290.245 369.914 290.343 370.11 290.418C370.315 290.483 370.53 290.516 370.754 290.516C371.192 290.516 371.528 290.441 371.762 290.292C371.995 290.133 372.163 289.947 372.266 289.732L373.778 290.572C373.694 290.749 373.577 290.936 373.428 291.132C373.278 291.319 373.082 291.491 372.84 291.65C372.606 291.809 372.317 291.939 371.972 292.042C371.636 292.145 371.239 292.196 370.782 292.196C370.259 292.196 369.783 292.112 369.354 291.944C368.924 291.776 368.551 291.533 368.234 291.216C367.926 290.899 367.683 290.511 367.506 290.054C367.338 289.597 367.254 289.079 367.254 288.5V288.416C367.254 287.884 367.342 287.399 367.52 286.96C367.706 286.521 367.958 286.148 368.276 285.84C368.593 285.532 368.962 285.294 369.382 285.126C369.811 284.949 370.268 284.86 370.754 284.86C371.351 284.86 371.864 284.967 372.294 285.182C372.723 285.387 373.078 285.653 373.358 285.98C373.638 286.297 373.843 286.652 373.974 287.044C374.104 287.427 374.17 287.8 374.17 288.164V289.102H369.074ZM370.74 286.456C370.292 286.456 369.928 286.573 369.648 286.806C369.368 287.03 369.186 287.291 369.102 287.59H372.378C372.322 287.263 372.144 286.993 371.846 286.778C371.556 286.563 371.188 286.456 370.74 286.456ZM380.586 290.992C380.399 291.431 380.138 291.743 379.802 291.93C379.466 292.107 379.074 292.196 378.626 292.196C378.206 292.196 377.809 292.117 377.436 291.958C377.072 291.799 376.75 291.566 376.47 291.258C376.19 290.95 375.966 290.577 375.798 290.138C375.639 289.699 375.56 289.2 375.56 288.64V288.416C375.56 287.865 375.639 287.371 375.798 286.932C375.957 286.493 376.171 286.12 376.442 285.812C376.713 285.504 377.025 285.271 377.38 285.112C377.744 284.944 378.131 284.86 378.542 284.86C379.037 284.86 379.433 284.944 379.732 285.112C380.04 285.28 380.283 285.541 380.46 285.896H380.712V285.056H382.476V289.9C382.476 290.18 382.602 290.32 382.854 290.32H383.12V292H381.916C381.599 292 381.337 291.907 381.132 291.72C380.936 291.533 380.838 291.291 380.838 290.992H380.586ZM379.018 290.516C379.531 290.516 379.942 290.348 380.25 290.012C380.558 289.667 380.712 289.2 380.712 288.612V288.444C380.712 287.856 380.558 287.394 380.25 287.058C379.942 286.713 379.531 286.54 379.018 286.54C378.505 286.54 378.094 286.713 377.786 287.058C377.478 287.394 377.324 287.856 377.324 288.444V288.612C377.324 289.2 377.478 289.667 377.786 290.012C378.094 290.348 378.505 290.516 379.018 290.516ZM386.064 294.8H384.3V285.056H386.064V286.064H386.316C386.503 285.681 386.774 285.387 387.128 285.182C387.483 284.967 387.936 284.86 388.486 284.86C388.897 284.86 389.284 284.939 389.648 285.098C390.022 285.257 390.344 285.49 390.614 285.798C390.894 286.097 391.114 286.465 391.272 286.904C391.44 287.343 391.524 287.842 391.524 288.402V288.654C391.524 289.223 391.445 289.727 391.286 290.166C391.128 290.605 390.913 290.978 390.642 291.286C390.372 291.585 390.05 291.813 389.676 291.972C389.312 292.121 388.916 292.196 388.486 292.196C388.169 292.196 387.894 292.163 387.66 292.098C387.427 292.033 387.222 291.944 387.044 291.832C386.876 291.72 386.732 291.594 386.61 291.454C386.498 291.305 386.4 291.151 386.316 290.992H386.064V294.8ZM387.912 290.516C388.463 290.516 388.906 290.348 389.242 290.012C389.588 289.667 389.76 289.2 389.76 288.612V288.444C389.76 287.856 389.588 287.394 389.242 287.058C388.906 286.713 388.463 286.54 387.912 286.54C387.362 286.54 386.914 286.717 386.568 287.072C386.232 287.417 386.064 287.875 386.064 288.444V288.612C386.064 289.181 386.232 289.643 386.568 289.998C386.914 290.343 387.362 290.516 387.912 290.516Z" fill="white"/>
<path d="M358.499 322.2H362.055C363.269 322.2 364.169 322.485 364.757 323.054C365.345 323.614 365.639 324.487 365.639 325.672V328.528C365.639 329.713 365.345 330.591 364.757 331.16C364.169 331.72 363.269 332 362.055 332H358.499V330.222H359.423V323.964H358.499V322.2ZM362.055 330.236C362.699 330.236 363.147 330.087 363.399 329.788C363.661 329.48 363.791 329.004 363.791 328.36V325.672C363.791 325.112 363.661 324.687 363.399 324.398C363.147 324.109 362.699 323.964 362.055 323.964H361.271V330.236H362.055ZM372.014 330.992C371.827 331.431 371.566 331.743 371.23 331.93C370.894 332.107 370.502 332.196 370.054 332.196C369.634 332.196 369.237 332.117 368.864 331.958C368.5 331.799 368.178 331.566 367.898 331.258C367.618 330.95 367.394 330.577 367.226 330.138C367.067 329.699 366.988 329.2 366.988 328.64V328.416C366.988 327.865 367.067 327.371 367.226 326.932C367.384 326.493 367.599 326.12 367.87 325.812C368.14 325.504 368.453 325.271 368.808 325.112C369.172 324.944 369.559 324.86 369.97 324.86C370.464 324.86 370.861 324.944 371.16 325.112C371.468 325.28 371.71 325.541 371.888 325.896H372.14V325.056H373.904V329.9C373.904 330.18 374.03 330.32 374.282 330.32H374.548V332H373.344C373.026 332 372.765 331.907 372.56 331.72C372.364 331.533 372.266 331.291 372.266 330.992H372.014ZM370.446 330.516C370.959 330.516 371.37 330.348 371.678 330.012C371.986 329.667 372.14 329.2 372.14 328.612V328.444C372.14 327.856 371.986 327.394 371.678 327.058C371.37 326.713 370.959 326.54 370.446 326.54C369.932 326.54 369.522 326.713 369.214 327.058C368.906 327.394 368.752 327.856 368.752 328.444V328.612C368.752 329.2 368.906 329.667 369.214 330.012C369.522 330.348 369.932 330.516 370.446 330.516ZM375.896 325.056H377.954V322.2H379.718V325.056H382.224V326.736H379.718V329.9C379.718 330.18 379.844 330.32 380.096 330.32H381.972V332H379.032C378.715 332 378.453 331.897 378.248 331.692C378.052 331.487 377.954 331.225 377.954 330.908V326.736H375.896V325.056ZM389.158 330.992C388.972 331.431 388.71 331.743 388.374 331.93C388.038 332.107 387.646 332.196 387.198 332.196C386.778 332.196 386.382 332.117 386.008 331.958C385.644 331.799 385.322 331.566 385.042 331.258C384.762 330.95 384.538 330.577 384.37 330.138C384.212 329.699 384.132 329.2 384.132 328.64V328.416C384.132 327.865 384.212 327.371 384.37 326.932C384.529 326.493 384.744 326.12 385.014 325.812C385.285 325.504 385.598 325.271 385.952 325.112C386.316 324.944 386.704 324.86 387.114 324.86C387.609 324.86 388.006 324.944 388.304 325.112C388.612 325.28 388.855 325.541 389.032 325.896H389.284V325.056H391.048V329.9C391.048 330.18 391.174 330.32 391.426 330.32H391.692V332H390.488C390.171 332 389.91 331.907 389.704 331.72C389.508 331.533 389.41 331.291 389.41 330.992H389.158ZM387.59 330.516C388.104 330.516 388.514 330.348 388.822 330.012C389.13 329.667 389.284 329.2 389.284 328.612V328.444C389.284 327.856 389.13 327.394 388.822 327.058C388.514 326.713 388.104 326.54 387.59 326.54C387.077 326.54 386.666 326.713 386.358 327.058C386.05 327.394 385.896 327.856 385.896 328.444V328.612C385.896 329.2 386.05 329.667 386.358 330.012C386.666 330.348 387.077 330.516 387.59 330.516Z" fill="white"/>
<path d="M358.499 322.2H362.055C363.269 322.2 364.169 322.485 364.757 323.054C365.345 323.614 365.639 324.487 365.639 325.672V328.528C365.639 329.713 365.345 330.591 364.757 331.16C364.169 331.72 363.269 332 362.055 332H358.499V330.222H359.423V323.964H358.499V322.2ZM362.055 330.236C362.699 330.236 363.147 330.087 363.399 329.788C363.661 329.48 363.791 329.004 363.791 328.36V325.672C363.791 325.112 363.661 324.687 363.399 324.398C363.147 324.109 362.699 323.964 362.055 323.964H361.271V330.236H362.055ZM372.014 330.992C371.827 331.431 371.566 331.743 371.23 331.93C370.894 332.107 370.502 332.196 370.054 332.196C369.634 332.196 369.237 332.117 368.864 331.958C368.5 331.799 368.178 331.566 367.898 331.258C367.618 330.95 367.394 330.577 367.226 330.138C367.067 329.699 366.988 329.2 366.988 328.64V328.416C366.988 327.865 367.067 327.371 367.226 326.932C367.384 326.493 367.599 326.12 367.87 325.812C368.14 325.504 368.453 325.271 368.808 325.112C369.172 324.944 369.559 324.86 369.97 324.86C370.464 324.86 370.861 324.944 371.16 325.112C371.468 325.28 371.71 325.541 371.888 325.896H372.14V325.056H373.904V329.9C373.904 330.18 374.03 330.32 374.282 330.32H374.548V332H373.344C373.026 332 372.765 331.907 372.56 331.72C372.364 331.533 372.266 331.291 372.266 330.992H372.014ZM370.446 330.516C370.959 330.516 371.37 330.348 371.678 330.012C371.986 329.667 372.14 329.2 372.14 328.612V328.444C372.14 327.856 371.986 327.394 371.678 327.058C371.37 326.713 370.959 326.54 370.446 326.54C369.932 326.54 369.522 326.713 369.214 327.058C368.906 327.394 368.752 327.856 368.752 328.444V328.612C368.752 329.2 368.906 329.667 369.214 330.012C369.522 330.348 369.932 330.516 370.446 330.516ZM375.896 325.056H377.954V322.2H379.718V325.056H382.224V326.736H379.718V329.9C379.718 330.18 379.844 330.32 380.096 330.32H381.972V332H379.032C378.715 332 378.453 331.897 378.248 331.692C378.052 331.487 377.954 331.225 377.954 330.908V326.736H375.896V325.056ZM389.158 330.992C388.972 331.431 388.71 331.743 388.374 331.93C388.038 332.107 387.646 332.196 387.198 332.196C386.778 332.196 386.382 332.117 386.008 331.958C385.644 331.799 385.322 331.566 385.042 331.258C384.762 330.95 384.538 330.577 384.37 330.138C384.212 329.699 384.132 329.2 384.132 328.64V328.416C384.132 327.865 384.212 327.371 384.37 326.932C384.529 326.493 384.744 326.12 385.014 325.812C385.285 325.504 385.598 325.271 385.952 325.112C386.316 324.944 386.704 324.86 387.114 324.86C387.609 324.86 388.006 324.944 388.304 325.112C388.612 325.28 388.855 325.541 389.032 325.896H389.284V325.056H391.048V329.9C391.048 330.18 391.174 330.32 391.426 330.32H391.692V332H390.488C390.171 332 389.91 331.907 389.704 331.72C389.508 331.533 389.41 331.291 389.41 330.992H389.158ZM387.59 330.516C388.104 330.516 388.514 330.348 388.822 330.012C389.13 329.667 389.284 329.2 389.284 328.612V328.444C389.284 327.856 389.13 327.394 388.822 327.058C388.514 326.713 388.104 326.54 387.59 326.54C387.077 326.54 386.666 326.713 386.358 327.058C386.05 327.394 385.896 327.856 385.896 328.444V328.612C385.896 329.2 386.05 329.667 386.358 330.012C386.666 330.348 387.077 330.516 387.59 330.516Z" fill="white"/>
<path d="M358.611 358.2H365.667V359.964H363.063V368H361.215V359.964H358.611V358.2ZM369.074 365.102C369.083 365.307 369.13 365.499 369.214 365.676C369.307 365.844 369.428 365.993 369.578 366.124C369.736 366.245 369.914 366.343 370.11 366.418C370.315 366.483 370.53 366.516 370.754 366.516C371.192 366.516 371.528 366.441 371.762 366.292C371.995 366.133 372.163 365.947 372.266 365.732L373.778 366.572C373.694 366.749 373.577 366.936 373.428 367.132C373.278 367.319 373.082 367.491 372.84 367.65C372.606 367.809 372.317 367.939 371.972 368.042C371.636 368.145 371.239 368.196 370.782 368.196C370.259 368.196 369.783 368.112 369.354 367.944C368.924 367.776 368.551 367.533 368.234 367.216C367.926 366.899 367.683 366.511 367.506 366.054C367.338 365.597 367.254 365.079 367.254 364.5V364.416C367.254 363.884 367.342 363.399 367.52 362.96C367.706 362.521 367.958 362.148 368.276 361.84C368.593 361.532 368.962 361.294 369.382 361.126C369.811 360.949 370.268 360.86 370.754 360.86C371.351 360.86 371.864 360.967 372.294 361.182C372.723 361.387 373.078 361.653 373.358 361.98C373.638 362.297 373.843 362.652 373.974 363.044C374.104 363.427 374.17 363.8 374.17 364.164V365.102H369.074ZM370.74 362.456C370.292 362.456 369.928 362.573 369.648 362.806C369.368 363.03 369.186 363.291 369.102 363.59H372.378C372.322 363.263 372.144 362.993 371.846 362.778C371.556 362.563 371.188 362.456 370.74 362.456ZM380.698 361.056H382.644L380.964 364.318V364.57L382.742 368H380.712L379.41 365.284H379.158L377.856 368H375.826L377.604 364.57V364.318L375.91 361.056H377.87L379.158 363.604H379.41L380.698 361.056ZM384.468 361.056H386.526V358.2H388.29V361.056H390.796V362.736H388.29V365.9C388.29 366.18 388.416 366.32 388.668 366.32H390.544V368H387.604C387.287 368 387.026 367.897 386.82 367.692C386.624 367.487 386.526 367.225 386.526 366.908V362.736H384.468V361.056Z" fill="white"/>
<path d="M358.611 358.2H365.667V359.964H363.063V368H361.215V359.964H358.611V358.2ZM369.074 365.102C369.083 365.307 369.13 365.499 369.214 365.676C369.307 365.844 369.428 365.993 369.578 366.124C369.736 366.245 369.914 366.343 370.11 366.418C370.315 366.483 370.53 366.516 370.754 366.516C371.192 366.516 371.528 366.441 371.762 366.292C371.995 366.133 372.163 365.947 372.266 365.732L373.778 366.572C373.694 366.749 373.577 366.936 373.428 367.132C373.278 367.319 373.082 367.491 372.84 367.65C372.606 367.809 372.317 367.939 371.972 368.042C371.636 368.145 371.239 368.196 370.782 368.196C370.259 368.196 369.783 368.112 369.354 367.944C368.924 367.776 368.551 367.533 368.234 367.216C367.926 366.899 367.683 366.511 367.506 366.054C367.338 365.597 367.254 365.079 367.254 364.5V364.416C367.254 363.884 367.342 363.399 367.52 362.96C367.706 362.521 367.958 362.148 368.276 361.84C368.593 361.532 368.962 361.294 369.382 361.126C369.811 360.949 370.268 360.86 370.754 360.86C371.351 360.86 371.864 360.967 372.294 361.182C372.723 361.387 373.078 361.653 373.358 361.98C373.638 362.297 373.843 362.652 373.974 363.044C374.104 363.427 374.17 363.8 374.17 364.164V365.102H369.074ZM370.74 362.456C370.292 362.456 369.928 362.573 369.648 362.806C369.368 363.03 369.186 363.291 369.102 363.59H372.378C372.322 363.263 372.144 362.993 371.846 362.778C371.556 362.563 371.188 362.456 370.74 362.456ZM380.698 361.056H382.644L380.964 364.318V364.57L382.742 368H380.712L379.41 365.284H379.158L377.856 368H375.826L377.604 364.57V364.318L375.91 361.056H377.87L379.158 363.604H379.41L380.698 361.056ZM384.468 361.056H386.526V358.2H388.29V361.056H390.796V362.736H388.29V365.9C388.29 366.18 388.416 366.32 388.668 366.32H390.544V368H387.604C387.287 368 387.026 367.897 386.82 367.692C386.624 367.487 386.526 367.225 386.526 366.908V362.736H384.468V361.056Z" fill="white"/>
<path d="M359.533 51.196C359.533 50.804 359.379 50.4633 359.071 50.174C358.773 49.8847 358.348 49.74 357.797 49.74C357.331 49.74 356.962 49.838 356.691 50.034C356.421 50.2207 356.285 50.4773 356.285 50.804C356.285 50.972 356.318 51.126 356.383 51.266C356.449 51.3967 356.561 51.518 356.719 51.63C356.887 51.7327 357.102 51.826 357.363 51.91C357.634 51.994 357.975 52.0733 358.385 52.148C359.412 52.3347 360.196 52.6473 360.737 53.086C361.279 53.5247 361.549 54.1733 361.549 55.032V55.2C361.549 55.6573 361.465 56.0727 361.297 56.446C361.139 56.81 360.905 57.1227 360.597 57.384C360.289 57.6453 359.916 57.846 359.477 57.986C359.039 58.126 358.544 58.196 357.993 58.196C357.349 58.196 356.78 58.1073 356.285 57.93C355.8 57.7433 355.394 57.4913 355.067 57.174C354.741 56.8473 354.493 56.4693 354.325 56.04C354.157 55.6013 354.073 55.1253 354.073 54.612V54.192H355.921V54.528C355.921 55.116 356.089 55.5873 356.425 55.942C356.771 56.2873 357.303 56.46 358.021 56.46C358.581 56.46 358.997 56.3387 359.267 56.096C359.538 55.8533 359.673 55.564 359.673 55.228C359.673 55.0693 359.645 54.92 359.589 54.78C359.533 54.6307 359.435 54.5 359.295 54.388C359.155 54.2667 358.964 54.1593 358.721 54.066C358.479 53.9727 358.171 53.8933 357.797 53.828C357.303 53.744 356.85 53.6367 356.439 53.506C356.029 53.366 355.669 53.184 355.361 52.96C355.063 52.736 354.829 52.456 354.661 52.12C354.493 51.784 354.409 51.3733 354.409 50.888V50.804C354.409 50.4027 354.489 50.034 354.647 49.698C354.815 49.3527 355.044 49.054 355.333 48.802C355.632 48.55 355.987 48.354 356.397 48.214C356.817 48.074 357.284 48.004 357.797 48.004C358.376 48.004 358.889 48.088 359.337 48.256C359.785 48.4147 360.159 48.634 360.457 48.914C360.765 49.194 360.994 49.516 361.143 49.88C361.302 50.244 361.381 50.6267 361.381 51.028V51.532H359.533V51.196ZM363.038 51.056H365.096V48.2H366.86V51.056H369.366V52.736H366.86V55.9C366.86 56.18 366.986 56.32 367.238 56.32H369.114V58H366.174C365.856 58 365.595 57.8973 365.39 57.692C365.194 57.4867 365.096 57.2253 365.096 56.908V52.736H363.038V51.056ZM376.3 56.992C376.113 57.4307 375.852 57.7433 375.516 57.93C375.18 58.1073 374.788 58.196 374.34 58.196C373.92 58.196 373.523 58.1167 373.15 57.958C372.786 57.7993 372.464 57.566 372.184 57.258C371.904 56.95 371.68 56.5767 371.512 56.138C371.353 55.6993 371.274 55.2 371.274 54.64V54.416C371.274 53.8653 371.353 53.3707 371.512 52.932C371.671 52.4933 371.885 52.12 372.156 51.812C372.427 51.504 372.739 51.2707 373.094 51.112C373.458 50.944 373.845 50.86 374.256 50.86C374.751 50.86 375.147 50.944 375.446 51.112C375.754 51.28 375.997 51.5413 376.174 51.896H376.426V51.056H378.19V55.9C378.19 56.18 378.316 56.32 378.568 56.32H378.834V58H377.63C377.313 58 377.051 57.9067 376.846 57.72C376.65 57.5333 376.552 57.2907 376.552 56.992H376.3ZM374.732 56.516C375.245 56.516 375.656 56.348 375.964 56.012C376.272 55.6667 376.426 55.2 376.426 54.612V54.444C376.426 53.856 376.272 53.394 375.964 53.058C375.656 52.7127 375.245 52.54 374.732 52.54C374.219 52.54 373.808 52.7127 373.5 53.058C373.192 53.394 373.038 53.856 373.038 54.444V54.612C373.038 55.2 373.192 55.6667 373.5 56.012C373.808 56.348 374.219 56.516 374.732 56.516ZM387.154 55.452C386.995 56.2733 386.617 56.936 386.02 57.44C385.432 57.944 384.643 58.196 383.654 58.196C383.141 58.196 382.66 58.1167 382.212 57.958C381.773 57.7993 381.391 57.5707 381.064 57.272C380.737 56.9733 380.481 56.6047 380.294 56.166C380.107 55.7273 380.014 55.228 380.014 54.668V54.5C380.014 53.94 380.107 53.436 380.294 52.988C380.481 52.54 380.737 52.1573 381.064 51.84C381.4 51.5227 381.787 51.28 382.226 51.112C382.674 50.944 383.15 50.86 383.654 50.86C384.625 50.86 385.409 51.112 386.006 51.616C386.613 52.12 386.995 52.7827 387.154 53.604L385.418 54.052C385.362 53.6413 385.185 53.2867 384.886 52.988C384.587 52.6893 384.167 52.54 383.626 52.54C383.374 52.54 383.136 52.5867 382.912 52.68C382.688 52.7733 382.492 52.9087 382.324 53.086C382.156 53.254 382.021 53.464 381.918 53.716C381.825 53.9587 381.778 54.234 381.778 54.542V54.626C381.778 54.934 381.825 55.2093 381.918 55.452C382.021 55.6853 382.156 55.8813 382.324 56.04C382.492 56.1987 382.688 56.32 382.912 56.404C383.136 56.4787 383.374 56.516 383.626 56.516C384.167 56.516 384.578 56.3807 384.858 56.11C385.147 55.8393 385.334 55.4753 385.418 55.018L387.154 55.452ZM391.274 53.604H391.61L393.458 51.056H395.39V51.14L393.15 54.318V54.57L395.614 57.916V58H393.598L391.61 55.284H391.274V58H389.51V48.2H391.274V53.604Z" fill="white"/>
<path d="M359.533 51.196C359.533 50.804 359.379 50.4633 359.071 50.174C358.773 49.8847 358.348 49.74 357.797 49.74C357.331 49.74 356.962 49.838 356.691 50.034C356.421 50.2207 356.285 50.4773 356.285 50.804C356.285 50.972 356.318 51.126 356.383 51.266C356.449 51.3967 356.561 51.518 356.719 51.63C356.887 51.7327 357.102 51.826 357.363 51.91C357.634 51.994 357.975 52.0733 358.385 52.148C359.412 52.3347 360.196 52.6473 360.737 53.086C361.279 53.5247 361.549 54.1733 361.549 55.032V55.2C361.549 55.6573 361.465 56.0727 361.297 56.446C361.139 56.81 360.905 57.1227 360.597 57.384C360.289 57.6453 359.916 57.846 359.477 57.986C359.039 58.126 358.544 58.196 357.993 58.196C357.349 58.196 356.78 58.1073 356.285 57.93C355.8 57.7433 355.394 57.4913 355.067 57.174C354.741 56.8473 354.493 56.4693 354.325 56.04C354.157 55.6013 354.073 55.1253 354.073 54.612V54.192H355.921V54.528C355.921 55.116 356.089 55.5873 356.425 55.942C356.771 56.2873 357.303 56.46 358.021 56.46C358.581 56.46 358.997 56.3387 359.267 56.096C359.538 55.8533 359.673 55.564 359.673 55.228C359.673 55.0693 359.645 54.92 359.589 54.78C359.533 54.6307 359.435 54.5 359.295 54.388C359.155 54.2667 358.964 54.1593 358.721 54.066C358.479 53.9727 358.171 53.8933 357.797 53.828C357.303 53.744 356.85 53.6367 356.439 53.506C356.029 53.366 355.669 53.184 355.361 52.96C355.063 52.736 354.829 52.456 354.661 52.12C354.493 51.784 354.409 51.3733 354.409 50.888V50.804C354.409 50.4027 354.489 50.034 354.647 49.698C354.815 49.3527 355.044 49.054 355.333 48.802C355.632 48.55 355.987 48.354 356.397 48.214C356.817 48.074 357.284 48.004 357.797 48.004C358.376 48.004 358.889 48.088 359.337 48.256C359.785 48.4147 360.159 48.634 360.457 48.914C360.765 49.194 360.994 49.516 361.143 49.88C361.302 50.244 361.381 50.6267 361.381 51.028V51.532H359.533V51.196ZM363.038 51.056H365.096V48.2H366.86V51.056H369.366V52.736H366.86V55.9C366.86 56.18 366.986 56.32 367.238 56.32H369.114V58H366.174C365.856 58 365.595 57.8973 365.39 57.692C365.194 57.4867 365.096 57.2253 365.096 56.908V52.736H363.038V51.056ZM376.3 56.992C376.113 57.4307 375.852 57.7433 375.516 57.93C375.18 58.1073 374.788 58.196 374.34 58.196C373.92 58.196 373.523 58.1167 373.15 57.958C372.786 57.7993 372.464 57.566 372.184 57.258C371.904 56.95 371.68 56.5767 371.512 56.138C371.353 55.6993 371.274 55.2 371.274 54.64V54.416C371.274 53.8653 371.353 53.3707 371.512 52.932C371.671 52.4933 371.885 52.12 372.156 51.812C372.427 51.504 372.739 51.2707 373.094 51.112C373.458 50.944 373.845 50.86 374.256 50.86C374.751 50.86 375.147 50.944 375.446 51.112C375.754 51.28 375.997 51.5413 376.174 51.896H376.426V51.056H378.19V55.9C378.19 56.18 378.316 56.32 378.568 56.32H378.834V58H377.63C377.313 58 377.051 57.9067 376.846 57.72C376.65 57.5333 376.552 57.2907 376.552 56.992H376.3ZM374.732 56.516C375.245 56.516 375.656 56.348 375.964 56.012C376.272 55.6667 376.426 55.2 376.426 54.612V54.444C376.426 53.856 376.272 53.394 375.964 53.058C375.656 52.7127 375.245 52.54 374.732 52.54C374.219 52.54 373.808 52.7127 373.5 53.058C373.192 53.394 373.038 53.856 373.038 54.444V54.612C373.038 55.2 373.192 55.6667 373.5 56.012C373.808 56.348 374.219 56.516 374.732 56.516ZM387.154 55.452C386.995 56.2733 386.617 56.936 386.02 57.44C385.432 57.944 384.643 58.196 383.654 58.196C383.141 58.196 382.66 58.1167 382.212 57.958C381.773 57.7993 381.391 57.5707 381.064 57.272C380.737 56.9733 380.481 56.6047 380.294 56.166C380.107 55.7273 380.014 55.228 380.014 54.668V54.5C380.014 53.94 380.107 53.436 380.294 52.988C380.481 52.54 380.737 52.1573 381.064 51.84C381.4 51.5227 381.787 51.28 382.226 51.112C382.674 50.944 383.15 50.86 383.654 50.86C384.625 50.86 385.409 51.112 386.006 51.616C386.613 52.12 386.995 52.7827 387.154 53.604L385.418 54.052C385.362 53.6413 385.185 53.2867 384.886 52.988C384.587 52.6893 384.167 52.54 383.626 52.54C383.374 52.54 383.136 52.5867 382.912 52.68C382.688 52.7733 382.492 52.9087 382.324 53.086C382.156 53.254 382.021 53.464 381.918 53.716C381.825 53.9587 381.778 54.234 381.778 54.542V54.626C381.778 54.934 381.825 55.2093 381.918 55.452C382.021 55.6853 382.156 55.8813 382.324 56.04C382.492 56.1987 382.688 56.32 382.912 56.404C383.136 56.4787 383.374 56.516 383.626 56.516C384.167 56.516 384.578 56.3807 384.858 56.11C385.147 55.8393 385.334 55.4753 385.418 55.018L387.154 55.452ZM391.274 53.604H391.61L393.458 51.056H395.39V51.14L393.15 54.318V54.57L395.614 57.916V58H393.598L391.61 55.284H391.274V58H389.51V48.2H391.274V53.604Z" fill="white"/>
<path d="M373.232 126.768C374.209 127.744 375.791 127.744 376.768 126.768L392.678 110.858C393.654 109.882 393.654 108.299 392.678 107.322C391.701 106.346 390.118 106.346 389.142 107.322L375 121.464L360.858 107.322C359.882 106.346 358.299 106.346 357.322 107.322C356.346 108.299 356.346 109.882 357.322 110.858L373.232 126.768ZM372.5 70L372.5 125L377.5 125L377.5 70L372.5 70Z" fill="#FB0101"/>
<path d="M376.768 214.232C375.791 213.256 374.209 213.256 373.232 214.232L357.322 230.142C356.346 231.118 356.346 232.701 357.322 233.678C358.299 234.654 359.882 234.654 360.858 233.678L375 219.536L389.142 233.678C390.118 234.654 391.701 234.654 392.678 233.678C393.654 232.701 393.654 231.118 392.678 230.142L376.768 214.232ZM377.5 271L377.5 216L372.5 216L372.5 271L377.5 271Z" fill="#882020"/>
<path d="M245.047 231.706L245.047 230.175L252.724 227.297L245.047 224.426L245.047 222.895L255 226.695L255 227.912L245.047 231.706ZM245.047 232.403L245.047 230.947L251.691 230.694L255 230.694L255 232.403L245.047 232.403ZM245.047 223.653L245.047 222.19L255 222.19L255 223.906L251.691 223.906L245.047 223.653ZM255.137 217.057C255.137 217.604 255.048 218.098 254.87 218.54C254.688 218.978 254.435 219.351 254.111 219.661C253.788 219.966 253.407 220.201 252.97 220.365C252.532 220.529 252.061 220.611 251.555 220.611L251.281 220.611C250.702 220.611 250.178 220.527 249.709 220.358C249.24 220.19 248.839 219.955 248.506 219.654C248.169 219.354 247.911 218.998 247.733 218.588C247.556 218.178 247.467 217.733 247.467 217.255C247.467 216.726 247.556 216.264 247.733 215.867C247.911 215.471 248.162 215.143 248.485 214.883C248.804 214.618 249.185 214.423 249.627 214.295C250.069 214.163 250.557 214.097 251.09 214.097L251.794 214.097L251.794 219.812L250.611 219.812L250.611 215.724L250.481 215.724C250.185 215.733 249.907 215.792 249.647 215.901C249.388 216.006 249.178 216.168 249.019 216.387C248.859 216.605 248.779 216.897 248.779 217.262C248.779 217.535 248.839 217.779 248.957 217.993C249.071 218.203 249.237 218.378 249.456 218.52C249.675 218.661 249.939 218.77 250.249 218.848C250.554 218.921 250.898 218.957 251.281 218.957L251.555 218.957C251.878 218.957 252.179 218.914 252.457 218.827C252.73 218.736 252.97 218.604 253.175 218.431C253.38 218.257 253.542 218.048 253.66 217.802C253.774 217.556 253.831 217.275 253.831 216.961C253.831 216.564 253.751 216.211 253.592 215.901C253.432 215.591 253.207 215.323 252.915 215.095L253.756 214.227C253.988 214.386 254.212 214.593 254.426 214.849C254.635 215.104 254.806 215.416 254.938 215.785C255.071 216.15 255.137 216.574 255.137 217.057ZM249.107 211.164L255 211.164L255 212.812L247.604 212.812L247.604 211.26L249.107 211.164ZM251.028 211.431L251.021 211.991C250.511 211.991 250.039 211.927 249.606 211.8C249.174 211.672 248.798 211.485 248.479 211.239C248.155 210.993 247.907 210.688 247.733 210.323C247.556 209.954 247.467 209.528 247.467 209.045C247.467 208.708 247.517 208.4 247.617 208.122C247.713 207.84 247.866 207.596 248.075 207.391C248.285 207.181 248.554 207.021 248.882 206.912C249.21 206.798 249.606 206.741 250.071 206.741L255 206.741L255 208.389L250.215 208.389C249.855 208.389 249.572 208.443 249.367 208.553C249.162 208.658 249.016 208.81 248.93 209.011C248.839 209.207 248.793 209.441 248.793 209.715C248.793 210.025 248.852 210.289 248.971 210.508C249.089 210.722 249.251 210.897 249.456 211.034C249.661 211.171 249.898 211.271 250.167 211.335C250.436 211.399 250.723 211.431 251.028 211.431ZM250.591 206.844L250.762 207.616C250.315 207.616 249.894 207.555 249.497 207.432C249.096 207.304 248.745 207.119 248.444 206.878C248.139 206.632 247.9 206.329 247.727 205.969C247.553 205.609 247.467 205.196 247.467 204.731C247.467 204.353 247.519 204.016 247.624 203.72C247.724 203.419 247.884 203.164 248.103 202.954C248.321 202.744 248.606 202.585 248.957 202.476C249.303 202.366 249.723 202.312 250.215 202.312L255 202.312L255 203.966L250.208 203.966C249.834 203.966 249.545 204.021 249.34 204.13C249.135 204.235 248.993 204.385 248.916 204.581C248.834 204.777 248.793 205.012 248.793 205.285C248.793 205.54 248.841 205.766 248.937 205.962C249.028 206.153 249.158 206.315 249.326 206.447C249.49 206.579 249.679 206.68 249.894 206.748C250.108 206.812 250.34 206.844 250.591 206.844ZM251.384 200.931L251.227 200.931C250.693 200.931 250.199 200.853 249.743 200.698C249.283 200.543 248.884 200.32 248.547 200.028C248.205 199.732 247.941 199.372 247.754 198.948C247.562 198.52 247.467 198.037 247.467 197.499C247.467 196.957 247.562 196.474 247.754 196.05C247.941 195.621 248.205 195.259 248.547 194.963C248.884 194.667 249.283 194.441 249.743 194.286C250.199 194.131 250.693 194.054 251.227 194.054L251.384 194.054C251.917 194.054 252.411 194.131 252.867 194.286C253.323 194.441 253.722 194.667 254.063 194.963C254.401 195.259 254.665 195.619 254.856 196.043C255.043 196.467 255.137 196.948 255.137 197.485C255.137 198.028 255.043 198.513 254.856 198.941C254.665 199.365 254.401 199.725 254.063 200.021C253.722 200.318 253.323 200.543 252.867 200.698C252.411 200.853 251.917 200.931 251.384 200.931ZM251.227 199.283L251.384 199.283C251.716 199.283 252.031 199.249 252.327 199.181C252.623 199.112 252.883 199.005 253.106 198.859C253.33 198.714 253.505 198.527 253.633 198.299C253.76 198.071 253.824 197.8 253.824 197.485C253.824 197.18 253.76 196.916 253.633 196.692C253.505 196.465 253.33 196.278 253.106 196.132C252.883 195.986 252.623 195.879 252.327 195.811C252.031 195.738 251.716 195.701 251.384 195.701L251.227 195.701C250.898 195.701 250.589 195.738 250.297 195.811C250.001 195.879 249.739 195.988 249.511 196.139C249.283 196.285 249.105 196.471 248.978 196.699C248.845 196.923 248.779 197.189 248.779 197.499C248.779 197.809 248.845 198.078 248.978 198.306C249.105 198.529 249.283 198.714 249.511 198.859C249.739 199.005 250.001 199.112 250.297 199.181C250.589 199.249 250.898 199.283 251.227 199.283ZM249.012 191.019L255 191.019L255 192.666L247.604 192.666L247.604 191.094L249.012 191.019ZM247.556 188.756L249.087 188.77C249.069 188.87 249.055 188.979 249.046 189.098C249.037 189.212 249.032 189.326 249.032 189.439C249.032 189.722 249.073 189.97 249.155 190.185C249.233 190.399 249.347 190.579 249.497 190.725C249.643 190.866 249.821 190.975 250.03 191.053C250.24 191.13 250.475 191.176 250.734 191.189L250.762 191.565C250.297 191.565 249.866 191.52 249.47 191.429C249.073 191.338 248.725 191.201 248.424 191.019C248.123 190.832 247.888 190.599 247.72 190.321C247.551 190.039 247.467 189.713 247.467 189.344C247.467 189.243 247.476 189.136 247.494 189.022C247.512 188.904 247.533 188.815 247.556 188.756ZM254.193 185.454L247.604 183.444L247.604 181.681L256.128 184.647C256.31 184.716 256.508 184.805 256.723 184.914C256.937 185.023 257.14 185.167 257.331 185.345C257.527 185.518 257.684 185.734 257.803 185.994C257.926 186.254 257.987 186.568 257.987 186.937C257.987 187.083 257.974 187.225 257.946 187.361C257.924 187.493 257.898 187.619 257.871 187.737L256.613 187.744C256.618 187.699 256.622 187.644 256.627 187.58C256.632 187.512 256.634 187.457 256.634 187.416C256.634 187.143 256.6 186.915 256.531 186.732C256.467 186.55 256.363 186.402 256.217 186.288C256.071 186.17 255.875 186.069 255.629 185.987L254.193 185.454ZM247.604 186.589L253.141 184.832L254.877 184.538L255.171 185.68L247.604 188.366L247.604 186.589Z" fill="black"/>
<path d="M250.646 380.354C250.842 380.549 251.158 380.549 251.354 380.354L254.536 377.172C254.731 376.976 254.731 376.66 254.536 376.464C254.34 376.269 254.024 376.269 253.828 376.464L251 379.293L248.172 376.464C247.976 376.269 247.66 376.269 247.464 376.464C247.269 376.66 247.269 376.976 247.464 377.172L250.646 380.354ZM250.5 236L250.5 380L251.5 380L251.5 236L250.5 236Z" fill="black"/>
<path d="M251.354 32.6464C251.158 32.4512 250.842 32.4512 250.646 32.6464L247.464 35.8284C247.269 36.0237 247.269 36.3403 247.464 36.5355C247.66 36.7308 247.976 36.7308 248.172 36.5355L251 33.7071L253.828 36.5355C254.024 36.7308 254.34 36.7308 254.536 36.5355C254.731 36.3403 254.731 36.0237 254.536 35.8284L251.354 32.6464ZM251.5 177L251.5 33L250.5 33L250.5 177L251.5 177Z" fill="black"/>
</svg>
